<svg width="18" height="22" viewBox="0 0 18 22" fill="none" xmlns="http://www.w3.org/2000/svg">
<path d="M0.877848 16.5994L0.877848 2.83723C0.877848 1.37242 2.06532 0.184947 3.53013 0.184947L15.2002 0.184947C16.665 0.184947 17.8525 1.37242 17.8525 2.83723L17.8525 18.7509C17.8525 20.2158 16.665 21.4032 15.2002 21.4032L5.68164 21.4032C5.54081 21.4122 5.39422 21.3652 5.27687 21.2479L1.03321 17.0042C0.91587 16.8869 0.868915 16.7403 0.877848 16.5994ZM6.18242 20.3423L15.2002 20.3423C16.0791 20.3423 16.7916 19.6298 16.7916 18.7509L16.7916 2.83723C16.7916 1.95834 16.0791 1.24586 15.2002 1.24586L3.53013 1.24586C2.65124 1.24586 1.93876 1.95834 1.93876 2.83723L1.93876 16.0987H5.65196C5.94493 16.0987 6.18242 16.3362 6.18242 16.6291L6.18242 20.3423ZM5.12151 19.5921L5.12151 17.1596H2.68894L5.12151 19.5921ZM13.0784 12.917C13.3713 12.917 13.6088 13.1545 13.6088 13.4474C13.6088 13.7404 13.3713 13.9779 13.0784 13.9779L5.65196 13.9779C5.359 13.9779 5.12151 13.7404 5.12151 13.4474C5.12151 13.1545 5.359 12.917 5.65196 12.917L13.0784 12.917ZM13.0784 9.73424C13.3713 9.73424 13.6088 9.97173 13.6088 10.2647C13.6088 10.5577 13.3713 10.7952 13.0784 10.7952L5.65196 10.7952C5.359 10.7952 5.12151 10.5577 5.12151 10.2647C5.12151 9.97173 5.359 9.73424 5.65196 9.73424L13.0784 9.73424ZM13.0784 6.5515C13.3713 6.5515 13.6088 6.78899 13.6088 7.08195C13.6088 7.37492 13.3713 7.61241 13.0784 7.61241H7.77379C7.48083 7.61241 7.24333 7.37492 7.24333 7.08195C7.24333 6.78899 7.48083 6.5515 7.77379 6.5515H13.0784Z" fill="white"/>
</svg>
