<svg width="60" height="76" viewBox="0 0 60 76" fill="none" xmlns="http://www.w3.org/2000/svg">
<path d="M0.208591 58.3556L0.208591 10.1873C0.208591 5.06038 4.36478 0.90419 9.49171 0.90419L50.3374 0.90419C55.4644 0.90419 59.6205 5.06038 59.6205 10.1873L59.6205 65.886C59.6205 71.0129 55.4644 75.1691 50.3374 75.1691H17.0221C16.5292 75.2004 16.0161 75.036 15.6054 74.6253L0.752382 59.7723C0.341671 59.3616 0.177328 58.8486 0.208591 58.3556ZM18.7748 71.4559L50.3374 71.4559C53.4136 71.4559 55.9073 68.9622 55.9073 65.886L55.9073 10.1873C55.9073 7.11115 53.4136 4.61744 50.3374 4.61744L9.49171 4.61744C6.41555 4.61744 3.92184 7.11115 3.92184 10.1873L3.92184 56.6029H16.9182C17.9436 56.6029 18.7748 57.4341 18.7748 58.4595L18.7748 71.4559ZM15.0616 68.8302L15.0616 60.3161H6.5475L15.0616 68.8302ZM42.9109 45.4669C43.9363 45.4669 44.7676 46.2981 44.7676 47.3235C44.7676 48.3489 43.9363 49.1801 42.9109 49.1801L16.9182 49.1801C15.8928 49.1801 15.0616 48.3489 15.0616 47.3235C15.0616 46.2981 15.8928 45.4669 16.9182 45.4669L42.9109 45.4669ZM42.9109 34.3271C43.9363 34.3271 44.7676 35.1584 44.7676 36.1838C44.7676 37.2091 43.9363 38.0404 42.9109 38.0404L16.9182 38.0404C15.8928 38.0404 15.0616 37.2091 15.0616 36.1838C15.0616 35.1584 15.8928 34.3271 16.9182 34.3271L42.9109 34.3271ZM42.9109 23.1874C43.9363 23.1874 44.7676 24.0186 44.7676 25.044C44.7676 26.0694 43.9363 26.9006 42.9109 26.9006H24.3447C23.3193 26.9006 22.4881 26.0694 22.4881 25.044C22.4881 24.0186 23.3193 23.1874 24.3447 23.1874H42.9109Z" fill="white"/>
</svg>
