<svg width="269" height="113" viewBox="0 0 269 113" fill="none" xmlns="http://www.w3.org/2000/svg">
<path d="M253.96 1.72067L253.681 0.760479L251.76 1.31914L252.04 2.27933L253.96 1.72067ZM0 112C0 113 0.000843056 113 0.0025261 113C0.00420912 113 0.00673215 113 0.0100921 113C0.0169401 113 0.0267518 113 0.0402708 113C0.0671233 113 0.107058 113 0.160301 113C0.266655 113 0.425377 113 0.634949 113C1.05408 113 1.67651 113 2.48975 113C4.11621 113 6.50586 113 9.55859 113C15.6641 113 24.4219 113 35.0312 113C56.25 113 84.875 113 114.5 113C173.75 113 237 113 253 113L253 111C237 111 173.75 111 114.5 111C84.875 111 56.25 111 35.0313 111C24.4219 111 15.6641 111 9.55859 111C6.50586 111 4.11621 111 2.48975 111C1.67651 111 1.05408 111 0.634949 111C0.425393 111 0.266639 111 0.160301 111C0.107202 111 0.0669787 111 0.0402708 111C0.0270078 111 0.0166841 111 0.0100921 111C0.00673218 111 0.00420915 111 0.0025261 111C0.000843059 111 0 111 0 112ZM253 113C257.343 113 260.634 111.109 262.996 107.862C265.321 104.665 266.729 100.183 267.49 94.9564C269.011 84.4947 267.993 70.6262 265.99 56.8561C263.983 43.0637 260.976 29.2807 258.472 18.9519C257.22 13.7859 256.092 9.48056 255.278 6.46577C254.871 4.95833 254.542 3.77337 254.314 2.96464C254.201 2.56027 254.112 2.24995 254.052 2.04038C254.022 1.9356 253.999 1.85601 253.984 1.80244C253.976 1.77566 253.97 1.75538 253.966 1.74173C253.964 1.73489 253.963 1.72971 253.962 1.7262C253.961 1.72444 253.961 1.72305 253.961 1.72218C253.96 1.72121 253.96 1.72067 253 2C252.04 2.27933 252.04 2.27962 252.04 2.28033C252.04 2.28113 252.041 2.28226 252.041 2.28385C252.042 2.28702 252.043 2.29186 252.045 2.29836C252.049 2.31133 252.055 2.33092 252.062 2.35701C252.077 2.40919 252.1 2.48737 252.129 2.59072C252.189 2.79741 252.276 3.10476 252.389 3.50606C252.615 4.30866 252.942 5.48699 253.347 6.98734C254.158 9.98818 255.28 14.2766 256.528 19.4231C259.024 29.7193 262.017 43.4363 264.01 57.1439C266.007 70.8738 266.989 84.5053 265.51 94.6686C264.771 99.7547 263.429 103.867 261.379 106.685C259.366 109.453 256.657 111 253 111L253 113Z" fill="url(#paint0_radial_1_762)"/>
<defs>
<radialGradient id="paint0_radial_1_762" cx="0" cy="0" r="1" gradientUnits="userSpaceOnUse" gradientTransform="translate(126.699 57.4585) rotate(-23.4986) scale(137.939 0.5)">
<stop offset="0.105" stop-color="white"/>
<stop offset="1" stop-color="#999999"/>
</radialGradient>
</defs>
</svg>
