<svg width="269" height="113" viewBox="0 0 269 113" fill="none" xmlns="http://www.w3.org/2000/svg">
<path d="M14.6637 1.72066L14.943 0.760479L16.8634 1.31919L16.584 2.27937L14.6637 1.72066ZM268.621 112.006C268.621 113.006 268.62 113.006 268.619 113.006C268.617 113.006 268.614 113.006 268.611 113.006C268.604 113.006 268.594 113.006 268.581 113.006C268.554 113.006 268.514 113.006 268.461 113.006C268.354 113.006 268.196 113.006 267.986 113.006C267.567 113.006 266.945 113.006 266.131 113.006C264.505 113.006 262.115 113.006 259.062 113.006C252.957 113.006 244.199 113.006 233.59 113.005C212.371 113.005 183.746 113.004 154.121 113.003C94.8711 113.002 31.6211 113 15.6211 113L15.6211 111C31.6211 111 94.8711 111.002 154.121 111.003C183.746 111.004 212.371 111.005 233.59 111.005C244.199 111.006 252.957 111.006 259.063 111.006C262.115 111.006 264.505 111.006 266.131 111.006C266.945 111.006 267.567 111.006 267.986 111.006C268.196 111.006 268.354 111.006 268.461 111.006C268.514 111.006 268.554 111.006 268.581 111.006C268.594 111.006 268.604 111.006 268.611 111.006C268.614 111.006 268.617 111.006 268.619 111.006C268.62 111.006 268.621 111.006 268.621 112.006ZM15.6211 113C11.2784 113 7.98675 111.109 5.62496 107.861C3.29992 104.664 1.89201 100.182 1.13193 94.9561C-0.389526 84.4943 0.629604 70.6258 2.63288 56.8557C4.63939 43.0635 7.64737 29.2805 10.1516 18.9518C11.404 13.7858 12.5314 9.4805 13.3458 6.46573C13.7531 4.9583 14.0822 3.77335 14.3096 2.96462C14.4233 2.56026 14.5117 2.24994 14.5716 2.04037C14.6016 1.93559 14.6245 1.856 14.64 1.80243C14.6477 1.77566 14.6536 1.75538 14.6576 1.74172C14.6595 1.73489 14.661 1.7297 14.662 1.72619C14.6625 1.72443 14.6629 1.72305 14.6632 1.72218C14.6635 1.7212 14.6637 1.72066 15.6238 2.00002C16.584 2.27937 16.5839 2.27966 16.5837 2.28037C16.5835 2.28117 16.5832 2.2823 16.5827 2.28389C16.5818 2.28706 16.5804 2.2919 16.5785 2.2984C16.5747 2.31137 16.5691 2.33096 16.5615 2.35705C16.5465 2.40923 16.524 2.48741 16.4944 2.59075C16.4352 2.79745 16.3478 3.1048 16.2349 3.50609C16.0092 4.30869 15.682 5.48701 15.2766 6.98735C14.4659 9.98817 13.343 14.2765 12.0953 19.423C9.59895 29.7192 6.60623 43.4361 4.61206 57.1437C2.61464 70.8735 1.63309 84.505 3.11112 94.6683C3.85079 99.7544 5.19267 103.866 7.24246 106.685C9.25554 109.453 11.9638 111 15.6211 111L15.6211 113Z" fill="url(#paint0_radial_1_764)"/>
<defs>
<radialGradient id="paint0_radial_1_764" cx="0" cy="0" r="1" gradientUnits="userSpaceOnUse" gradientTransform="translate(141.923 57.4617) rotate(-156.5) scale(137.939 0.5)">
<stop offset="0.105" stop-color="white"/>
<stop offset="1" stop-color="#999999"/>
</radialGradient>
</defs>
</svg>
