<svg width="269" height="113" viewBox="0 0 269 113" fill="none" xmlns="http://www.w3.org/2000/svg">
<path d="M253.957 111.713L253.678 112.673L251.758 112.114L252.037 111.154L253.957 111.713ZM0 1.42725C2.50136e-05 0.427246 0.00086807 0.427246 0.00255111 0.427246C0.00423413 0.427246 0.00675716 0.427246 0.0101171 0.427246C0.0169651 0.427247 0.0267768 0.427247 0.0402958 0.427247C0.0671483 0.427248 0.107083 0.427249 0.160326 0.42725C0.26668 0.427253 0.425402 0.427257 0.634974 0.427262C1.05411 0.427273 1.67653 0.427288 2.48977 0.427308C4.11624 0.427349 6.50588 0.427409 9.55862 0.427485C15.6641 0.427638 24.4219 0.427857 35.0313 0.428122C56.25 0.428653 84.875 0.429368 114.5 0.430109C173.75 0.431594 237 0.433176 253 0.433574L253 2.43357C237 2.43317 173.75 2.43159 114.5 2.43011C84.875 2.42937 56.25 2.42865 35.0312 2.42812C24.4219 2.42786 15.664 2.42764 9.55857 2.42749C6.50583 2.42741 4.11619 2.42735 2.48972 2.42731C1.67648 2.42729 1.05406 2.42727 0.634924 2.42726C0.425368 2.42726 0.266614 2.42725 0.160276 2.42725C0.107177 2.42725 0.0669537 2.42725 0.0402458 2.42725C0.0269827 2.42725 0.0166591 2.42725 0.0100671 2.42725C0.00670716 2.42725 0.00418413 2.42725 0.00250109 2.42725C0.000818046 2.42725 -2.50136e-05 2.42725 0 1.42725ZM253 0.433574C257.343 0.433684 260.634 2.32459 262.996 5.57221C265.321 8.76933 266.729 13.2511 267.489 18.4775C269.011 28.9393 267.991 42.8078 265.988 56.5778C263.982 70.3701 260.974 84.1531 258.47 94.4818C257.217 99.6478 256.09 103.953 255.275 106.968C254.868 108.475 254.539 109.66 254.312 110.469C254.198 110.873 254.109 111.184 254.049 111.393C254.019 111.498 253.997 111.578 253.981 111.631C253.973 111.658 253.968 111.678 253.964 111.692C253.962 111.699 253.96 111.704 253.959 111.707C253.959 111.709 253.958 111.711 253.958 111.711C253.958 111.712 253.957 111.713 252.997 111.434C252.037 111.154 252.037 111.154 252.037 111.153C252.038 111.152 252.038 111.151 252.038 111.15C252.039 111.147 252.041 111.142 252.043 111.135C252.046 111.122 252.052 111.103 252.06 111.077C252.075 111.024 252.097 110.946 252.127 110.843C252.186 110.636 252.273 110.329 252.386 109.928C252.612 109.125 252.939 107.947 253.344 106.446C254.155 103.445 255.278 99.1571 256.526 94.0106C259.022 83.7144 262.015 69.9975 264.009 56.2899C266.006 42.5601 266.988 28.9286 265.51 18.7653C264.77 13.6792 263.428 9.56714 261.379 6.74852C259.366 3.98041 256.657 2.43367 253 2.43357L253 0.433574Z" fill="url(#paint0_radial_1_765)"/>
<defs>
<radialGradient id="paint0_radial_1_765" cx="0" cy="0" r="1" gradientUnits="userSpaceOnUse" gradientTransform="translate(126.698 55.9719) rotate(23.5) scale(137.939 0.5)">
<stop offset="0.105" stop-color="white"/>
<stop offset="1" stop-color="#999999"/>
</radialGradient>
</defs>
</svg>
