<svg width="269" height="113" viewBox="0 0 269 113" fill="none" xmlns="http://www.w3.org/2000/svg">
<path d="M14.6637 111.713L14.943 112.673L16.8634 112.114L16.584 111.154L14.6637 111.713ZM268.621 1.42725C268.621 0.427246 268.62 0.427246 268.619 0.427246C268.617 0.427246 268.614 0.427246 268.611 0.427246C268.604 0.427247 268.594 0.427247 268.581 0.427247C268.554 0.427248 268.514 0.427249 268.461 0.42725C268.354 0.427253 268.196 0.427257 267.986 0.427262C267.567 0.427273 266.945 0.427288 266.131 0.427308C264.505 0.427349 262.115 0.427409 259.062 0.427485C252.957 0.427638 244.199 0.427857 233.59 0.428122C212.371 0.428653 183.746 0.429368 154.121 0.430109C94.8711 0.431594 31.6211 0.433176 15.6211 0.433574L15.6211 2.43357C31.6211 2.43317 94.8711 2.43159 154.121 2.43011C183.746 2.42937 212.371 2.42865 233.59 2.42812C244.199 2.42786 252.957 2.42764 259.063 2.42749C262.115 2.42741 264.505 2.42735 266.131 2.42731C266.945 2.42729 267.567 2.42727 267.986 2.42726C268.196 2.42726 268.354 2.42725 268.461 2.42725C268.514 2.42725 268.554 2.42725 268.581 2.42725C268.594 2.42725 268.604 2.42725 268.611 2.42725C268.614 2.42725 268.617 2.42725 268.619 2.42725C268.62 2.42725 268.621 2.42725 268.621 1.42725ZM15.6211 0.433574C11.2784 0.433684 7.98675 2.32459 5.62496 5.57221C3.29992 8.76933 1.89201 13.2511 1.13193 18.4775C-0.389526 28.9393 0.629604 42.8078 2.63288 56.5778C4.63939 70.3701 7.64737 84.1531 10.1516 94.4818C11.404 99.6478 12.5314 103.953 13.3458 106.968C13.7531 108.475 14.0822 109.66 14.3096 110.469C14.4233 110.873 14.5117 111.184 14.5716 111.393C14.6016 111.498 14.6245 111.578 14.64 111.631C14.6477 111.658 14.6536 111.678 14.6576 111.692C14.6595 111.699 14.661 111.704 14.662 111.707C14.6625 111.709 14.6629 111.711 14.6632 111.711C14.6635 111.712 14.6637 111.713 15.6238 111.434C16.584 111.154 16.5839 111.154 16.5837 111.153C16.5835 111.152 16.5832 111.151 16.5827 111.15C16.5818 111.147 16.5804 111.142 16.5785 111.135C16.5747 111.122 16.5691 111.103 16.5615 111.077C16.5465 111.024 16.524 110.946 16.4944 110.843C16.4352 110.636 16.3478 110.329 16.2349 109.928C16.0092 109.125 15.682 107.947 15.2766 106.446C14.4659 103.445 13.343 99.1571 12.0953 94.0106C9.59895 83.7144 6.60623 69.9975 4.61206 56.2899C2.61464 42.5601 1.63309 28.9286 3.11112 18.7653C3.85079 13.6792 5.19267 9.56714 7.24246 6.74852C9.25554 3.98041 11.9638 2.43367 15.6211 2.43357L15.6211 0.433574Z" fill="url(#paint0_radial_1_763)"/>
<defs>
<radialGradient id="paint0_radial_1_763" cx="0" cy="0" r="1" gradientUnits="userSpaceOnUse" gradientTransform="translate(141.923 55.9719) rotate(156.5) scale(137.939 0.5)">
<stop offset="0.105" stop-color="white"/>
<stop offset="1" stop-color="#999999"/>
</radialGradient>
</defs>
</svg>
