<svg width="29" height="28" viewBox="0 0 29 28" fill="none" xmlns="http://www.w3.org/2000/svg">
<path d="M24.9996 14.0005C24.9996 14.2326 24.9074 14.4551 24.7433 14.6192C24.5792 14.7833 24.3567 14.8755 24.1246 14.8755H6.98662L13.3687 21.2564C13.45 21.3377 13.5144 21.4342 13.5584 21.5405C13.6024 21.6467 13.6251 21.7605 13.6251 21.8755C13.6251 21.9905 13.6024 22.1043 13.5584 22.2105C13.5144 22.3167 13.45 22.4133 13.3687 22.4946C13.2874 22.5758 13.1908 22.6403 13.0846 22.6843C12.9784 22.7283 12.8646 22.751 12.7496 22.751C12.6346 22.751 12.5208 22.7283 12.4146 22.6843C12.3083 22.6403 12.2118 22.5758 12.1305 22.4946L4.25553 14.6195C4.17417 14.5383 4.10963 14.4418 4.0656 14.3356C4.02157 14.2293 3.9989 14.1155 3.9989 14.0005C3.9989 13.8855 4.02157 13.7716 4.0656 13.6654C4.10963 13.5592 4.17417 13.4627 4.25553 13.3814L12.1305 5.50642C12.2947 5.34224 12.5174 5.25 12.7496 5.25C12.9818 5.25 13.2045 5.34224 13.3687 5.50642C13.5328 5.67061 13.6251 5.89329 13.6251 6.12549C13.6251 6.35768 13.5328 6.58036 13.3687 6.74455L6.98662 13.1255H24.1246C24.3567 13.1255 24.5792 13.2177 24.7433 13.3818C24.9074 13.5459 24.9996 13.7684 24.9996 14.0005Z" fill="white"/>
</svg>
