<svg width="39" height="39" viewBox="0 0 39 39" fill="none" xmlns="http://www.w3.org/2000/svg">
<path d="M3.7301 9.21733C3.7301 8.6444 3.85741 8.05556 4.12796 7.48263C4.39851 6.9097 4.74864 6.3686 5.21016 5.85932C5.98998 4.99993 6.84938 4.37926 7.82018 3.98139C8.77506 3.58352 9.80951 3.37663 10.9235 3.37663C12.5468 3.37663 14.2816 3.75858 16.1117 4.5384C17.9419 5.31822 19.7721 6.3686 21.5864 7.68952C23.4166 9.02635 25.1513 10.5064 26.8064 12.1456C28.4456 13.8008 29.9257 15.5355 31.2466 17.3497C32.5516 19.164 33.602 20.9783 34.3659 22.7767C35.1298 24.5909 35.5118 26.3256 35.5118 27.9808C35.5118 29.063 35.3208 30.0974 34.9389 31.0523C34.5569 32.0231 33.9521 32.9143 33.1087 33.7101C32.0901 34.7127 30.9761 35.2061 29.7984 35.2061C29.3528 35.2061 28.9072 35.1106 28.5093 34.9196C28.0955 34.7286 27.7295 34.4421 27.443 34.0284L23.7508 28.8243C23.4643 28.4264 23.2574 28.0603 23.1142 27.7102C22.971 27.376 22.8914 27.0418 22.8914 26.7394C22.8914 26.3575 23.0028 25.9755 23.2256 25.6095C23.4325 25.2434 23.7349 24.8615 24.1168 24.4795L25.3264 23.2223C25.5014 23.0472 25.581 22.8403 25.581 22.5857C25.581 22.4584 25.5651 22.347 25.5333 22.2196C25.4855 22.0923 25.4378 21.9968 25.4059 21.9014C25.1195 21.3762 24.6261 20.6918 23.9259 19.8643C23.2097 19.0367 22.4458 18.1932 21.6182 17.3497C20.7588 16.5063 19.9313 15.7264 19.0878 15.0103C18.2602 14.31 17.5759 13.8326 17.0348 13.5461C16.9552 13.5143 16.8597 13.4666 16.7483 13.4188C16.621 13.3711 16.4937 13.3552 16.3505 13.3552C16.0799 13.3552 15.873 13.4506 15.698 13.6257L14.4884 14.8193C14.0906 15.2172 13.7086 15.5196 13.3426 15.7105C12.9765 15.9333 12.6105 16.0447 12.2126 16.0447C11.9103 16.0447 11.592 15.9811 11.2418 15.8379C10.8917 15.6946 10.5257 15.4877 10.1278 15.2172L4.86004 11.4772C4.44626 11.1908 4.15979 10.8565 3.98473 10.4587C3.82558 10.0608 3.7301 9.66294 3.7301 9.21733Z" stroke="#BBBBBB" stroke-width="1.59147" stroke-miterlimit="10"/>
<path d="M5.25613 29.904L5.60639 25.4137" stroke="#BBBBBB" stroke-width="1.37928" stroke-miterlimit="10" stroke-linecap="round" stroke-linejoin="round"/>
<path d="M13.4562 22.8916L5.25594 29.9051" stroke="#BBBBBB" stroke-width="1.37928" stroke-miterlimit="10" stroke-linecap="round" stroke-linejoin="round"/>
<path d="M15.9351 25.7897L15.5848 30.28" stroke="#BBBBBB" stroke-width="1.37928" stroke-miterlimit="10" stroke-linecap="round" stroke-linejoin="round"/>
<path d="M7.7347 32.8025L15.9349 25.7891" stroke="#BBBBBB" stroke-width="1.37928" stroke-miterlimit="10" stroke-linecap="round" stroke-linejoin="round"/>
</svg>
