<svg width="22" height="22" viewBox="0 0 22 22" fill="none" xmlns="http://www.w3.org/2000/svg">
<path d="M14.3035 17.3028C14.3651 17.3644 14.414 17.4375 14.4473 17.518C14.4806 17.5985 14.4978 17.6848 14.4978 17.7719C14.4978 17.8591 14.4806 17.9453 14.4473 18.0258C14.414 18.1063 14.3651 18.1795 14.3035 18.2411C14.2419 18.3027 14.1687 18.3516 14.0882 18.3849C14.0077 18.4183 13.9214 18.4354 13.8343 18.4354C13.7472 18.4354 13.6609 18.4183 13.5804 18.3849C13.4999 18.3516 13.4268 18.3027 13.3652 18.2411L6.73403 11.61C6.67238 11.5484 6.62347 11.4752 6.5901 11.3947C6.55673 11.3142 6.53955 11.2279 6.53955 11.1408C6.53955 11.0537 6.55673 10.9674 6.5901 10.8869C6.62347 10.8064 6.67238 10.7332 6.73403 10.6717L13.3652 4.04052C13.4896 3.91609 13.6584 3.84619 13.8343 3.84619C14.0103 3.84619 14.179 3.91609 14.3035 4.04052C14.4279 4.16495 14.4978 4.33371 14.4978 4.50967C14.4978 4.68564 14.4279 4.8544 14.3035 4.97883L8.14066 11.1408L14.3035 17.3028Z" fill="#39E991"/>
</svg>
