<svg width="39" height="39" viewBox="0 0 39 39" fill="none" xmlns="http://www.w3.org/2000/svg">
<path d="M35.5116 3.75977L3.68217 3.75977" stroke="#BBBBBB" stroke-width="1.59147" stroke-miterlimit="10" stroke-linecap="round" stroke-linejoin="round"/>
<path d="M23.1782 32.4074L23.1782 3.76091L16.0165 3.76091L16.0165 32.4074C16.0165 34.158 16.7327 35.5903 18.8812 35.5903H20.3135C22.462 35.5903 23.1782 34.158 23.1782 32.4074Z" stroke="#BBBBBB" stroke-width="1.59147" stroke-linecap="round" stroke-linejoin="round"/>
<path d="M33.9206 22.8586L33.9206 3.76091H27.5547L27.5547 22.8586C27.5547 24.6092 28.1913 26.0415 30.1011 26.0415H31.3742C33.284 26.0415 33.9206 24.6092 33.9206 22.8586Z" stroke="#BBBBBB" stroke-width="1.59147" stroke-linecap="round" stroke-linejoin="round"/>
<path d="M11.6395 14.9001L11.6395 3.75977L5.27364 3.75977L5.27364 14.9001C5.27364 16.6507 5.91023 18.083 7.82 18.083H9.09317C11.0029 18.083 11.6395 16.6507 11.6395 14.9001Z" stroke="#BBBBBB" stroke-width="1.59147" stroke-linecap="round" stroke-linejoin="round"/>
</svg>
