<svg width="43" height="44" viewBox="0 0 43 44" fill="none" xmlns="http://www.w3.org/2000/svg">
<path d="M12.9768 27.8098L12.9768 29.32C12.9768 33.0384 19.094 35.9512 26.9021 35.9512C34.7103 35.9512 40.8275 33.0384 40.8275 29.32V22.6889C40.8275 19.5159 36.3747 16.9331 30.2177 16.2418V14.7316C30.2177 11.0131 24.1005 8.10042 16.2923 8.10042C8.48418 8.10042 2.36696 11.0131 2.36696 14.7316V21.3627C2.36696 24.4926 6.69874 27.1036 12.9768 27.8098ZM3.69318 21.3627C3.69318 18.8014 8.75605 16.0578 16.2923 16.0578C17.8478 16.0554 19.4006 16.1852 20.9341 16.4457V16.6761C16.1912 17.7222 12.9768 19.9917 12.9768 22.6889V26.4736C7.63539 25.8387 3.69318 23.6952 3.69318 21.3627ZM24.8813 17.452C25.5323 17.4067 26.2059 17.384 26.9021 17.384C27.8089 17.384 28.6793 17.4255 29.5098 17.4984H29.5546C30.2442 17.5614 30.9073 17.6476 31.5439 17.757L31.5439 23.0536C30.0089 22.8078 28.4567 22.6858 26.9021 22.6889C25.3476 22.6858 23.7953 22.8078 22.2603 23.0536V17.762C23.1123 17.6165 23.971 17.5142 24.8332 17.4553L24.8813 17.452ZM14.303 26.4488V22.6889C14.303 20.8852 16.8162 18.9921 20.9341 18.0289V23.3073C18.0115 23.9521 15.6707 25.0612 14.303 26.4488ZM26.9021 34.6249C19.3659 34.6249 14.303 31.8813 14.303 29.32C14.303 26.7588 19.3659 24.0151 26.9021 24.0151C34.4384 24.0151 39.5013 26.7588 39.5013 29.32C39.5013 31.8813 34.4384 34.6249 26.9021 34.6249ZM39.5013 22.6889V26.4488C38.1336 25.0612 35.7928 23.9521 32.8702 23.299L32.8702 18.0206C36.9881 18.9921 39.5013 20.8852 39.5013 22.6889ZM28.8915 14.7316V16.1241C28.2433 16.081 27.5785 16.0578 26.9021 16.0578C26.2258 16.0578 25.566 16.081 24.9128 16.1224C24.0469 15.8074 23.1607 15.551 22.2603 15.3549V10.0715C26.3783 11.0347 28.8915 12.9279 28.8915 14.7316ZM20.9341 9.80462V15.1012C19.3993 14.8535 17.847 14.7298 16.2923 14.7316C14.7378 14.7285 13.1855 14.8504 11.6505 15.0963V9.80462C14.7245 9.30066 17.8601 9.30066 20.9341 9.80462ZM3.69318 14.7316C3.69318 12.9279 6.20638 11.0347 10.3243 10.0715V15.3499C7.40164 15.9948 5.06085 17.1038 3.69318 18.4997V14.7316Z" fill="#18D777"/>
</svg>
