<svg width="41" height="41" viewBox="0 0 41 41" fill="none" xmlns="http://www.w3.org/2000/svg">
<path d="M3.79842 22.6091L3.79842 34.0323C3.79842 36.5521 4.87354 37.5601 7.54456 37.5601H14.3313C17.0023 37.5601 18.0775 36.5521 18.0775 34.0323L18.0775 22.6091C18.0775 20.0892 17.0023 19.0813 14.3313 19.0813L7.54456 19.0813C4.87354 19.0813 3.79842 20.0892 3.79842 22.6091Z" stroke="white" stroke-width="1.85672" stroke-linecap="round" stroke-linejoin="round"/>
<path d="M3.79842 7.49141V10.5152C3.79842 13.035 4.87354 14.043 7.54456 14.043L14.3313 14.043C17.0023 14.043 18.0775 13.035 18.0775 10.5152V7.49141C18.0775 4.97158 17.0023 3.96365 14.3313 3.96365L7.54456 3.96365C4.87354 3.96365 3.79842 4.97158 3.79842 7.49141Z" stroke="white" stroke-width="1.85672" stroke-linecap="round" stroke-linejoin="round"/>
<path d="M23.1174 18.9132L23.1174 7.48993C23.1174 4.9701 24.1925 3.96217 26.8635 3.96217L33.6503 3.96217C36.3213 3.96217 37.3964 4.9701 37.3964 7.48993L37.3964 18.9132C37.3964 21.433 36.3213 22.4409 33.6503 22.4409L26.8635 22.4409C24.1925 22.4409 23.1174 21.433 23.1174 18.9132Z" stroke="white" stroke-width="1.85672" stroke-linecap="round" stroke-linejoin="round"/>
<path d="M23.1174 34.0323V31.0085C23.1174 28.4887 24.1925 27.4807 26.8635 27.4807L33.6503 27.4807C36.3213 27.4807 37.3964 28.4887 37.3964 31.0085V34.0323C37.3964 36.5521 36.3213 37.5601 33.6503 37.5601H26.8635C24.1925 37.5601 23.1174 36.5521 23.1174 34.0323Z" stroke="white" stroke-width="1.85672" stroke-linecap="round" stroke-linejoin="round"/>
</svg>
