<svg width="229" height="110" viewBox="0 0 229 110" fill="none" xmlns="http://www.w3.org/2000/svg">
<rect width="229" height="110" fill="#0B0B0D"/>
<mask id="mask0_4008_372" style="mask-type:luminance" maskUnits="userSpaceOnUse" x="17" y="43" width="194" height="25">
<path d="M210.001 43H17.4062V67.72H210.001V43Z" fill="white"/>
</mask>
<g mask="url(#mask0_4008_372)">
<path d="M17.4062 65.9389C19.1168 67.0817 21.5314 67.7203 24.449 67.7203C29.4462 67.7203 32.7999 65.3003 32.8334 60.8637C32.867 57.3682 31.2906 55.0156 27.1321 53.7384L24.4825 52.8643C22.3026 52.1587 21.3635 51.2511 21.3635 49.5035C21.3635 47.7221 23.1746 46.7475 25.5893 46.7475C27.501 46.7475 29.7144 47.3187 31.2571 48.2263V44.2266C30.1838 43.6551 28.2724 43.0503 25.5557 43.0503C20.76 43.0503 17.4062 45.5038 17.4062 49.7387C17.4062 52.9652 19.083 55.3516 22.9064 56.528L25.7904 57.5026C28.0039 58.2085 28.9095 59.4521 28.9095 61.0654C28.9095 62.8803 27.2998 64.0231 24.6167 64.0231C22.0344 64.0231 18.9489 63.0485 17.4062 61.5696V65.9389Z" fill="#51546C"/>
<path d="M37.0859 67.3166H51.9094V63.5521H41.0097V43.4531H37.0859V67.3166Z" fill="#51546C"/>
<path d="M55.4922 67.3166H59.4159V43.4531H55.4922V67.3166Z" fill="#51546C"/>
<path d="M73.7016 43.4531H65.2499V67.3166H69.1739V58.0401H73.7016C78.5309 58.0401 81.6164 54.8136 81.6164 50.7466C81.6164 46.6798 78.5309 43.4531 73.7016 43.4531ZM73.6681 54.3429H69.1739V47.1503H73.6681C76.351 47.1503 77.7592 48.7635 77.7592 50.7466C77.7592 52.7297 76.351 54.3429 73.6681 54.3429Z" fill="#51546C"/>
<path d="M84.4158 65.9389C86.1264 67.0817 88.5407 67.7203 91.4586 67.7203C96.4558 67.7203 99.8095 65.3003 99.843 60.8637C99.8766 57.3682 98.3004 55.0156 94.1415 53.7384L91.4921 52.8643C89.3124 52.1587 88.3733 51.2511 88.3733 49.5035C88.3733 47.7221 90.1842 46.7475 92.5988 46.7475C94.5105 46.7475 96.7238 47.3187 98.2669 48.2263V44.2266C97.1937 43.6551 95.282 43.0503 92.5653 43.0503C87.7698 43.0503 84.4158 45.5038 84.4158 49.7387C84.4158 52.9652 86.0928 55.3516 89.916 56.528L92.8 57.5026C95.0137 58.2085 95.9193 59.4521 95.9193 61.0654C95.9193 62.8803 94.3094 64.0231 91.6265 64.0231C89.0442 64.0231 85.9585 63.0485 84.4158 61.5696V65.9389Z" fill="#51546C"/>
<path d="M108.487 67.3166H112.411V47.2176H119.353V43.4531H101.578V47.2176H108.487V67.3166Z" fill="#51546C"/>
<path d="M122.893 67.3166H126.817V56.8302L137.113 67.3166H142.042L131.78 56.8302C135.57 56.3595 138.052 53.8387 138.018 50.2424C137.984 46.31 135.234 43.4531 130.808 43.4531H122.893V67.3166ZM126.817 53.4018V47.083H130.338C132.652 47.083 134.094 48.1922 134.094 50.2424C134.094 52.259 132.652 53.4018 130.338 53.4018H126.817Z" fill="#51546C"/>
<path d="M144.145 67.3166H158.465V63.5521H148.068V57.0989H155.38V53.3347H148.068V47.2176H158.465V43.4531H144.145V67.3166Z" fill="#51546C"/>
<path d="M186.555 67.3169H190.479V52.6291L198.293 61.1662L206.073 52.6291V67.3169H209.998V43.0503L198.293 55.7215L186.555 43.0503V67.3169Z" fill="#51546C"/>
<path d="M177.846 61.9695L180.456 67.2667H184.547L181.934 61.9695H177.846Z" fill="#51546C"/>
<path d="M180.115 58.2776L172.578 43L160.639 67.2668H164.73L167.38 61.8891L172.578 51.2011L176.042 58.2776H180.115Z" fill="#51546C"/>
</g>
</svg>
