<svg width="228" height="110" viewBox="0 0 228 110" fill="none" xmlns="http://www.w3.org/2000/svg">
<rect width="228" height="110" fill="#0B0B0D"/>
<path d="M62.0513 45.3325L59.0644 48.6103C57.4862 47.6878 56.353 47.2183 55.6652 47.2183C55.4025 47.2207 55.1436 47.2798 54.9063 47.3915C54.6688 47.5034 54.4582 47.6651 54.2892 47.8658C54.101 48.0533 53.9523 48.2768 53.8523 48.5229C53.7522 48.769 53.7024 49.0327 53.7064 49.2984C53.7064 50.3992 54.7019 51.3462 56.7012 52.1557C57.8539 52.6171 58.9622 53.1833 60.0114 53.8472C60.7949 54.3872 61.4385 55.1057 61.8893 55.9437C62.3926 56.8287 62.6523 57.8313 62.642 58.8494C62.6402 59.8008 62.4324 60.7408 62.0328 61.6042C61.6333 62.4677 61.0514 63.2343 60.3272 63.8514C58.8443 65.2417 56.8798 66.0021 54.8475 65.9721C52.5327 65.9721 50.2582 64.8795 48 62.7345L51.1649 59.0435C52.5732 60.5006 53.9005 61.2372 55.1308 61.2372C55.4497 61.2189 55.7617 61.1382 56.0492 60.9992C56.3367 60.8604 56.5939 60.6661 56.8063 60.4277C57.0455 60.2283 57.241 59.9815 57.3802 59.703C57.5195 59.4243 57.5997 59.12 57.6158 58.8089C57.6158 57.6433 56.3881 56.6181 53.9329 55.7333C52.8711 55.3979 51.8627 54.9127 50.9381 54.2925C50.2904 53.7749 49.7814 53.1047 49.4568 52.3419C49.0389 51.5187 48.8172 50.6101 48.8095 49.6869C48.7705 48.7868 48.9228 47.8885 49.2563 47.0515C49.5897 46.2144 50.0967 45.4574 50.7438 44.8305C51.4299 44.2055 52.233 43.7225 53.1071 43.4098C53.9809 43.0974 54.9081 42.9612 55.835 43.0095C58.1311 42.9418 60.3622 43.7756 62.0513 45.3325ZM84.8035 62.6292L87.5554 65.7941L84.3179 67.85L81.8169 64.8632C80.206 65.4988 78.4971 65.8494 76.7662 65.8992C75.2622 65.9485 73.7646 65.6815 72.3703 65.1155C70.9761 64.5494 69.716 63.697 68.6721 62.6131C67.6021 61.4848 66.7688 60.1536 66.2211 58.6983C65.6733 57.2428 65.4224 55.6925 65.4832 54.1387C65.4922 51.2808 66.5958 48.535 68.5669 46.4656C69.5917 45.3263 70.8547 44.4262 72.2659 43.8289C73.6771 43.2316 75.2025 42.952 76.7338 43.0095C78.2186 42.9723 79.6953 43.2404 81.0724 43.7972C82.4494 44.3542 83.6972 45.1879 84.7387 46.2471C85.7983 47.295 86.6322 48.5484 87.189 49.9308C87.7458 51.3129 88.0137 52.7947 87.9763 54.2843C88.0366 57.3668 86.8724 60.3472 84.7387 62.5726L84.8035 62.6292ZM78.6683 61.1724L76.329 58.388L79.4857 56.324L81.6468 58.8818C82.6057 57.6693 83.0763 56.142 82.9661 54.6001C83.0695 52.7237 82.4627 50.8771 81.2665 49.428C80.7053 48.7851 80.0064 48.277 79.2214 47.9421C78.4365 47.6072 77.5863 47.4538 76.7338 47.4935C75.8976 47.4703 75.0665 47.629 74.2978 47.9588C73.5291 48.2887 72.8414 48.7818 72.282 49.4038C71.0875 50.7643 70.4616 52.5318 70.5339 54.341C70.4616 56.1693 71.0505 57.9624 72.193 59.3917C72.696 60.0245 73.3383 60.5325 74.0695 60.8765C74.801 61.2204 75.6019 61.391 76.4099 61.3746C77.167 61.3661 77.9218 61.2984 78.6683 61.1724ZM92.0963 43.3089H96.8312V56.9554C96.7803 58.0708 97.1599 59.1632 97.8915 60.0068C98.2413 60.3891 98.6701 60.6907 99.148 60.8906C99.6261 61.0904 100.142 61.1838 100.66 61.1642C101.222 61.1984 101.786 61.1129 102.314 60.9135C102.841 60.7139 103.32 60.405 103.719 60.0068C104.493 59.0935 104.882 57.9152 104.804 56.7206V43.3089H109.514V57.7568C109.491 59.1295 109.159 60.4794 108.543 61.7065C107.909 63.0657 106.841 64.176 105.508 64.8632C104.096 65.6033 102.521 65.9787 100.927 65.956C97.8754 65.956 95.6333 65.106 94.2167 63.3982C92.8895 61.9182 92.137 60.0112 92.0963 58.0238V43.3089ZM120.684 43.3089H124.399L133.513 65.624H128.657L126.828 61.2372H118.313L116.564 65.624H111.757L120.684 43.3089ZM122.546 50.5936L119.948 57.174H125.233L122.546 50.6178V50.5936ZM136.978 43.3089H144.319C146.245 43.2051 148.137 43.839 149.612 45.0815C150.264 45.6885 150.775 46.4302 151.11 47.2549C151.446 48.0796 151.598 48.9675 151.555 49.857C151.53 51.0959 151.226 52.3133 150.664 53.4182C149.96 54.7554 148.792 55.789 147.378 56.324L153.611 65.624H148.107L142.328 56.9958H141.785V65.624H136.978V43.3089ZM141.834 47.2912V53.1027H142.87C145.374 53.1027 146.625 52.0775 146.625 50.0269C146.639 49.6389 146.557 49.2535 146.386 48.9047C146.215 48.5561 145.961 48.2547 145.646 48.0278C144.848 47.4915 143.895 47.2328 142.935 47.2912H141.834ZM157.455 43.3089H170.017V47.7281H162.263V61.2048H173.271V65.624H157.455V43.3089ZM171.215 52.2932H166.861V56.6397H171.215V52.2932Z" fill="#51546C"/>
<path d="M173.011 43.3091H180.595V65.6244H175.86V47.7285H172.186L173.011 43.3091Z" fill="#51546C"/>
</svg>
