<svg width="228" height="110" viewBox="0 0 228 110" fill="none" xmlns="http://www.w3.org/2000/svg">
<rect width="228" height="110" fill="#0B0B0D"/>
<mask id="mask0_4008_280" style="mask-type:luminance" maskUnits="userSpaceOnUse" x="30" y="42" width="168" height="26">
<path d="M197.372 42.4851H30V67.5151H197.372V42.4851Z" fill="white"/>
</mask>
<g mask="url(#mask0_4008_280)">
<path d="M67.3553 67.2344C68.2171 67.3663 69.0876 67.4339 69.9593 67.4365C70.7783 67.4337 71.596 67.3661 72.4042 67.2344L72.9579 50.4364L78.3255 62.1425C78.6774 62.2086 79.0326 62.2542 79.3898 62.2791C79.7312 62.3018 80.0749 62.3143 80.4163 62.3143C80.8107 62.3143 81.2051 62.2967 81.5996 62.2612C81.994 62.2284 82.3756 62.1879 82.745 62.1425L88.5043 50.6743L89.2148 67.2344C90.0897 67.3694 90.9739 67.437 91.8592 67.4365C92.8099 67.4324 93.7593 67.3648 94.701 67.2344L93.3585 42.8366C92.4049 42.6977 91.4423 42.6292 90.4789 42.6318C89.5671 42.6248 88.6565 42.6933 87.756 42.8366L81.0483 56.8153L74.5356 42.8366C73.53 42.6997 72.5166 42.6312 71.5015 42.6318C70.487 42.6347 69.4735 42.7032 68.4677 42.8366L67.3628 67.2344H67.3553ZM67.3553 67.2344C68.2171 67.3663 69.0876 67.4339 69.9593 67.4365C70.7783 67.4337 71.596 67.3661 72.4042 67.2344L72.9579 50.4364L78.3255 62.1425C78.6774 62.2086 79.0326 62.2542 79.3898 62.2791C79.7312 62.3018 80.0749 62.3143 80.4163 62.3143C80.8107 62.3143 81.2051 62.2967 81.5996 62.2612C81.994 62.2284 82.3756 62.1879 82.745 62.1425L88.5043 50.6743L89.2148 67.2344C90.0897 67.3694 90.9739 67.437 91.8592 67.4365C92.8099 67.4324 93.7593 67.3648 94.701 67.2344L93.3585 42.8366C92.4049 42.6977 91.4423 42.6292 90.4789 42.6318C89.5671 42.6248 88.6565 42.6933 87.756 42.8366L81.0483 56.8153L74.5356 42.8366C73.53 42.6997 72.5166 42.6312 71.5015 42.6318C70.487 42.6347 69.4735 42.7032 68.4677 42.8366L67.3628 67.2344H67.3553Z" fill="#51546C"/>
<path d="M109.401 47.9943L114.01 62.3423L115.598 67.2344C116.565 67.3705 117.541 67.4379 118.518 67.4368C119.573 67.4343 120.627 67.3667 121.673 67.2344L112.794 42.8366C112.189 42.7684 111.636 42.7177 111.138 42.6823C110.64 42.647 110.126 42.6318 109.598 42.6318C108.994 42.6318 108.44 42.6495 107.942 42.6823C107.444 42.7153 106.916 42.7684 106.362 42.8366L97.4042 67.2344C98.3591 67.3694 99.3221 67.437 100.286 67.4368C101.2 67.4343 102.112 67.3634 103.014 67.2242L109.401 47.9943ZM118.518 67.4368C119.573 67.4343 120.627 67.3667 121.673 67.2344L112.794 42.8366C112.189 42.7684 111.636 42.7177 111.138 42.6823C110.64 42.647 110.126 42.6318 109.598 42.6318" fill="#51546C"/>
<path d="M124.076 67.2344C124.912 67.3707 125.757 67.4383 126.604 67.4366C127.463 67.437 128.32 67.3692 129.168 67.2344V51.7259L140.216 67.2344C141.013 67.3628 141.819 67.4304 142.626 67.4366C143.389 67.4284 144.149 67.3608 144.901 67.2344V42.8364C144.119 42.6984 143.326 42.6299 142.532 42.6316C141.621 42.6349 140.711 42.7034 139.809 42.8364V58.3778L128.855 42.8364C128.046 42.7028 127.229 42.6343 126.41 42.6316C125.629 42.6354 124.85 42.7039 124.081 42.8364V67.2344H124.076ZM124.076 67.2344C124.912 67.3707 125.757 67.4383 126.604 67.4366C127.463 67.437 128.32 67.3692 129.168 67.2344V51.7259L140.216 67.2344C141.013 67.3628 141.819 67.4304 142.626 67.4366C143.389 67.4284 144.149 67.3608 144.901 67.2344V42.8364C144.119 42.6984 143.326 42.6299 142.532 42.6316C141.621 42.6349 140.711 42.7034 139.809 42.8364V58.3778L128.855 42.8364C128.046 42.7028 127.229 42.6343 126.41 42.6316C125.629 42.6354 124.85 42.7039 124.081 42.8364V67.2344H124.076Z" fill="#51546C"/>
<path d="M147.655 67.2344C148.49 67.3705 149.336 67.4381 150.183 67.4366C151.042 67.437 151.899 67.3692 152.746 67.2344V51.7259L163.798 67.2344C164.594 67.363 165.398 67.4306 166.205 67.4366C166.967 67.4284 167.728 67.3608 168.48 67.2344V42.8364C167.699 42.6984 166.907 42.6299 166.114 42.6316C165.202 42.6347 164.292 42.7032 163.391 42.8364V58.3778L152.42 42.8364C151.612 42.7028 150.793 42.6343 149.973 42.6316C149.193 42.6356 148.414 42.7041 147.645 42.8364V67.2344H147.655ZM147.655 67.2344C148.49 67.3705 149.336 67.4381 150.183 67.4366C151.042 67.437 151.899 67.3692 152.746 67.2344V51.7259L163.798 67.2344C164.594 67.363 165.398 67.4306 166.205 67.4366C166.967 67.4284 167.728 67.3608 168.48 67.2344V42.8364C167.699 42.6984 166.907 42.6299 166.114 42.6316C165.202 42.6347 164.292 42.7032 163.391 42.8364V58.3778L152.42 42.8364C151.612 42.7028 150.793 42.6343 149.973 42.6316C149.193 42.6356 148.414 42.7041 147.645 42.8364V67.2344H147.655Z" fill="#51546C"/>
<path d="M183.08 47.9941L187.689 62.3421L189.28 67.2344C190.247 67.3703 191.223 67.4379 192.2 67.4366C193.254 67.4344 194.309 67.3668 195.355 67.2344L186.478 42.8364C185.871 42.7682 185.32 42.7177 184.82 42.6847C184.319 42.6519 183.808 42.6343 183.28 42.6343C182.676 42.6343 182.122 42.6495 181.624 42.6847C181.126 42.7202 180.598 42.7682 180.047 42.8364L171.076 67.2344C172.03 67.3694 172.992 67.437 173.956 67.4366C174.869 67.4344 175.781 67.3632 176.684 67.2243L183.07 47.9941H183.08ZM192.197 67.4366C193.252 67.4344 194.309 67.3668 195.355 67.2344L186.476 42.8364C185.869 42.7682 185.318 42.7177 184.817 42.6847C184.317 42.6519 183.806 42.6343 183.277 42.6343" fill="#51546C"/>
<path d="M194.555 45.7921C194.469 45.7921 194.378 45.7921 194.286 45.7921H193.722V47.1701H193.242V43.8149H194.286C195.116 43.8149 195.702 43.9819 195.702 44.796C195.724 45.0033 195.669 45.2114 195.548 45.381C195.427 45.5505 195.248 45.6697 195.046 45.7162L195.819 47.1752H195.284L194.555 45.7921ZM193.722 44.2398V45.3724H194.321C194.828 45.3724 195.213 45.3319 195.213 44.8062C195.213 44.2803 194.823 44.2398 194.321 44.2398H193.722Z" fill="#51546C"/>
<path d="M194.353 48.3557C193.787 48.3557 193.235 48.1879 192.764 47.8734C192.293 47.5589 191.926 47.1121 191.71 46.5891C191.493 46.066 191.437 45.4906 191.547 44.9354C191.657 44.3802 191.93 43.8704 192.331 43.47C192.731 43.0699 193.241 42.7972 193.796 42.6869C194.351 42.5763 194.926 42.6331 195.45 42.8496C195.972 43.0663 196.419 43.433 196.734 43.9039C197.049 44.3745 197.216 44.9277 197.216 45.4939C197.214 46.2523 196.912 46.9798 196.377 47.516C195.84 48.0525 195.113 48.3544 194.353 48.3557ZM194.353 43.0465C193.871 43.0465 193.4 43.1894 192.999 43.4577C192.597 43.7257 192.285 44.1067 192.1 44.5526C191.915 44.9984 191.867 45.489 191.961 45.9623C192.055 46.4356 192.288 46.8703 192.629 47.2114C192.97 47.5526 193.404 47.7849 193.878 47.8792C194.351 47.9732 194.842 47.925 195.287 47.7402C195.734 47.5556 196.115 47.2429 196.384 46.8417C196.65 46.4404 196.793 45.9687 196.793 45.4862C196.791 44.8407 196.534 44.2225 196.075 43.7667C195.62 43.311 194.999 43.0547 194.353 43.054V43.0465Z" fill="#51546C"/>
<path d="M55.7596 51.4402C55.9628 51.2475 56.1253 51.0161 56.2374 50.7593C56.3493 50.5027 56.4088 50.2261 56.4119 49.946V43.1954C56.4149 43.0855 56.3874 42.9767 56.3319 42.8816C56.2766 42.7864 56.1956 42.7087 56.0983 42.657C56.0619 42.6437 56.0227 42.6393 55.9844 42.6437C55.9456 42.6481 55.9086 42.6614 55.8758 42.6823L43.2675 51.1874L49.1204 55.2048C49.1785 55.3345 49.2195 55.4715 49.2418 55.612C49.1453 55.7921 49.0301 55.9617 48.898 56.1176L55.7596 51.4453" fill="#51546C"/>
<path d="M30.7775 51.4631C30.5742 51.2697 30.4117 51.0378 30.2996 50.7808C30.1875 50.5236 30.1283 50.2468 30.1252 49.9662V43.2159C30.1217 43.106 30.1487 42.9974 30.2038 42.902C30.2589 42.8069 30.3392 42.7292 30.4361 42.6772C30.4727 42.6642 30.5117 42.6596 30.5504 42.664C30.589 42.6684 30.626 42.6816 30.6586 42.7025L43.2848 51.1874L37.4166 55.2327C37.3574 55.3622 37.3158 55.4992 37.2929 55.6397C37.3918 55.8079 37.5078 55.9656 37.6393 56.1101L30.7775 51.4631Z" fill="#51546C"/>
<path d="M30.9571 59.5988C30.9571 59.5988 30.1405 59.0478 30.1405 60.0337V66.8297C30.1405 66.8297 30.1405 67.8157 30.9571 67.2646L35.8318 63.9778C35.8318 63.9778 36.6508 63.4268 35.8318 62.8755L30.9571 59.5887V59.5988Z" fill="#51546C"/>
<path d="M55.6114 59.5988C55.6114 59.5988 56.428 59.0478 56.428 60.0337V66.8297C56.428 66.8297 56.428 67.8157 55.6114 67.2646L50.7292 63.9754C50.7292 63.9754 49.91 63.4241 50.7292 62.8729L55.6037 59.5863L55.6114 59.5988Z" fill="#51546C"/>
<path d="M43.2441 59.6193C43.5538 59.6188 43.8568 59.5312 44.1189 59.3665L48.948 56.0798C49.7646 55.5259 48.948 54.9749 48.948 54.9749L43.2769 51.1672L37.6187 54.9749C37.6187 54.9749 36.8021 55.5259 37.6187 56.0798L42.4478 59.3665C42.7107 59.531 43.0146 59.6184 43.3249 59.6193H43.2465" fill="#51546C"/>
<path d="M43.2932 59.622H43.2655C42.9748 59.6116 42.6922 59.5244 42.4462 59.3692L37.6173 56.0823C37.5174 56.0312 37.4319 55.9559 37.3687 55.8629C37.3055 55.7702 37.2667 55.663 37.2557 55.5513C37.2727 55.4355 37.3139 55.3245 37.3766 55.2256C37.4392 55.1267 37.5222 55.0422 37.6198 54.9774L43.278 51.1699L48.9616 54.9875C49.059 55.0525 49.1413 55.1371 49.2037 55.236C49.266 55.3348 49.3067 55.4458 49.3232 55.5614C49.3129 55.6733 49.2743 55.7808 49.2111 55.8737C49.1479 55.9667 49.062 56.0418 48.9616 56.0924L44.1327 59.3793C43.887 59.5345 43.6042 59.6218 43.3135 59.6321" fill="#51546C"/>
</g>
</svg>
