<svg width="228" height="110" viewBox="0 0 228 110" fill="none" xmlns="http://www.w3.org/2000/svg">
<rect width="228" height="110" fill="#0B0B0D"/>
<path d="M76.7797 51.8627C76.7373 51.8887 76.725 51.9557 76.7429 52.0636C76.7576 52.142 76.7618 52.2089 76.7552 52.2643C75.9765 58.1322 75.1668 63.9787 74.3259 69.8041C74.3163 69.87 74.2837 69.9304 74.2338 69.974C74.1839 70.0177 74.12 70.0418 74.0539 70.0418L68.2009 70.0269C68.1717 70.0269 68.1431 70.0208 68.1166 70.0085C68.0903 69.9963 68.0669 69.9786 68.0479 69.9565C68.0291 69.9343 68.0153 69.9083 68.0074 69.8805C67.9995 69.8525 67.998 69.823 68.0026 69.7943L72.7683 39.8454C72.7786 39.7804 72.8117 39.7213 72.8609 39.6787C72.9104 39.636 72.973 39.6128 73.0377 39.6128L79.0304 39.6275C79.1079 39.6277 79.1829 39.6553 79.2423 39.7054C79.3013 39.7557 79.341 39.8253 79.3537 39.9017C79.8321 42.7393 80.3831 45.4341 81.0067 47.9859C81.2025 48.781 81.5807 49.7295 82.1405 50.8317C82.6058 51.7476 83.1742 52.4978 83.8452 53.0824C84.5031 53.6538 85.3211 54.062 86.299 54.3069C88.681 54.9028 90.6828 54.204 92.3039 52.2105C93.0305 51.3143 93.615 50.0913 94.0576 48.5418C94.8754 45.6683 95.4983 42.7663 95.9261 39.8356C95.9349 39.7739 95.9658 39.7172 96.013 39.6763C96.0603 39.6353 96.1207 39.6128 96.1833 39.6128H102.267C102.327 39.6126 102.386 39.6342 102.433 39.6739C102.479 39.7135 102.509 39.7682 102.519 39.8284L107.27 69.7356C107.275 69.7735 107.273 69.8124 107.262 69.8492C107.252 69.8862 107.233 69.9203 107.209 69.9494C107.184 69.9786 107.153 70.0018 107.118 70.0177C107.084 70.0337 107.046 70.0418 107.008 70.0418H101.302C101.209 70.042 101.119 70.0083 101.049 69.947C100.978 69.886 100.933 69.8013 100.92 69.7087C100.222 64.6735 99.5407 59.7045 98.8748 54.8015C98.873 54.7918 98.8054 54.3927 98.6714 53.6039C98.5946 53.1485 98.5513 52.6889 98.5417 52.2251C98.5366 52.0015 98.4633 51.9093 98.3213 51.9485C98.2898 51.9568 98.2598 51.9761 98.234 52.0043C98.2084 52.0325 98.1878 52.0691 98.1742 52.11C97.647 53.6987 96.9243 55.0481 96.0069 56.1584C94.5211 57.9576 92.6836 59.1468 90.4942 59.7266C88.8957 60.1476 87.2779 60.208 85.6402 59.9078C83.539 59.5208 81.7096 58.5763 80.152 57.0743C79.4335 56.3836 78.8196 55.6031 78.3104 54.733C77.8092 53.879 77.4043 52.9616 77.0957 51.9802C77.0861 51.9494 77.0695 51.9214 77.0471 51.8979C77.025 51.8743 76.9975 51.8564 76.9671 51.845C76.9366 51.8338 76.904 51.8294 76.8716 51.8325C76.839 51.8356 76.8077 51.8459 76.7797 51.8627Z" fill="#51546C"/>
<path d="M150.669 69.6011C150.669 69.7084 150.631 69.813 150.561 69.8981C150.491 69.9832 150.394 70.0441 150.285 70.0712C149.405 70.2916 148.532 70.3929 147.667 70.375C144.908 70.3128 143.091 68.9977 142.218 66.4297C141.968 65.6981 141.844 64.8001 141.846 63.7356C141.849 55.8367 141.851 47.8768 141.851 39.8554C141.851 39.8236 141.857 39.7923 141.869 39.763C141.881 39.7337 141.899 39.7072 141.921 39.6849C141.943 39.6626 141.97 39.6448 141.999 39.633C142.028 39.621 142.059 39.6151 142.091 39.6155L147.192 39.6278C147.253 39.6278 147.312 39.6523 147.355 39.6958C147.398 39.7394 147.422 39.7987 147.422 39.8604C147.422 47.0163 147.422 54.1365 147.422 61.2205C147.422 62.5201 147.508 63.3692 147.679 63.7676C148.104 64.7472 149.036 65.121 150.476 64.8892C150.506 64.8846 150.536 64.8863 150.565 64.8942C150.594 64.9023 150.621 64.9163 150.644 64.9354C150.666 64.9544 150.685 64.9783 150.697 65.005C150.71 65.0317 150.716 65.0606 150.716 65.0901L150.669 69.6011Z" fill="#51546C"/>
<path d="M111.607 51.2457C113.38 49.3598 115.563 48.2816 118.156 48.0104C119.694 47.8504 121.166 47.9933 122.572 48.4391C123.937 48.8733 125.193 49.5835 126.341 50.5697C128.652 52.5582 129.885 55.2131 130.039 58.5338C130.076 59.3273 130.095 60.094 130.095 60.8335C130.095 60.8886 130.073 60.9416 130.034 60.9808C129.995 61.0197 129.942 61.0416 129.887 61.0416H114.443C114.394 61.0418 114.346 61.0543 114.303 61.0779C114.26 61.1016 114.223 61.1357 114.196 61.1771C114.169 61.2182 114.153 61.2657 114.149 61.3147C114.146 61.3638 114.154 61.413 114.174 61.4579C114.737 62.7281 115.536 63.6924 116.569 64.3503C117.503 64.9429 118.65 65.2605 120.01 65.3029C122.043 65.3666 123.906 64.7575 125.601 63.4759C125.642 63.4449 125.689 63.4225 125.739 63.4107C125.789 63.3987 125.842 63.3974 125.893 63.4066C125.944 63.4157 125.993 63.4352 126.037 63.4641C126.08 63.4928 126.118 63.5302 126.147 63.574L128.403 66.9682C128.464 67.0599 128.487 67.1711 128.468 67.2792C128.45 67.3873 128.39 67.4836 128.302 67.5486C126.475 68.8842 124.541 69.7478 122.498 70.1396C119.821 70.6524 117.335 70.3683 115.041 69.2874C113.518 68.5706 112.222 67.5961 111.154 66.3633C109.434 64.373 108.566 61.9461 108.551 59.0824C108.536 56.0441 109.555 53.4318 111.607 51.2457ZM123.206 54.3362C122.401 53.6196 121.481 53.1926 120.446 53.0554C119.945 52.9884 119.407 52.9639 118.834 52.9819C118.266 52.9998 117.734 53.0946 117.238 53.266C115.585 53.8359 114.544 55.0415 114.113 56.8832C114.106 56.9138 114.106 56.9458 114.113 56.9764C114.12 57.007 114.133 57.0357 114.153 57.0604C114.172 57.085 114.197 57.1051 114.225 57.1189C114.254 57.1327 114.284 57.1401 114.316 57.1403C117.41 57.1861 120.554 57.2007 123.749 57.1845C123.766 57.1845 123.872 57.1902 124.068 57.2016C124.52 57.2276 124.672 56.9974 124.523 56.5109C124.241 55.5902 123.802 54.8653 123.206 54.3362Z" fill="#51546C"/>
<path d="M138.372 48.4292H133.146C133.051 48.4292 132.975 48.506 132.975 48.6006V69.8727C132.975 69.9675 133.051 70.0441 133.146 70.0441H138.372C138.467 70.0441 138.544 69.9675 138.544 69.8727V48.6006C138.544 48.506 138.467 48.4292 138.372 48.4292Z" fill="#51546C"/>
<path d="M158.802 48.4292H153.62C153.511 48.4292 153.422 48.5181 153.422 48.6275V69.8408C153.422 69.9504 153.511 70.0393 153.62 70.0393H158.802C158.912 70.0393 159.001 69.9504 159.001 69.8408V48.6275C159.001 48.5181 158.912 48.4292 158.802 48.4292Z" fill="#51546C"/>
</svg>
