<svg width="228" height="110" viewBox="0 0 228 110" fill="none" xmlns="http://www.w3.org/2000/svg">
<rect width="228" height="110" fill="#0B0B0D"/>
<mask id="mask0_4008_299" style="mask-type:luminance" maskUnits="userSpaceOnUse" x="38" y="44" width="153" height="23">
<path d="M190.258 44H38V66.26H190.258V44Z" fill="white"/>
</mask>
<g mask="url(#mask0_4008_299)">
<path d="M74.7168 44H79.7814V61.3678H94.9751V66.0154H74.7168V44Z" fill="#51546C"/>
<path d="M98.7756 44H121.566V48.6476H112.703V66.0154H107.639V48.6476H98.7756V44Z" fill="#51546C"/>
<path fill-rule="evenodd" clip-rule="evenodd" d="M152.742 46.1843C151.209 44.811 149 44 146.279 44H132.963V66.0154H138.027V58.3725H146.371L150.752 66.0154H157.02L151.541 57.18C153.735 55.9141 155.039 53.8347 155.039 51.3384C155.039 49.4183 154.27 47.5518 152.742 46.1843ZM138.027 53.7846V48.6476H146.168C147.653 48.6476 148.532 49.066 149.046 49.5467C149.582 50.047 149.838 50.7209 149.838 51.3813C149.838 52.0161 149.6 52.5836 149.109 52.9957C148.62 53.4056 147.735 53.7846 146.167 53.7846H138.027Z" fill="#51546C"/>
<path d="M164.617 66.0154H169.999L177.279 50.1154L184.56 66.0154H189.94L179.811 44H174.747L164.617 66.0154Z" fill="#51546C"/>
<path d="M38 53.9706V44H43.0646V54.0477C43.0772 56.5843 43.8306 58.2905 45.0777 59.4744C46.3527 60.673 48.057 61.3678 50.6616 61.3678C53.2696 61.3678 54.9942 60.6704 56.2666 59.4732C57.5024 58.2989 58.2583 56.5744 58.2583 53.9692V44H63.3229V53.9706C63.3229 57.5491 62.2365 60.6669 59.8029 62.9747C57.4087 65.2326 54.3233 66.2599 50.6616 66.2599C46.9959 66.2599 43.9332 65.2279 41.539 62.9747C39.1192 60.6791 38.0164 57.5077 38 53.9706Z" fill="#51546C"/>
</g>
</svg>
