<svg width="228" height="110" viewBox="0 0 228 110" fill="none" xmlns="http://www.w3.org/2000/svg">
<rect width="228" height="110" fill="#0B0B0D"/>
<mask id="mask0_4008_397" style="mask-type:luminance" maskUnits="userSpaceOnUse" x="49" y="39" width="132" height="33">
<path d="M180.278 39H49.5527V71.42H180.278V39Z" fill="white"/>
</mask>
<g mask="url(#mask0_4008_397)">
<path d="M64.7875 39C65.2454 39 65.703 39 66.1601 39C69.0234 39.1469 71.6125 39.9477 73.9279 41.4019C76.2559 42.8649 78.0789 44.7604 79.3966 47.0884C80.8026 49.5728 81.4899 52.2586 81.4585 55.1456C81.4528 55.7253 81.4127 56.3044 81.3383 56.8825C80.9246 60.1036 79.6598 62.9318 77.5438 65.3674C77.162 65.8073 76.758 66.2241 76.3315 66.618C74.725 68.103 72.9233 69.2027 70.9264 69.9167C67.8587 71.0141 64.7326 71.1641 61.5481 70.3663C60.9769 70.2235 60.4223 70.0503 59.8844 69.847C57.9295 69.1085 56.2049 68.0441 54.7112 66.6537C51.5302 63.6941 49.8107 60.0013 49.5527 55.5751C49.5527 55.1395 49.5527 54.7036 49.5527 54.268C49.6573 52.0711 50.1748 50.0048 51.1048 48.0689C52.1524 45.8895 53.6322 44.0285 55.5444 42.486C58.1856 40.355 61.2667 39.1929 64.7875 39ZM80.2926 54.9286C80.2926 52.9864 79.91 51.0635 79.1668 49.2692C78.4236 47.475 77.3342 45.8447 75.9611 44.4715C74.5877 43.0981 72.9575 42.0088 71.1633 41.2655C69.369 40.5225 67.4459 40.14 65.504 40.14C61.5818 40.14 57.8202 41.698 55.0467 44.4715C52.2734 47.2448 50.7154 51.0063 50.7154 54.9286C50.7154 58.8508 52.2734 62.6123 55.0467 65.3856C57.8202 68.159 61.5818 69.7171 65.504 69.7171C67.4459 69.7171 69.369 69.3346 71.1633 68.5914C72.9575 67.8481 74.5877 66.7588 75.9611 65.3856C77.3342 64.0124 78.4236 62.3821 79.1668 60.5879C79.91 58.7936 80.2926 56.8705 80.2926 54.9286Z" fill="#51546C"/>
<path d="M57.0839 47.2496C58.0966 46.1388 59.2859 45.2669 60.6518 44.6341C62.4215 43.8149 64.2271 43.4548 66.0681 43.5535C66.9635 43.6017 67.9503 43.7932 69.0287 44.1278C70.3749 44.545 71.5903 45.2021 72.6751 46.0993C73.9922 47.188 75.0201 48.4763 75.7585 49.9644C75.8648 50.1794 75.8681 50.3737 75.768 50.5473C75.6774 50.7048 75.536 50.8018 75.3437 50.8385C75.0857 50.8873 74.8862 50.7739 74.7449 50.4985C74.1715 49.3755 73.4714 48.4123 72.6445 47.6087C71.1984 46.202 69.5036 45.303 67.5603 44.9113C67.003 44.7993 66.4264 44.7342 65.8302 44.7162C63.2431 44.6372 60.9604 45.4098 58.9819 47.0344C57.1938 48.502 56.0374 50.3753 55.5134 52.6546C55.3833 53.2187 55.3051 53.7938 55.279 54.3794C55.1645 56.9241 55.8751 59.1909 57.4108 61.1797C57.7749 61.6516 58.1668 62.0799 58.5864 62.4651C59.5683 63.368 60.6878 64.0525 61.9451 64.5185C62.1536 64.5957 62.3183 64.6721 62.4393 64.7477C62.6223 64.8622 62.7127 65.0103 62.7102 65.192C62.708 65.3491 62.6432 65.4877 62.5159 65.6078C62.3615 65.7537 62.1753 65.8005 61.9573 65.7483C61.9346 65.743 61.7662 65.6783 61.4519 65.5547C59.9865 64.9773 58.6839 64.1597 57.5441 63.1022C56.6505 62.2738 55.9286 61.2986 55.3782 60.1767C54.4237 58.2303 54.0154 56.188 54.153 54.0499C54.1909 53.4603 54.2743 52.8862 54.404 52.3278C54.8484 50.4152 55.7417 48.7225 57.0839 47.2496Z" fill="#51546C"/>
<path d="M74.7307 63.3827C76.4522 61.5003 77.503 59.2786 77.8829 56.7176C77.9162 56.4951 77.9435 56.2007 77.965 55.8347C77.9824 55.5389 78.0029 55.2435 78.0268 54.9485C78.0442 54.7381 78.1235 54.5791 78.2647 54.4717C78.3994 54.3688 78.5561 54.3355 78.7346 54.3714C78.9216 54.4093 79.0478 54.5181 79.1135 54.6982C79.1485 54.7947 79.1623 54.9485 79.1554 55.1592C79.1212 56.1818 78.9779 57.2373 78.7259 58.3254C78.1488 60.8179 76.9505 62.9313 75.1309 64.6657C74.1867 65.5656 73.1056 66.3392 71.8879 66.9864C70.153 67.9086 68.3144 68.4378 66.3722 68.5744C65.8028 68.6145 65.2221 68.6135 64.63 68.5718C61.5739 68.3574 58.8917 67.2648 56.5834 65.2941C56.1332 64.9099 55.7164 64.5053 55.3328 64.08C53.6502 62.2138 52.5728 60.0198 52.1003 57.4975C51.9028 56.443 51.816 55.3821 51.8398 54.3149C51.8531 53.7157 51.9052 53.1376 51.9958 52.5806C52.3421 50.4528 53.1852 48.5277 54.5249 46.805C55.2785 45.836 56.1297 44.9635 57.0784 44.1879C57.2754 44.027 57.4302 43.9332 57.543 43.9064C57.7562 43.8554 57.945 43.9281 58.1094 44.1252C58.1797 44.2093 58.2186 44.3076 58.2263 44.4197C58.2326 44.5173 58.2044 44.612 58.1416 44.7037C58.0545 44.831 57.9276 44.9615 57.7609 45.0952C56.7737 45.8846 55.8742 46.8649 55.0627 48.0355C53.8455 49.7915 53.168 51.7401 53.0304 53.8816C52.9355 55.3557 53.0693 56.808 53.4312 58.2383C53.7106 59.344 54.1369 60.3829 54.7097 61.3549C55.0019 61.8511 55.3363 62.3254 55.7127 62.7779C56.7295 64.0003 57.9677 65.0201 59.427 65.8369C60.7506 66.5777 62.1238 67.0602 63.5468 67.2845C64.0917 67.3706 64.6702 67.4164 65.2819 67.4223C68.3705 67.4512 71.098 66.5027 73.4645 64.5768C73.9206 64.2056 74.3427 63.8074 74.7307 63.3827Z" fill="#51546C"/>
<path d="M113.549 48.8051C114.784 48.8051 115.785 47.8039 115.785 46.5689C115.785 45.3339 114.784 44.3325 113.549 44.3325C112.314 44.3325 111.312 45.3339 111.312 46.5689C111.312 47.8039 112.314 48.8051 113.549 48.8051Z" fill="#51546C"/>
<path d="M95.529 54.0282L103.208 54.0335C103.217 54.0335 103.227 54.0315 103.236 54.0278C103.245 54.0242 103.253 54.0187 103.26 54.012C103.266 54.0051 103.272 53.997 103.275 53.9883C103.279 53.9794 103.281 53.9699 103.281 53.9601V46.5331C103.281 46.5173 103.287 46.5019 103.299 46.4908C103.31 46.4794 103.325 46.4731 103.341 46.4731H106.855C106.866 46.4731 106.878 46.4754 106.888 46.4796C106.898 46.4841 106.908 46.4904 106.916 46.4983C106.924 46.5064 106.93 46.5159 106.935 46.5264C106.939 46.5368 106.941 46.5481 106.941 46.5595V64.5463C106.941 64.5665 106.933 64.5858 106.919 64.6C106.905 64.6142 106.885 64.6223 106.865 64.6223H103.358C103.337 64.6223 103.318 64.6142 103.303 64.5998C103.289 64.5854 103.281 64.5657 103.281 64.5455V56.9302C103.281 56.9073 103.272 56.8854 103.256 56.8692C103.239 56.853 103.218 56.8441 103.195 56.8441L95.5377 56.8492C95.5227 56.8492 95.5083 56.8552 95.4976 56.8658C95.487 56.8765 95.4809 56.8909 95.4809 56.9059V64.5402C95.4809 64.5509 95.4789 64.5617 95.4749 64.5716C95.4706 64.5815 95.4645 64.5907 95.457 64.5982C95.4493 64.6059 95.4404 64.6119 95.4305 64.616C95.4206 64.62 95.4098 64.6223 95.3991 64.6223H91.8783C91.8572 64.6223 91.8369 64.6138 91.8221 64.599C91.8073 64.5842 91.7988 64.5639 91.7988 64.5428V46.5595C91.7988 46.5366 91.808 46.5145 91.8242 46.4983C91.8404 46.4823 91.8623 46.4731 91.8851 46.4731H95.4321C95.4451 46.4731 95.4576 46.4782 95.4667 46.4873C95.4759 46.4964 95.4809 46.509 95.4809 46.522L95.4862 53.9836C95.4862 53.9956 95.4907 54.0067 95.4988 54.015C95.5067 54.0236 95.5176 54.0282 95.529 54.0282Z" fill="#51546C"/>
<path d="M131.339 46.5202C131.339 46.5139 131.34 46.5078 131.342 46.5021C131.345 46.4964 131.348 46.4912 131.352 46.4869C131.357 46.4825 131.362 46.479 131.368 46.4766C131.374 46.4744 131.38 46.4731 131.386 46.4731C133.566 46.4731 135.731 46.4731 137.88 46.4731C138.948 46.4731 139.957 46.6184 140.909 46.9088C141.86 47.1994 142.695 47.7734 143.413 48.6309C144.31 49.7024 144.687 50.9439 144.544 52.3558C144.411 53.6631 143.902 54.7871 143.017 55.7276C142.772 55.9874 142.479 56.2151 142.138 56.4109C141.2 56.9476 140.209 57.2591 139.166 57.3452C138.867 57.3695 138.509 57.3875 138.092 57.3991C137.862 57.4056 137.504 57.4035 137.017 57.393C136.365 57.379 135.714 57.3896 135.064 57.4244C135.052 57.425 135.041 57.4303 135.033 57.4388C135.025 57.4475 135.021 57.4589 135.021 57.4706L134.999 64.5724C134.999 64.5783 134.998 64.5842 134.996 64.5894C134.993 64.5949 134.99 64.5998 134.986 64.604C134.982 64.6081 134.977 64.6113 134.972 64.6136C134.966 64.6158 134.96 64.617 134.955 64.617L131.401 64.6223C131.38 64.6223 131.36 64.6138 131.345 64.599C131.33 64.5842 131.322 64.5639 131.322 64.5428L131.339 46.5202ZM135.006 54.2949C135.001 54.3668 135.003 54.4485 135.01 54.5396C135.011 54.5518 135.017 54.5632 135.026 54.5715C135.035 54.5796 135.046 54.5842 135.058 54.5842C136.106 54.5771 137.141 54.5751 138.164 54.5781C138.701 54.5792 139.179 54.4685 139.596 54.246C140.248 53.8979 140.646 53.3429 140.791 52.5807C140.932 51.8405 140.846 51.1716 140.533 50.5745C140.207 49.9522 139.671 49.5603 138.925 49.3986C138.639 49.3366 138.276 49.3054 137.837 49.3054C136.944 49.3054 136.029 49.3054 135.093 49.3054C135.075 49.3054 135.058 49.3125 135.046 49.3251C135.033 49.3377 135.026 49.3549 135.026 49.3725C135.028 50.971 135.027 52.5353 135.021 54.0657C135.021 54.0657 135.016 54.1449 135.006 54.2949Z" fill="#51546C"/>
<path d="M121.686 63.6472C121.149 63.1945 120.795 62.6249 120.626 61.9382C120.484 61.3676 120.416 60.7881 120.419 60.1995C120.433 57.8959 120.431 55.5922 120.412 53.2884C120.412 53.2762 120.407 53.2647 120.399 53.256C120.391 53.2475 120.379 53.2426 120.368 53.2422L118.951 53.2223C118.939 53.2219 118.928 53.2175 118.92 53.2094C118.911 53.2013 118.907 53.1903 118.906 53.1786C118.868 52.206 118.865 51.2411 118.897 50.2835C118.897 50.2666 118.904 50.2508 118.916 50.2391C118.928 50.2273 118.944 50.2208 118.961 50.2208H120.351C120.372 50.2208 120.391 50.2127 120.405 50.1984C120.42 50.184 120.428 50.1645 120.428 50.144V46.7521C120.428 46.7414 120.43 46.7306 120.434 46.7205C120.438 46.7104 120.445 46.7012 120.452 46.6935C120.46 46.6858 120.469 46.6798 120.479 46.6757C120.489 46.6715 120.5 46.6694 120.511 46.6694H124.036C124.056 46.6694 124.074 46.6771 124.088 46.6911C124.102 46.7049 124.11 46.7237 124.11 46.7434V50.1311C124.11 50.1534 124.119 50.1748 124.135 50.1909C124.15 50.2067 124.171 50.2156 124.194 50.2156L127.247 50.2208C127.271 50.2208 127.293 50.23 127.309 50.2464C127.325 50.2626 127.335 50.2849 127.335 50.308V53.1386C127.335 53.1502 127.332 53.1617 127.328 53.1725C127.323 53.1834 127.317 53.1931 127.308 53.2015C127.3 53.2098 127.29 53.2162 127.28 53.2207C127.269 53.2252 127.257 53.2274 127.246 53.2274H124.168C124.153 53.2274 124.138 53.2337 124.127 53.2446C124.116 53.2556 124.11 53.2703 124.11 53.2857C124.11 55.3762 124.11 57.4647 124.11 59.5511C124.11 60.2419 124.132 60.6572 124.175 60.7973C124.328 61.2878 124.734 61.5385 125.395 61.5494C125.991 61.5599 126.621 61.5595 127.286 61.5486C127.295 61.5484 127.304 61.5502 127.313 61.5537C127.321 61.5569 127.329 61.562 127.336 61.5684C127.342 61.5749 127.347 61.5824 127.351 61.5909C127.354 61.5992 127.356 61.6084 127.356 61.6175V64.5144C127.356 64.543 127.345 64.5705 127.325 64.5908C127.304 64.6111 127.277 64.6224 127.248 64.6224C126.507 64.6224 125.788 64.6218 125.091 64.6206C124.6 64.6196 124.113 64.5795 123.629 64.5004C122.859 64.3744 122.212 64.0899 121.686 63.6472Z" fill="#51546C"/>
<path d="M158.181 62.3886C158.18 62.2666 158.147 62.2573 158.082 62.3606C157.308 63.589 156.249 64.3624 154.906 64.6807C154.369 64.8073 153.792 64.8517 153.174 64.814C151.681 64.7235 150.382 64.1903 149.276 63.2147C148.841 62.8313 148.459 62.3965 148.13 61.9102C147.544 61.045 147.163 60.0898 146.986 59.0447C146.789 57.8768 146.809 56.6957 147.046 55.5012C147.278 54.3264 147.764 53.2922 148.501 52.3986C148.877 51.9437 149.3 51.5488 149.772 51.2142C151.025 50.3247 152.486 49.9353 154.154 50.0463C155.865 50.1602 157.182 50.9283 158.103 52.3506C158.158 52.4342 158.185 52.4215 158.185 52.3123V50.2913C158.185 50.282 158.187 50.2728 158.19 50.2641C158.194 50.2556 158.199 50.2479 158.206 50.2412C158.212 50.2348 158.22 50.2295 158.229 50.226C158.237 50.2224 158.246 50.2206 158.256 50.2206H161.735C161.764 50.2206 161.792 50.2323 161.813 50.253C161.834 50.2739 161.845 50.302 161.845 50.3314V64.5273C161.845 64.5397 161.843 64.552 161.838 64.5636C161.833 64.5751 161.826 64.5857 161.818 64.5944C161.809 64.6033 161.798 64.6102 161.787 64.6151C161.775 64.6199 161.763 64.6223 161.75 64.6223H158.243C158.236 64.6223 158.228 64.6207 158.221 64.6179C158.214 64.6148 158.208 64.6106 158.202 64.6051C158.191 64.5942 158.185 64.5794 158.185 64.5638L158.181 62.3886ZM153.715 61.5763C154.369 61.7076 155.007 61.6569 155.628 61.4239C156.174 61.2193 156.655 60.9034 157.071 60.4756C157.686 59.844 158.045 59.055 158.148 58.1086C158.199 57.6306 158.196 57.1526 158.139 56.675C157.994 55.47 157.428 54.5241 156.442 53.8374C155.667 53.2976 154.818 53.0928 153.895 53.2231C153.351 53.2997 152.851 53.48 152.395 53.7643C151.92 54.0599 151.533 54.4423 151.232 54.9111C150.939 55.3679 150.743 55.9099 150.644 56.5374C150.543 57.1775 150.553 57.8156 150.674 58.4512C150.869 59.4783 151.358 60.2839 152.139 60.8679C152.618 61.2251 153.143 61.4614 153.715 61.5763Z" fill="#51546C"/>
<path d="M115.344 50.2207H111.763C111.735 50.2207 111.713 50.2428 111.713 50.2703V64.5716C111.713 64.5992 111.735 64.6215 111.763 64.6215H115.344C115.372 64.6215 115.394 64.5992 115.394 64.5716V50.2703C115.394 50.2428 115.372 50.2207 115.344 50.2207Z" fill="#51546C"/>
<path d="M171.231 71.42C169.967 71.42 168.703 71.42 167.44 71.42C167.426 71.3798 167.43 71.3448 167.452 71.3146C167.48 71.2757 167.496 71.2518 167.5 71.2431L170.384 64.4288C170.402 64.3852 170.403 64.3366 170.386 64.2936L164.793 50.2598C164.791 50.2556 164.791 50.2507 164.791 50.2461C164.792 50.2414 164.793 50.2369 164.796 50.2331C164.799 50.2292 164.802 50.226 164.806 50.224C164.811 50.2217 164.815 50.2205 164.82 50.2207H168.846C168.859 50.2205 168.872 50.2244 168.882 50.2317C168.892 50.2388 168.9 50.2491 168.904 50.2606L172.509 60.3127C172.527 60.3633 172.551 60.3658 172.58 60.3206C172.646 60.2188 172.702 60.1058 172.748 59.9816C173.949 56.7738 175.168 53.5399 176.406 50.2799C176.412 50.2625 176.424 50.2475 176.44 50.2369C176.455 50.2264 176.473 50.2207 176.491 50.2207L180.214 50.2258C180.22 50.226 180.225 50.2272 180.229 50.2296C180.234 50.2321 180.238 50.2357 180.24 50.24C180.243 50.2442 180.245 50.2493 180.245 50.2544C180.246 50.2594 180.245 50.2647 180.243 50.2694C177.335 57.1294 174.427 63.9761 171.519 70.8099C171.38 71.1359 171.284 71.3393 171.231 71.42Z" fill="#51546C"/>
<path d="M63.4581 56.0221L63.4373 60.5757C63.4371 60.5877 63.4322 60.5992 63.4239 60.6075C63.4158 60.616 63.4044 60.6209 63.3929 60.6211L62.1325 60.6325C62.1228 60.6327 62.1133 60.6306 62.1044 60.627C62.0953 60.6233 62.0872 60.6179 62.0803 60.6108C62.0734 60.6039 62.0679 60.5956 62.0643 60.5865C62.0604 60.5774 62.0586 60.5674 62.0586 60.5575L62.0803 50.3958C62.0803 50.3835 62.0847 50.3715 62.0926 50.3628C62.1007 50.3539 62.1117 50.3488 62.123 50.3486L63.3744 50.3312C63.3894 50.331 63.4036 50.3369 63.4146 50.3478C63.4253 50.3586 63.4316 50.3732 63.432 50.3888C63.4646 51.8726 63.4662 53.3613 63.4373 54.8544C63.4371 54.8617 63.4385 54.8692 63.4411 54.8761C63.4439 54.8828 63.4478 54.8891 63.4531 54.8943C63.4581 54.8996 63.4642 54.9038 63.4709 54.9067C63.4776 54.9095 63.4849 54.9109 63.4922 54.9109L68.5574 54.9207C68.5651 54.9207 68.5728 54.9193 68.5799 54.9164C68.5872 54.9136 68.5937 54.9093 68.5991 54.9038C68.6046 54.8984 68.6091 54.8919 68.6121 54.8848C68.6151 54.8777 68.6166 54.87 68.6166 54.8623V50.4054C68.6166 50.3853 68.6247 50.3659 68.6388 50.3517C68.653 50.3375 68.6723 50.3296 68.6923 50.3296H69.9316C69.9393 50.3296 69.9468 50.331 69.9537 50.3338C69.9608 50.3369 69.9671 50.3409 69.9723 50.3464C69.9778 50.3517 69.9818 50.358 69.9849 50.365C69.9877 50.3719 69.9891 50.3794 69.9891 50.3871V60.5593C69.9891 60.578 69.9818 60.596 69.9689 60.6092C69.9557 60.6223 69.9381 60.6298 69.9194 60.6298L68.6984 60.6351C68.6767 60.6351 68.6559 60.6264 68.6407 60.6108C68.6253 60.5954 68.6166 60.5743 68.6166 60.5522L68.6113 56.0649C68.6113 56.046 68.6038 56.0278 68.5902 56.0144C68.5766 56.0011 68.5582 55.9934 68.5389 55.9934L63.5017 55.9786C63.4901 55.9786 63.479 55.9832 63.4709 55.9913C63.4628 55.9996 63.4581 56.0106 63.4581 56.0221Z" fill="#51546C"/>
</g>
</svg>
