<svg width="228" height="110" viewBox="0 0 228 110" fill="none" xmlns="http://www.w3.org/2000/svg">
<rect width="228" height="110" fill="#0B0B0D"/>
<path d="M65.8872 45.1707C67.1466 44.717 68.434 44.3674 69.75 44.1222C70.4888 43.9846 71.2244 43.9524 71.9568 44.0258C72.8387 44.1133 73.5277 44.332 74.0237 44.6815C74.7303 45.1796 75.0949 45.9241 75.117 46.9149C75.1291 47.464 74.9944 48.0981 74.7127 48.8171C74.23 50.0463 73.587 51.1858 72.7838 52.2352C72.0759 53.1573 71.2976 54.0426 70.4489 54.8915C70.439 54.9012 70.4311 54.9128 70.4256 54.9257C70.4201 54.9385 70.4175 54.9523 70.4175 54.9663C70.4175 54.9802 70.4201 54.994 70.4256 55.007C70.4311 55.0198 70.439 55.0315 70.4489 55.0412C71.7292 56.2992 72.831 57.6645 73.754 59.1369C74.2754 59.9667 74.6566 60.8099 74.8973 61.6664C75.1148 62.4397 75.1514 63.1237 75.0071 63.7184C74.8163 64.5095 74.3743 65.0903 73.6809 65.4609C73.1161 65.7637 72.3323 65.9201 71.3292 65.9301C70.5182 65.939 69.7127 65.8498 68.9129 65.6622C67.88 65.4192 66.8925 65.1146 65.9504 64.7486C65.935 64.7424 65.9184 64.7397 65.9016 64.7405C65.885 64.7413 65.8686 64.7458 65.8536 64.7535C65.8388 64.7612 65.8256 64.7722 65.8151 64.7853C65.8043 64.7985 65.7968 64.8137 65.7924 64.8301C65.5794 65.6267 65.3553 66.3568 65.12 67.0203C64.6608 68.3194 64.03 69.4566 63.2279 70.4318C62.9649 70.7513 62.6443 71.0316 62.266 71.2723C61.881 71.5163 61.4915 71.6717 61.0977 71.7382C60.5062 71.8381 59.9682 71.7566 59.4833 71.4936C58.7224 71.0798 58.0861 70.4907 57.5746 69.7262C57.2384 69.2226 56.8605 68.4592 56.4412 67.4363C56.0983 66.6008 55.8155 65.7349 55.5923 64.8384C55.5881 64.821 55.58 64.8048 55.5688 64.7908C55.5577 64.7768 55.5437 64.7653 55.5277 64.757C55.5117 64.7486 55.4941 64.7438 55.476 64.7426C55.4578 64.7413 55.4398 64.744 55.4227 64.7503C54.4087 65.1274 53.4174 65.4313 52.4487 65.6622C51.6145 65.8607 50.7739 65.9507 49.9275 65.9319C49.0421 65.9118 48.3242 65.7627 47.774 65.4842C46.9873 65.0869 46.5097 64.4674 46.3411 63.6252C46.179 62.8197 46.3366 61.8573 46.8137 60.7377C47.2086 59.8125 47.7501 58.8767 48.438 57.9303C49.1746 56.9163 50 55.9521 50.9143 55.0378C50.9332 55.0187 50.9439 54.993 50.9439 54.9663C50.9439 54.9395 50.9332 54.9138 50.9143 54.8947C49.7161 53.6933 48.6539 52.3951 47.7274 51.0005C47.2779 50.3225 46.9202 49.606 46.654 48.8503C46.3354 47.9493 46.2191 47.1712 46.3044 46.5154C46.4621 45.3028 47.2319 44.5066 48.6143 44.1273C49.2202 43.9609 50.0383 43.9332 51.0692 44.044C52.3738 44.1838 53.8289 44.5589 55.4343 45.1691C55.444 45.1729 55.4543 45.1748 55.4649 45.1744C55.4752 45.1742 55.4856 45.1715 55.4949 45.1671C55.5044 45.1624 55.5127 45.1561 55.5194 45.148C55.5263 45.1401 55.5311 45.1308 55.5342 45.1209C55.9314 43.8171 56.3464 42.6711 56.779 41.6826C57.0331 41.1022 57.3614 40.5409 57.7643 39.9983C58.1991 39.4148 58.6634 38.9704 59.1572 38.6653C60.6428 37.7489 62.0301 38.0663 63.3193 39.6173C63.7398 40.1221 64.0954 40.6696 64.3862 41.2599C64.9952 42.4946 65.4629 43.7812 65.7891 45.119C65.7914 45.1292 65.796 45.1387 65.8023 45.1468C65.8088 45.1551 65.8169 45.1618 65.826 45.1667C65.8353 45.1717 65.8457 45.1746 65.8562 45.1752C65.8667 45.1758 65.8773 45.1744 65.8872 45.1707ZM56.561 45.6033C57.9612 46.2159 59.3098 46.8753 60.6067 47.5822C60.6284 47.5939 60.6527 47.6004 60.6781 47.6006C60.7032 47.6008 60.7283 47.5951 60.7514 47.5838L64.7956 45.6068C64.8173 45.5965 64.8349 45.5794 64.8454 45.5586C64.856 45.5377 64.859 45.5142 64.8537 45.4919C64.6641 44.6244 64.3984 43.7838 64.0567 42.9706C63.7682 42.2849 63.5134 41.7491 63.2928 41.3631C62.991 40.8315 62.6299 40.3555 62.2094 39.935C61.2364 38.9621 60.2472 38.951 59.2421 39.9018C58.6918 40.4222 58.2697 40.9707 57.9756 41.5477C57.3632 42.7481 56.8678 44.0501 56.4894 45.4536C56.4811 45.4832 56.484 45.5148 56.4971 45.5424C56.5103 45.5699 56.533 45.5916 56.561 45.6033ZM50.9259 53.4002C51.1356 53.6432 51.3703 53.8941 51.6299 54.1524C51.6491 54.1719 51.6753 54.1832 51.7028 54.1839C51.7304 54.1845 51.7573 54.1743 51.778 54.1559L54.449 51.8275C54.4898 51.7913 54.5147 51.7412 54.5189 51.6877C54.6721 49.9348 54.9224 48.1431 55.2695 46.3124C55.2746 46.285 55.2699 46.2571 55.2566 46.233C55.2432 46.2091 55.2219 46.1906 55.1964 46.1809C53.8405 45.6416 52.4232 45.2761 50.9443 45.0842C50.0932 44.9743 49.3167 45.0159 48.6143 45.209C47.9442 45.3932 47.5193 45.7726 47.3395 46.3473C47.2131 46.7511 47.2303 47.2664 47.3912 47.8934C47.5243 48.4093 47.7191 48.9052 47.9754 49.3812C48.6076 50.5527 49.3666 51.6328 50.2519 52.6215C50.3607 52.7423 50.5854 53.002 50.9259 53.4002ZM72.9386 45.2822C72.5679 45.1213 72.1708 45.0376 71.747 45.0309C71.0791 45.0197 70.5936 45.0376 70.2908 45.0842C68.8928 45.2984 67.5116 45.6672 66.1468 46.1908C66.1233 46.2001 66.1036 46.2176 66.0915 46.2401C66.0793 46.2625 66.0753 46.2887 66.0803 46.314C66.4542 48.0959 66.7093 49.8971 66.8459 51.7177C66.8473 51.7457 66.8552 51.7736 66.869 51.8C66.8828 51.8261 66.902 51.8504 66.9258 51.8709L69.5469 54.1291C69.5771 54.1555 69.6158 54.1697 69.6549 54.1691C69.6943 54.1685 69.7311 54.1531 69.7583 54.1259C71.1584 52.7212 72.3339 51.2062 73.2847 49.5808C73.5887 49.0606 73.8422 48.397 74.0452 47.5905C74.1994 46.9769 74.1378 46.4532 73.8606 46.0194C73.662 45.7087 73.3546 45.4631 72.9386 45.2822ZM59.5566 48.1929C58.4792 47.6016 57.3975 47.0735 56.3113 46.6087C56.3022 46.6046 56.2923 46.6028 56.2821 46.6032C56.2722 46.6036 56.2623 46.6062 56.2534 46.6109C56.2446 46.6156 56.2367 46.622 56.2307 46.6299C56.2246 46.6378 56.2203 46.6472 56.2181 46.6569C55.9176 47.9893 55.7078 49.3984 55.5891 50.884C55.5836 50.9616 55.6118 50.9766 55.674 50.9288C56.8078 50.0657 57.9989 49.2653 59.247 48.5275C59.3836 48.4464 59.4906 48.3516 59.5682 48.2428C59.571 48.2389 59.5729 48.2345 59.5737 48.2296C59.5745 48.2249 59.5745 48.2201 59.5733 48.2154C59.5723 48.2108 59.5702 48.2063 59.5674 48.2024C59.5644 48.1986 59.5607 48.1954 59.5566 48.1929ZM61.795 48.2894C63.1396 49.1083 64.4332 49.9786 65.6758 50.9006C65.7668 50.9683 65.8074 50.9456 65.7974 50.8323C65.6765 49.4665 65.4645 48.0803 65.1617 46.6735C65.1591 46.6624 65.1542 46.6518 65.1472 46.6429C65.1403 46.6338 65.1314 46.6265 65.1212 46.6212C65.1111 46.616 65.0999 46.6131 65.0884 46.6125C65.077 46.6121 65.0657 46.6141 65.0552 46.6186C63.9556 47.0802 62.8694 47.6061 61.7967 48.1962C61.7881 48.2006 61.7813 48.2073 61.7762 48.2154C61.7711 48.2235 61.7685 48.2328 61.7683 48.2424C61.7681 48.2519 61.7705 48.2612 61.7752 48.2695C61.7798 48.2778 61.7867 48.2847 61.795 48.2894ZM65.8108 52.3068C64.2087 51.0465 62.5205 49.8982 60.7466 48.8618C60.7283 48.8509 60.7075 48.8448 60.686 48.8446C60.6647 48.8442 60.6436 48.8497 60.625 48.8602C58.8444 49.8998 57.1474 51.0615 55.5342 52.3451C55.5137 52.3615 55.4969 52.382 55.4849 52.4051C55.4728 52.4284 55.4659 52.4539 55.4643 52.48C55.3745 54.0388 55.3694 55.6763 55.4493 57.3927C55.4519 57.4484 55.4667 57.5029 55.4924 57.5524C55.5184 57.6018 55.5549 57.645 55.599 57.679C57.1823 58.8827 58.8482 60.0072 60.5968 61.0522C60.6264 61.0699 60.6602 61.0792 60.6945 61.0792C60.7289 61.0792 60.7624 61.0699 60.7914 61.0522C62.561 59.9928 64.2381 58.855 65.8224 57.6391C65.8489 57.6187 65.8708 57.5929 65.8862 57.5633C65.9018 57.5335 65.9107 57.5009 65.9123 57.4677C65.9989 55.7989 65.9993 54.1454 65.914 52.5066C65.9123 52.4681 65.9022 52.4302 65.8844 52.3957C65.8665 52.3611 65.8414 52.3309 65.8108 52.3068ZM52.5436 55.0262L54.356 56.6689C54.4215 56.7286 54.4519 56.7136 54.4474 56.6239C54.3886 55.532 54.388 54.4471 54.4458 53.3686C54.4525 53.2422 54.4097 53.2205 54.3177 53.3038L52.542 54.9047C52.5334 54.9126 52.5268 54.9219 52.5223 54.9324C52.5176 54.943 52.5154 54.9543 52.5156 54.9659C52.5158 54.9772 52.5183 54.9886 52.5231 54.9991C52.528 55.0094 52.5349 55.0187 52.5436 55.0262ZM68.5799 54.6135C68.0918 54.1719 67.571 53.7287 67.0173 53.2837C66.9462 53.2272 66.9136 53.2444 66.9191 53.3354C66.988 54.4226 66.9874 55.5183 66.9174 56.6223C66.912 56.7076 66.9408 56.7226 67.004 56.667L68.8496 55.0362C68.8677 55.02 68.879 54.9975 68.8808 54.9729C68.8827 54.9484 68.875 54.9241 68.8596 54.9047C68.7753 54.8027 68.6821 54.7057 68.5799 54.6135ZM54.3759 58.0201L51.7796 55.7635C51.7598 55.7464 51.7342 55.7373 51.7083 55.7379C51.6823 55.7385 51.658 55.7489 51.64 55.7667C50.3984 57.0115 49.3222 58.3553 48.4113 59.7975C48.1262 60.2502 47.8998 60.6656 47.7324 61.0439C47.5061 61.5532 47.3596 62.0059 47.2929 62.402C47.0822 63.6667 47.5809 64.4418 48.789 64.727C49.4993 64.8956 50.217 64.9326 50.9427 64.8384C52.376 64.651 53.7996 64.2838 55.213 63.7366C55.243 63.7251 55.2681 63.7032 55.2833 63.6748C55.2985 63.6463 55.3032 63.6134 55.2963 63.582C54.9224 61.91 54.676 60.1748 54.5572 58.3763C54.553 58.3099 54.535 58.2442 54.5037 58.183C54.4725 58.1218 54.4292 58.0665 54.3759 58.0201ZM66.1752 63.7484C67.6664 64.3196 69.1814 64.6881 70.7202 64.8534C71.5555 64.9432 72.2307 64.8994 72.7455 64.7219C73.9216 64.3148 74.3482 63.4837 74.0253 62.229C73.7556 61.1827 73.3141 60.2147 72.7007 59.3249C71.8141 58.0367 70.8305 56.8608 69.75 55.7967C69.7253 55.772 69.6916 55.7578 69.6558 55.7572C69.6201 55.7564 69.5846 55.7695 69.5569 55.7934L66.9424 58.0551C66.9018 58.0904 66.8763 58.1392 66.8708 58.1915C66.7077 59.9657 66.4514 61.7747 66.102 63.6185C66.0973 63.6453 66.1022 63.6728 66.1156 63.6965C66.129 63.72 66.1498 63.7385 66.1752 63.7484ZM59.5783 61.6498C58.2091 60.8155 56.915 59.9357 55.6957 59.0104C55.6035 58.9405 55.5626 58.9632 55.5725 59.0785C55.6989 60.4321 55.9119 61.8322 56.2116 63.2791C56.2136 63.2898 56.2181 63.2999 56.2246 63.3089C56.2313 63.3176 56.2396 63.3249 56.2493 63.3297C56.259 63.3348 56.2696 63.3374 56.2803 63.3376C56.2911 63.3378 56.3018 63.3354 56.3113 63.3305L59.5765 61.7347C59.6298 61.7092 59.6304 61.6808 59.5783 61.6498ZM61.7967 61.7347C62.8774 62.3293 63.9595 62.8529 65.0436 63.3056C65.0531 63.3097 65.0635 63.3117 65.074 63.3115C65.0843 63.3113 65.0945 63.3089 65.1038 63.3044C65.1129 63.2999 65.121 63.2937 65.1273 63.2858C65.1336 63.2779 65.1378 63.2687 65.1401 63.259C65.4728 61.8823 65.6864 60.4877 65.7808 59.0752C65.7853 59.0209 65.7646 59.0086 65.7192 59.0386L61.795 61.6415C61.7869 61.6466 61.7804 61.6537 61.7758 61.6622C61.7713 61.6705 61.7691 61.68 61.7691 61.6893C61.7693 61.6989 61.7719 61.708 61.7768 61.7159C61.7817 61.7238 61.7884 61.7303 61.7967 61.7347ZM64.8138 64.3359L60.7549 62.3471C60.7306 62.3358 60.7046 62.3301 60.6793 62.3303C60.6538 62.3307 60.6294 62.337 60.6084 62.3487C59.2981 63.0722 57.9507 63.7174 56.566 64.2842C56.544 64.2931 56.5257 64.3093 56.5146 64.33C56.5032 64.3507 56.4998 64.3746 56.5044 64.3975C56.8905 66.2125 57.604 67.8862 58.6445 69.4183C59.0417 70.0042 59.5583 70.4068 60.194 70.6265C60.5247 70.7408 60.8507 70.7475 61.1725 70.6466C61.5142 70.539 61.811 70.3704 62.0629 70.1406C62.5033 69.7401 62.9001 69.2242 63.2529 68.593C63.9562 67.3313 64.4965 65.9546 64.8738 64.4623C64.8803 64.438 64.8778 64.4121 64.8669 64.389C64.856 64.3658 64.8371 64.3472 64.8138 64.3359Z" fill="#51546C"/>
<path d="M82.5476 45.4111C82.5165 46.7749 83.5567 47.9044 84.8706 47.9342C86.1848 47.964 87.275 46.8829 87.306 45.5191C87.337 44.1555 86.2968 43.026 84.9827 42.9962C83.6688 42.9662 82.5786 44.0475 82.5476 45.4111Z" fill="#51546C"/>
<path d="M148.104 45.4463C148.092 46.8111 149.148 47.9268 150.463 47.9384C151.779 47.9497 152.855 46.8526 152.867 45.4878C152.878 44.123 151.822 43.0072 150.507 42.9957C149.191 42.9843 148.116 44.0815 148.104 45.4463Z" fill="#51546C"/>
<path d="M99.3796 63.8267C97.7964 65.0593 96.0468 65.4271 94.1308 64.9301C92.6695 64.5507 91.494 63.7973 90.6042 62.6702C89.964 61.859 89.4925 60.8638 89.1897 59.6844C88.6128 57.4355 88.9356 55.3197 90.1582 53.3371C90.6463 52.5449 91.2101 51.9143 91.849 51.445C92.5603 50.9236 93.3486 50.5651 94.2139 50.3698C95.0937 50.1712 95.9548 50.1602 96.7968 50.3365C97.6622 50.5175 98.4665 50.8812 99.21 51.4284C99.2631 51.4683 99.2899 51.4549 99.2899 51.3884V43.961C99.2899 43.9389 99.2986 43.9178 99.3142 43.9022C99.3298 43.8866 99.3511 43.8777 99.373 43.8777H102.868C102.89 43.8777 102.911 43.8866 102.927 43.9022C102.942 43.9178 102.951 43.9389 102.951 43.961V64.7053C102.951 64.724 102.947 64.7424 102.94 64.7596C102.933 64.7766 102.923 64.7923 102.91 64.8054C102.896 64.8186 102.881 64.8289 102.864 64.836C102.847 64.8431 102.828 64.847 102.81 64.847H99.5977C99.5606 64.847 99.5251 64.8318 99.4988 64.805C99.4727 64.7781 99.4579 64.7418 99.4579 64.7037L99.4479 63.8599C99.4479 63.8034 99.4252 63.7924 99.3796 63.8267ZM93.5083 55.0263C92.7838 55.9205 92.4748 56.9479 92.5814 58.1085C92.6835 59.2125 93.0995 60.0749 93.8294 60.6962C94.6228 61.372 95.4688 61.6566 96.3676 61.55C97.5323 61.4103 98.4665 60.8944 99.1699 60.0024C99.2475 59.9031 99.2899 59.7813 99.2899 59.6563V55.6804C99.2899 55.5898 99.2587 55.5019 99.2017 55.4308C98.4783 54.5253 97.5646 53.989 96.4606 53.8214C95.2879 53.6439 94.3038 54.0455 93.5083 55.0263Z" fill="#51546C"/>
<path d="M141.989 50.4829L146.253 50.4929C146.277 50.4929 146.301 50.5026 146.318 50.5198C146.336 50.5368 146.346 50.5602 146.346 50.5845L146.336 53.6849C146.336 53.7074 146.327 53.7291 146.311 53.7449C146.296 53.7609 146.274 53.7698 146.253 53.7698H142.03C142.012 53.7698 141.995 53.7733 141.978 53.7801C141.962 53.7868 141.947 53.7968 141.934 53.8093C141.921 53.8219 141.911 53.8367 141.904 53.8531C141.897 53.8693 141.894 53.8869 141.894 53.9046C141.894 55.6242 141.895 57.3163 141.899 58.9804C141.899 59.381 141.937 59.7782 142.014 60.1721C142.112 60.6846 142.35 61.0706 142.728 61.3304C143.017 61.53 143.424 61.6465 143.947 61.6798C144.453 61.7108 144.967 61.6709 145.489 61.56C145.509 61.5558 145.531 61.5556 145.551 61.5598C145.572 61.5639 145.592 61.5722 145.609 61.5841C145.627 61.5963 145.641 61.6115 145.653 61.6295C145.664 61.6473 145.672 61.6672 145.675 61.6881L146.181 64.737C146.186 64.7656 146.18 64.795 146.164 64.8193C146.148 64.8436 146.123 64.8613 146.094 64.8684C144.649 65.2234 143.236 65.2112 141.856 64.8319C140.463 64.4491 139.481 63.6602 138.908 62.4654C138.484 61.5776 138.272 60.5271 138.272 59.3133C138.274 57.5803 138.274 55.7806 138.274 53.9145C138.274 53.8788 138.26 53.8446 138.235 53.8193C138.209 53.7939 138.175 53.7797 138.139 53.7797H134.624C134.6 53.7797 134.576 53.7702 134.559 53.753C134.541 53.7358 134.531 53.7125 134.531 53.6881L134.558 50.6078C134.558 50.5847 134.568 50.5626 134.584 50.5466C134.601 50.5304 134.623 50.5212 134.646 50.5212L138.158 50.4947C138.173 50.4947 138.188 50.4917 138.202 50.4858C138.216 50.4801 138.229 50.4716 138.24 50.4611C138.251 50.4503 138.259 50.4378 138.265 50.4238C138.271 50.4098 138.274 50.3948 138.274 50.3798V46.6236C138.274 46.6015 138.283 46.5805 138.299 46.5648C138.314 46.5492 138.335 46.5405 138.357 46.5405H141.802C141.827 46.5405 141.85 46.5503 141.867 46.5677C141.884 46.5851 141.894 46.6088 141.894 46.6335L141.904 50.4015C141.904 50.423 141.913 50.4438 141.929 50.459C141.945 50.4744 141.966 50.4829 141.989 50.4829Z" fill="#51546C"/>
<path d="M161.378 50.4829L165.623 50.4929C165.653 50.4929 165.681 50.5046 165.702 50.5257C165.723 50.5466 165.735 50.5749 165.735 50.6045V53.6865C165.735 53.7115 165.725 53.7354 165.707 53.753C165.688 53.7708 165.664 53.781 165.638 53.7814L161.396 53.8081C161.374 53.8085 161.353 53.8176 161.338 53.8334C161.322 53.8493 161.313 53.8705 161.313 53.893C161.277 55.394 161.267 56.8958 161.283 58.398C161.292 59.2278 161.343 59.8497 161.436 60.2635C161.545 60.743 161.781 61.1041 162.143 61.347C162.418 61.5323 162.806 61.6415 163.307 61.6749C163.838 61.7104 164.379 61.6715 164.931 61.5584C164.944 61.5556 164.958 61.5556 164.971 61.5582C164.985 61.5606 164.997 61.5659 165.009 61.5734C165.02 61.5807 165.029 61.5904 165.037 61.6016C165.044 61.6127 165.049 61.6251 165.051 61.6382L165.566 64.7336C165.57 64.7561 165.565 64.779 165.553 64.7982C165.541 64.8175 165.522 64.8319 165.5 64.8386C164.037 65.2568 162.615 65.2507 161.236 64.8201C160.318 64.5328 159.589 64.1024 159.049 63.5287C158.448 62.8863 158.055 62.0913 157.871 61.144C157.736 60.4483 157.669 59.7964 157.67 59.1885C157.671 57.4166 157.665 55.6453 157.653 53.8746C157.653 53.8525 157.644 53.831 157.628 53.8152C157.613 53.7994 157.591 53.7903 157.568 53.7897L154.033 53.7497C154.022 53.7497 154.011 53.7477 154 53.7435C153.989 53.7392 153.979 53.7331 153.971 53.7254C153.963 53.7177 153.956 53.7086 153.952 53.6985C153.948 53.6884 153.945 53.6776 153.945 53.6667V50.6062C153.946 50.5835 153.955 50.5618 153.972 50.546C153.989 50.5302 154.012 50.5212 154.035 50.5212L157.547 50.4947C157.578 50.4947 157.607 50.4825 157.629 50.4611C157.651 50.4394 157.663 50.4102 157.663 50.3798V46.6236C157.663 46.6127 157.665 46.6019 157.669 46.5918C157.674 46.5817 157.68 46.5725 157.688 46.5648C157.695 46.5571 157.705 46.5509 157.714 46.5468C157.725 46.5426 157.736 46.5405 157.746 46.5405H161.191C161.216 46.5405 161.239 46.5503 161.256 46.5677C161.273 46.5851 161.283 46.6088 161.283 46.6335L161.293 50.4015C161.293 50.423 161.302 50.4438 161.318 50.459C161.334 50.4744 161.355 50.4829 161.378 50.4829Z" fill="#51546C"/>
<path d="M106.658 52.2852C107.448 51.4021 108.377 50.7997 109.444 50.4779C110.493 50.1628 111.556 50.133 112.633 50.3881C113.481 50.5889 114.247 50.9612 114.933 51.5047C115.56 52.0017 116.095 52.6397 116.537 53.4186C117.404 54.9431 117.739 56.6544 117.542 58.5528C117.54 58.5789 117.527 58.603 117.508 58.6205C117.489 58.6381 117.464 58.6476 117.438 58.6476H108.344C108.33 58.6474 108.316 58.6507 108.303 58.6567C108.29 58.6628 108.279 58.6719 108.27 58.6831C108.261 58.694 108.254 58.7072 108.251 58.7212C108.247 58.7352 108.247 58.7498 108.249 58.7641C108.506 60.0655 109.116 60.9853 110.078 61.5233C110.878 61.9693 111.754 62.0808 112.705 61.8579C113.6 61.6471 114.408 61.1695 115.128 60.425C115.141 60.4118 115.156 60.4013 115.173 60.3944C115.19 60.3873 115.208 60.3839 115.227 60.3843C115.245 60.3845 115.263 60.3885 115.28 60.3962C115.297 60.4037 115.312 60.4147 115.324 60.4282L117.065 62.3055C117.261 62.5185 117.252 62.7209 117.038 62.9131C115.255 64.5107 113.301 65.2374 111.175 65.0931C110.221 65.0286 109.34 64.8003 108.531 64.4073C107.666 63.9881 106.935 63.4095 106.336 62.6717C105.661 61.8417 105.19 60.8483 104.923 59.691C104.637 58.4507 104.628 57.1704 104.896 55.8499C105.175 54.4787 105.762 53.2906 106.658 52.2852ZM109.057 54.4355C108.722 54.8292 108.511 55.2598 108.426 55.7269C108.424 55.7367 108.424 55.7468 108.427 55.7565C108.429 55.7662 108.434 55.7754 108.441 55.7833C108.447 55.791 108.455 55.7972 108.464 55.8017C108.474 55.806 108.484 55.8084 108.494 55.8084H113.798C113.808 55.8086 113.819 55.8064 113.828 55.8021C113.838 55.7979 113.846 55.7916 113.853 55.7839C113.86 55.776 113.864 55.7669 113.867 55.7569C113.87 55.7472 113.87 55.7369 113.868 55.7269C113.675 54.7062 113.159 54.0045 112.322 53.6217C111.756 53.3631 111.183 53.3049 110.603 53.447C110.008 53.5923 109.493 53.9218 109.057 54.4355Z" fill="#51546C"/>
<path d="M123.497 51.5548C125.099 50.3256 126.788 49.9405 128.563 50.3997C129.675 50.6883 130.628 51.2285 131.422 52.0209C132.467 53.0649 133.059 54.3989 133.196 56.0233C133.224 56.3416 133.238 56.6618 133.238 56.9834C133.244 59.573 133.242 62.1625 133.229 64.7521C133.229 64.775 133.221 64.7969 133.205 64.8133C133.189 64.8295 133.167 64.8386 133.145 64.8386L129.733 64.8186C129.711 64.8186 129.69 64.8097 129.675 64.7939C129.659 64.778 129.65 64.7564 129.65 64.7337C129.614 62.3161 129.604 59.8992 129.618 57.4827C129.619 57.1376 129.601 56.7943 129.565 56.4527C129.523 56.0676 129.444 55.7353 129.328 55.4557C128.95 54.5426 128.301 54.0074 127.381 53.8497C126.71 53.7344 126.026 53.8286 125.329 54.1326C124.662 54.4244 124.095 54.8656 123.628 55.4557C123.575 55.5248 123.545 55.6097 123.545 55.697V64.7537C123.545 64.7785 123.535 64.8022 123.518 64.8196C123.501 64.837 123.477 64.8469 123.452 64.8469H120.079C120.038 64.8469 119.999 64.8309 119.971 64.8026C119.942 64.7742 119.926 64.7357 119.926 64.6954L119.956 50.6062C119.956 50.5835 119.965 50.562 119.981 50.546C119.997 50.5302 120.018 50.5213 120.04 50.5213L123.269 50.4948C123.309 50.4948 123.347 50.5112 123.376 50.5404C123.404 50.5697 123.42 50.6095 123.421 50.6512L123.429 51.5216C123.429 51.5791 123.452 51.5903 123.497 51.5548Z" fill="#51546C"/>
<path d="M86.695 50.4946H83.1769C83.1374 50.4946 83.1053 50.5268 83.1053 50.5664V64.7753C83.1053 64.8148 83.1374 64.847 83.1769 64.847H86.695C86.7345 64.847 86.7665 64.8148 86.7665 64.7753V50.5664C86.7665 50.5268 86.7345 50.4946 86.695 50.4946Z" fill="#51546C"/>
<path d="M152.251 50.4929H148.723C148.698 50.4929 148.678 50.513 148.678 50.5379V64.8001C148.678 64.825 148.698 64.8451 148.723 64.8451H152.251C152.275 64.8451 152.296 64.825 152.296 64.8001V50.5379C152.296 50.513 152.275 50.4929 152.251 50.4929Z" fill="#51546C"/>
<path d="M174.849 58.8939L178.382 50.6011C178.392 50.5778 178.408 50.5578 178.428 50.5436C178.448 50.5296 178.471 50.5217 178.495 50.5213L182.16 50.4945C182.176 50.4945 182.191 50.4982 182.204 50.5055C182.218 50.5128 182.23 50.5233 182.239 50.5363C182.247 50.5493 182.253 50.5643 182.254 50.5799C182.256 50.5955 182.254 50.6115 182.248 50.6261L173.633 71.7949C173.617 71.8318 173.592 71.8634 173.558 71.8857C173.525 71.9078 173.486 71.9198 173.446 71.9198H169.865C169.852 71.9198 169.839 71.9167 169.828 71.9106C169.816 71.9046 169.806 71.8959 169.799 71.8851C169.791 71.8742 169.787 71.8618 169.785 71.8486C169.784 71.8355 169.785 71.8223 169.79 71.8099L172.864 63.4987C172.88 63.454 172.887 63.4061 172.885 63.3581C172.883 63.3101 172.871 63.2629 172.85 63.2191L166.944 50.5778C166.94 50.5697 166.939 50.5608 166.94 50.5521C166.94 50.5432 166.943 50.5347 166.948 50.5274C166.953 50.5199 166.959 50.5138 166.967 50.5095C166.975 50.5053 166.983 50.5031 166.992 50.5028L170.783 50.4929C170.822 50.4929 170.859 50.5041 170.892 50.5251C170.924 50.546 170.95 50.5758 170.966 50.6111L174.779 58.8939C174.804 58.946 174.827 58.946 174.849 58.8939Z" fill="#51546C"/>
<path d="M57.8002 53.6434C57.8047 53.3793 57.8085 53.1157 57.812 52.8529C57.8174 52.5068 57.8513 52.2476 57.9135 52.0757C58.1121 51.532 58.5336 51.2751 59.1782 51.3051C59.4489 51.3185 59.5904 51.3251 59.6027 51.3251C60.4903 51.3251 61.3779 51.3251 62.2655 51.3251C62.6071 51.3251 62.8679 51.3845 63.0476 51.5031C63.3182 51.6818 63.472 51.9276 63.5085 52.2405C63.5528 52.6275 63.5646 53.0608 63.5435 53.5402C63.5421 53.5771 63.5539 53.6134 63.577 53.6422C63.5999 53.6707 63.6323 53.6902 63.6683 53.6967C64.0665 53.7731 64.3701 53.9196 64.5786 54.136C64.7817 54.3468 64.8799 54.6396 64.8733 55.0147C64.8611 55.7126 64.4576 56.1124 63.6633 56.2145C63.64 56.2172 63.6185 56.2281 63.6023 56.2451C63.5861 56.2621 63.5766 56.2842 63.5751 56.3077C63.5551 56.6174 63.5468 57.0644 63.5502 57.649C63.5524 58.135 63.3848 58.4928 63.0476 58.7224C62.8357 58.8667 62.489 58.9388 62.0075 58.9388C61.3041 58.9388 60.6011 58.9388 59.8988 58.9388C59.2165 58.9388 58.8499 58.9344 58.7988 58.9255C58.3484 58.8479 58.0495 58.5893 57.9017 58.15C57.8397 57.9647 57.8085 57.6557 57.8085 57.2231C57.8085 56.9268 57.8085 56.6139 57.8085 56.2844C57.8085 56.2723 57.8061 56.2603 57.8014 56.249C57.7966 56.2378 57.7895 56.2277 57.7808 56.2192C57.7718 56.2107 57.7615 56.204 57.75 56.1993C57.7384 56.1949 57.726 56.1926 57.7137 56.1928C57.4419 56.1973 57.205 56.1335 57.0032 56.0015C56.82 55.8828 56.6776 55.6998 56.5754 55.4524C56.329 54.8554 56.4873 54.3362 57.0496 53.8947C57.215 53.7638 57.4365 53.706 57.7137 53.7216C57.7248 53.722 57.736 53.7204 57.7463 53.7165C57.7566 53.7129 57.7662 53.7072 57.7743 53.6999C57.7822 53.6926 57.7887 53.6839 57.7931 53.6742C57.7978 53.6645 57.8 53.6539 57.8002 53.6434ZM62.5062 52.5167C62.5062 52.4968 62.5021 52.4772 62.4946 52.4589C62.4869 52.4405 62.4758 52.4239 62.4616 52.4097C62.4476 52.3957 62.4308 52.3846 62.4124 52.3771C62.3941 52.3694 62.3745 52.3655 62.3544 52.3655L58.996 52.3714C58.9762 52.3716 58.9565 52.3754 58.9383 52.3831C58.9198 52.3906 58.9032 52.402 58.889 52.416C58.875 52.4302 58.8639 52.4468 58.8564 52.4652C58.8487 52.4837 58.8448 52.5033 58.8448 52.5232L58.8493 55.0062C58.8493 55.026 58.8531 55.0457 58.8608 55.0641C58.8685 55.0826 58.8797 55.0992 58.8939 55.1132C58.9079 55.1273 58.9247 55.1383 58.9429 55.146C58.9614 55.1535 58.981 55.1573 59.0009 55.1573L62.3593 55.1514C62.3791 55.1514 62.399 55.1476 62.4172 55.1399C62.4357 55.1322 62.4523 55.1211 62.4663 55.1069C62.4805 55.0929 62.4916 55.0761 62.4991 55.0578C62.5066 55.0394 62.5106 55.0197 62.5104 54.9999L62.5062 52.5167ZM57.7204 55.1328C57.7315 55.1356 57.7431 55.1361 57.7542 55.1336C57.7654 55.1314 57.7757 55.1265 57.7846 55.1196C57.7935 55.1125 57.8006 55.1038 57.8055 55.0937C57.8101 55.0836 57.8124 55.0724 57.812 55.0613C57.7986 54.7018 57.7181 54.6497 57.5706 54.9048C57.5062 55.0157 57.5562 55.0917 57.7204 55.1328ZM63.5767 55.0728C63.6345 55.1893 63.6977 55.1928 63.7664 55.083C63.8763 54.9087 63.8453 54.7989 63.6732 54.7535C63.6497 54.7466 63.6244 54.749 63.6027 54.7597C63.581 54.7707 63.5646 54.7891 63.5569 54.8116C63.5279 54.8981 63.5346 54.9853 63.5767 55.0728ZM62.5084 56.341C62.5084 56.3012 62.4926 56.2632 62.4644 56.2352C62.4365 56.207 62.3984 56.1912 62.3587 56.1912H59.0003C58.9605 56.1912 58.9224 56.207 58.8943 56.2352C58.8661 56.2632 58.8503 56.3012 58.8503 56.341V57.7457C58.8503 57.7854 58.8661 57.8235 58.8943 57.8515C58.9224 57.8796 58.9605 57.8954 59.0003 57.8954H62.3587C62.3984 57.8954 62.4365 57.8796 62.4644 57.8515C62.4926 57.8235 62.5084 57.7854 62.5084 57.7457V56.341Z" fill="#51546C"/>
</svg>
