<svg width="228" height="110" viewBox="0 0 228 110" fill="none" xmlns="http://www.w3.org/2000/svg">
<rect width="228" height="110" fill="#0B0B0D"/>
<mask id="mask0_4008_349" style="mask-type:luminance" maskUnits="userSpaceOnUse" x="39" y="38" width="150" height="35">
<path d="M188.427 38H39.0996V72.017H188.427V38Z" fill="white"/>
</mask>
<g mask="url(#mask0_4008_349)">
<path d="M63.65 49.3405L68.56 46.5043L53.8299 38L39.0996 46.5043L44.0096 49.3405L39.0996 52.1745L44.0096 55.0086L39.0996 57.8446L44.0096 60.6788L39.0996 63.5129L53.8318 72.0173L68.56 63.5129L63.652 60.6788L68.56 57.8446L63.65 55.0107L68.56 52.1745L63.65 49.3405Z" fill="#51546C"/>
<path d="M95.459 45.9819H102.732L109.36 58.4732L110.845 57.5324C109.164 54.8613 108.149 52.3867 108.149 49.6429V45.9819H113.393V63.2968H107.283L99.4421 48.4801L97.9337 49.3699C99.4912 51.7698 100.705 54.9104 100.705 58.0019V63.2949H95.461V45.9819H95.459Z" fill="#51546C"/>
<path d="M149.826 45.9819H157.099L163.727 58.4732L165.212 57.5324C163.531 54.8613 162.516 52.3867 162.516 49.6429V45.9819H167.76V63.2968H161.649L153.809 48.4801L152.301 49.3699C153.858 51.7698 155.072 54.9104 155.072 58.0019V63.2949H149.828L149.826 45.9819Z" fill="#51546C"/>
<path d="M77.5098 46.0762H82.9659V55.3483C82.9659 57.99 83.8223 59.1645 85.7549 59.1645C87.6875 59.1645 88.5202 57.99 88.5202 55.3483V46.0762H94.0254V55.9848C94.0254 61.0736 91.1638 63.619 85.7804 63.619C80.397 63.619 77.5098 61.0736 77.5098 55.9848V46.0762Z" fill="#51546C"/>
<path d="M114.984 46.0762H123.793C127.536 46.0762 129.616 47.7162 129.616 50.236C129.616 52.2904 128.344 53.7103 126.069 54.2248C128.687 54.665 130.278 56.3285 130.278 58.5557C130.278 61.4663 127.782 63.2046 123.917 63.2046H114.986L114.984 46.0762ZM122.862 52.8049C123.939 52.8049 124.624 52.2667 124.624 51.3868C124.624 50.507 123.939 49.9689 122.862 49.9689H120.22V52.807L122.862 52.8049ZM122.886 59.2883C124.084 59.2883 124.867 58.7501 124.867 57.7464C124.867 56.7429 124.084 56.1812 122.886 56.1812H120.219V59.2883H122.886Z" fill="#51546C"/>
<path d="M142.051 60.0699H136.08L135.126 63.2025H129.719L135.591 46.0762H142.907L148.829 63.2025H143.005L142.051 60.0699ZM140.902 56.1066L140.315 54.1012C139.948 52.854 139.557 51.4596 139.14 49.9179L138.799 51.1414L137.917 54.1503L137.306 56.1084L140.902 56.1066Z" fill="#51546C"/>
<path d="M175.194 54.1738L169.42 46.0762H175.805L176.954 47.7887L178.666 50.236L180.134 47.9597L181.357 46.0762H187.743L182.066 54.1993L188.428 63.2025H181.994L180.379 60.7554L179.963 60.1445L178.641 58.0903L176.855 60.781L175.265 63.2025H168.756L175.19 54.1738H175.194Z" fill="#51546C"/>
</g>
</svg>
