<svg width="228" height="110" viewBox="0 0 228 110" fill="none" xmlns="http://www.w3.org/2000/svg">
<rect width="228" height="110" fill="#0B0B0D"/>
<mask id="mask0_4008_268" style="mask-type:luminance" maskUnits="userSpaceOnUse" x="59" y="42" width="110" height="27">
<path d="M168.418 42H59V68.165H168.418V42Z" fill="white"/>
</mask>
<g mask="url(#mask0_4008_268)">
<path d="M59.0083 54.7451H70.9393L68.3858 57.2986H59.0083V61.1051H64.5793L59 66.6844L60.1967 67.8801L65.775 62.3008V67.8718H69.5815V58.4943L72.1194 55.9574V67.8718H77.1945V49.6702H59.0083V54.7451Z" fill="#51546C"/>
<path d="M136.342 62.7561L139.63 61.3671C140.254 63.3425 141.677 64.9854 144.234 64.9854C146.135 64.9854 147.414 63.8884 147.414 62.5732C147.414 58.59 137.145 61.184 137.145 54.2054C137.145 51.318 139.667 49.1616 143.649 49.1616C147.121 49.1616 150.045 50.9895 150.848 53.6927L147.561 55.0819C147.085 53.255 145.368 52.232 143.687 52.232C141.932 52.232 140.835 52.9254 140.835 54.1326C140.835 57.6769 151.178 54.9727 151.178 62.5367C151.178 65.7163 148.401 68.1648 144.234 68.1648C139.74 68.1648 137.182 65.3876 136.342 62.7561Z" fill="#51546C"/>
<path d="M152.521 62.7559L155.81 61.3669C156.434 63.3423 157.856 64.9852 160.415 64.9852C162.315 64.9852 163.593 63.8882 163.593 62.5729C163.593 58.5897 153.325 61.1837 153.325 54.2051C153.325 51.3177 155.846 49.1614 159.83 49.1614C163.301 49.1614 166.224 50.9893 167.029 53.6925L163.74 55.0817C163.265 53.2548 161.547 52.2318 159.866 52.2318C158.113 52.2318 157.016 52.9251 157.016 54.1324C157.016 57.6767 167.357 54.9725 167.357 62.5364C167.357 65.716 164.58 68.1646 160.414 68.1646C155.92 68.1646 153.361 65.3874 152.521 62.7559Z" fill="#51546C"/>
<path d="M134.233 56.3981V67.8726H130.327V65.0591C129.267 66.9223 126.999 68.1648 124.553 68.1648C120.898 68.1648 118.377 65.8627 118.377 62.7206C118.377 59.1024 121.191 57.1655 126.855 56.5864L130.327 56.2162V55.9592C130.327 53.6937 128.756 52.3057 126.344 52.3057C124.114 52.3057 122.543 53.621 122.289 55.8138L118.708 55.1556C119.292 51.5384 122.435 49.1626 126.345 49.1626C131.017 49.1626 134.233 51.7931 134.233 56.3981ZM130.327 59.9414V59.1741L126.819 59.5767C123.822 59.9052 122.287 61.002 122.287 62.6096C122.287 64.0713 123.494 65.0944 125.357 65.0944C128.455 65.0944 130.286 62.9391 130.327 59.9414Z" fill="#51546C"/>
<path d="M115.019 52.8901C112.316 52.8901 109.94 55.3011 109.94 61V67.8706H105.957V49.4548H109.94V52.9628C110.927 50.77 113.339 49.1626 115.568 49.1626C116.263 49.1626 117.067 49.2665 117.614 49.4911L117.395 53.333C116.737 53.0356 115.86 52.8901 115.019 52.8901Z" fill="#51546C"/>
<path d="M88.8465 65.5333V67.8728H84.8633V42H88.8465V51.7568C89.9423 50.2221 92.0988 49.1575 94.4736 49.1575C100.028 49.1575 103.207 53.1085 103.207 58.6586C103.207 64.2089 100.028 68.1597 94.3996 68.1597C91.9521 68.165 89.7228 67.0682 88.8465 65.5333ZM99.2241 58.6639C99.2241 55.0091 97.1041 52.6334 93.8882 52.6334C90.6723 52.6334 88.5533 55.0081 88.5533 58.6639C88.5533 62.2811 90.6733 64.6942 93.8882 64.6942C97.103 64.6942 99.2241 62.2822 99.2241 58.6639Z" fill="#51546C"/>
</g>
</svg>
