<svg width="228" height="110" viewBox="0 0 228 110" fill="none" xmlns="http://www.w3.org/2000/svg">
<rect width="228" height="110" fill="#0B0B0D"/>
<mask id="mask0_4008_310" style="mask-type:luminance" maskUnits="userSpaceOnUse" x="69" y="41" width="88" height="28">
<path d="M156.652 41H69V69H156.652V41Z" fill="white"/>
</mask>
<g mask="url(#mask0_4008_310)">
<path d="M106.977 68.5956H99.877L104.318 41.4907H111.418L106.977 68.5956Z" fill="#51546C"/>
<path d="M132.719 42.1539C131.319 41.6055 129.097 41 126.351 41C119.339 41 114.401 44.6906 114.371 49.967C114.312 53.8601 117.906 56.0225 120.594 57.3204C123.341 58.6468 124.275 59.5125 124.275 60.695C124.247 62.5107 122.055 63.3478 120.01 63.3478C117.176 63.3478 115.657 62.9163 113.348 61.9059L112.413 61.4729L111.42 67.5572C113.085 68.3062 116.153 68.9708 119.339 68.9998C126.789 68.9998 131.639 65.3664 131.697 59.7433C131.725 56.6577 129.828 54.2935 125.737 52.3617C123.253 51.1214 121.733 50.2852 121.733 49.0162C121.762 47.8627 123.019 46.6812 125.822 46.6812C128.131 46.6233 129.827 47.1709 131.111 47.719L131.754 48.0069L132.719 42.1539Z" fill="#51546C"/>
<path d="M142.157 58.9933C142.742 57.4362 144.992 51.4096 144.992 51.4096C144.963 51.4675 145.576 49.8238 145.926 48.8147L146.423 51.1502C146.423 51.1502 147.767 57.6382 148.059 58.9933C146.949 58.9933 143.56 58.9933 142.157 58.9933ZM150.922 41.4907H145.43C143.736 41.4907 142.449 41.9807 141.719 43.7397L131.172 68.5951H138.622C138.622 68.5951 139.849 65.2497 140.112 64.5292C140.93 64.5292 148.177 64.5292 149.229 64.5292C149.432 65.4809 150.076 68.5951 150.076 68.5951H156.65L150.922 41.4907Z" fill="#51546C"/>
<path d="M93.9482 41.4907L86.9945 59.9737L86.2348 56.225C84.9491 51.8998 80.9171 47.2004 76.418 44.8638L82.7872 68.5669H90.2957L101.456 41.4907H93.9482Z" fill="#51546C"/>
<path d="M80.5407 41.4907H69.1168L69 42.0385C77.9114 44.2877 83.8132 49.7094 86.2379 56.2263L83.7545 43.7692C83.3458 42.0381 82.0893 41.5479 80.5407 41.4907Z" fill="#51546C"/>
</g>
</svg>
