<svg width="229" height="110" viewBox="0 0 229 110" fill="none" xmlns="http://www.w3.org/2000/svg">
<rect width="229" height="110" fill="#0B0B0D"/>
<g clip-path="url(#clip0_4008_362)">
<path d="M87.6328 54.2686C87.6328 60.4816 91.6228 64.8136 97.1518 64.8136C102.681 64.8136 106.671 60.4816 106.671 54.2686C106.671 48.0556 102.681 43.7236 97.1518 43.7236C91.6228 43.7236 87.6328 48.0556 87.6328 54.2686ZM103.023 54.2686C103.023 58.7146 100.6 61.5931 97.1518 61.5931C93.7033 61.5931 91.2808 58.7146 91.2808 54.2686C91.2808 49.8226 93.7033 46.9441 97.1518 46.9441C100.6 46.9441 103.023 49.8226 103.023 54.2686Z" fill="#51546C"/>
<path d="M116.944 64.8134C121.134 64.8134 123.528 61.2794 123.528 57.0329C123.528 52.7864 121.134 49.2524 116.944 49.2524C115.006 49.2524 113.581 50.0219 112.641 51.1334V49.5374H109.221V69.6299H112.641V62.9324C113.581 64.0439 115.006 64.8134 116.944 64.8134ZM112.555 56.6054C112.555 53.7839 114.151 52.2449 116.26 52.2449C118.74 52.2449 120.079 54.1829 120.079 57.0329C120.079 59.8829 118.74 61.8209 116.26 61.8209C114.151 61.8209 112.555 60.2534 112.555 57.4889V56.6054Z" fill="#51546C"/>
<path d="M132.783 64.8134C135.776 64.8134 138.141 63.2459 139.196 60.6239L136.26 59.5124C135.804 61.0514 134.465 61.9064 132.783 61.9064C130.589 61.9064 129.05 60.3389 128.793 57.7739H139.281V56.6339C139.281 52.5299 136.973 49.2524 132.641 49.2524C128.309 49.2524 125.516 52.6439 125.516 57.0329C125.516 61.6499 128.508 64.8134 132.783 64.8134ZM132.612 52.1309C134.778 52.1309 135.804 53.5559 135.833 55.2089H128.964C129.477 53.1854 130.845 52.1309 132.612 52.1309Z" fill="#51546C"/>
<path d="M141.848 64.4999H145.268V55.7219C145.268 53.5844 146.835 52.4444 148.374 52.4444C150.255 52.4444 150.996 53.7839 150.996 55.6364V64.4999H154.416V54.6389C154.416 51.4184 152.535 49.2524 149.4 49.2524C147.462 49.2524 146.123 50.1359 145.268 51.1334V49.5374H141.848V64.4999Z" fill="#51546C"/>
<path d="M164.434 44.0371L156.682 64.5001H160.301L162.04 59.8261H170.875L172.642 64.5001H176.318L168.566 44.0371H164.434ZM166.429 48.0841L169.678 56.6341H163.237L166.429 48.0841Z" fill="#51546C"/>
<path d="M182.189 44.0962H178.541V64.5592H182.189V44.0962Z" fill="#51546C"/>
<path d="M79.2749 51.5529C80.137 48.9653 79.8402 46.1307 78.4615 43.7771C76.3881 40.1671 72.22 38.3099 68.1492 39.1839C66.3383 37.1437 63.7365 35.9836 61.0088 36.0002C56.8478 35.9907 53.1559 38.6697 51.8757 42.6288C49.2027 43.1762 46.8954 44.8494 45.5452 47.2209C43.4564 50.8214 43.9325 55.36 46.7232 58.4475C45.861 61.0351 46.1579 63.8696 47.5366 66.2232C49.61 69.8332 53.7781 71.6905 57.8489 70.8165C59.6586 72.8566 62.2616 74.0168 64.9893 73.999C69.1527 74.0097 72.8458 71.3283 74.1259 67.3656C76.799 66.8182 79.1063 65.145 80.4565 62.7736C82.5429 59.1731 82.0655 54.638 79.2761 51.5505L79.2749 51.5529ZM64.9917 71.5159C63.3256 71.5183 61.7118 70.9353 60.4329 69.8677C60.491 69.8368 60.592 69.781 60.6573 69.7406L68.224 65.3706C68.6112 65.1509 68.8487 64.7389 68.8463 64.2936V53.6262L72.0442 55.4728C72.0787 55.4894 72.1012 55.5227 72.106 55.5607V64.3945C72.1012 68.3228 68.9199 71.5076 64.9917 71.5159ZM49.6919 64.9811C48.8571 63.5395 48.5567 61.8497 48.8429 60.2097C48.8987 60.243 48.9972 60.3036 49.0673 60.3439L56.634 64.7139C57.0176 64.9384 57.4926 64.9384 57.8774 64.7139L67.1149 59.3797V63.0728C67.1173 63.1108 67.0995 63.1476 67.0698 63.1714L59.4211 67.5877C56.0142 69.5494 51.6632 68.3833 49.6931 64.9811H49.6919ZM47.7005 48.4642C48.5317 47.0202 49.8439 45.9158 51.4067 45.3422C51.4067 45.4076 51.4031 45.5227 51.4031 45.6035V54.3447C51.4007 54.7888 51.6382 55.2009 52.0242 55.4206L61.2617 60.7536L58.0638 62.6002C58.0317 62.6216 57.9914 62.6251 57.9557 62.6097L50.3059 58.1898C46.906 56.2209 45.7399 51.8711 47.6993 48.4654L47.7005 48.4642ZM73.9751 54.5786L64.7375 49.2444L67.9355 47.399C67.9675 47.3776 68.0079 47.3741 68.0435 47.3895L75.6934 51.8058C79.0992 53.7735 80.2665 58.1304 78.2988 61.5362C77.4664 62.9778 76.1554 64.0822 74.5938 64.6569V55.6545C74.5974 55.2104 74.361 54.7995 73.9763 54.5786H73.9751ZM77.1576 49.7882C77.1018 49.7538 77.0032 49.6944 76.9332 49.6541L69.3664 45.2841C68.9829 45.0596 68.5079 45.0596 68.1231 45.2841L58.8855 50.6183V46.9252C58.8832 46.8872 58.901 46.8504 58.9307 46.8266L66.5794 42.4139C69.9863 40.4486 74.342 41.6182 76.3062 45.0264C77.1362 46.4656 77.4367 48.1507 77.1552 49.7882H77.1576ZM57.147 56.3706L53.9479 54.524C53.9135 54.5074 53.8909 54.4741 53.8862 54.4361V45.6023C53.8885 41.6693 57.0794 38.4821 61.0124 38.4844C62.676 38.4844 64.2863 39.0687 65.5652 40.1327C65.507 40.1636 65.4073 40.2194 65.3408 40.2597L57.774 44.6297C57.3869 44.8494 57.1494 45.2603 57.1518 45.7056L57.147 56.3682V56.3706ZM58.8844 52.6252L62.999 50.249L67.1137 52.624V57.3752L62.999 59.7502L58.8844 57.3752V52.6252Z" fill="#51546C"/>
</g>
<defs>
<clipPath id="clip0_4008_362">
<rect width="140.125" height="38" fill="white" transform="translate(44 36)"/>
</clipPath>
</defs>
</svg>
