<svg width="228" height="110" viewBox="0 0 228 110" fill="none" xmlns="http://www.w3.org/2000/svg">
<rect width="228" height="110" fill="#0B0B0D"/>
<mask id="mask0_4008_336" style="mask-type:luminance" maskUnits="userSpaceOnUse" x="41" y="36" width="147" height="38">
<path d="M187.722 36H41V73.9999H187.722V36Z" fill="white"/>
</mask>
<g mask="url(#mask0_4008_336)">
<path d="M100.021 53.133C100.021 52.1231 100.993 51.3848 102.625 51.3848C104.412 51.3848 105.967 51.9671 107.21 53.445L109.891 50.6466C108.492 48.704 105.85 47.5767 102.508 47.5767C97.7667 47.5767 95.3575 50.2976 95.3575 53.1345C95.3575 59.8184 105.345 58.1861 105.345 61.5279C105.345 62.6939 104.412 63.4708 102.585 63.4708C100.37 63.4708 98.582 62.6939 97.1441 61.1002L94.5019 64.1318C96.0955 65.9973 98.7766 67.2792 102.313 67.2792C107.365 67.2792 110.046 64.5981 110.046 61.4509C110.047 54.4936 100.021 56.3978 100.021 53.133Z" fill="#51546C"/>
<path d="M119.796 48.1201V43.3018H115.055V48.1201H111.752V52.3176H115.017V60.3618C115.017 64.9085 117.426 67.279 121.196 67.279C123.489 67.279 125.237 66.4249 126.286 65.4135L124.148 61.877C123.682 62.4206 122.827 62.8096 121.973 62.8096C120.573 62.8096 119.835 61.9557 119.835 60.2061V52.3176H128.476V66.7354H133.217V48.1201H128.476H119.796Z" fill="#51546C"/>
<path d="M130.808 40.0371C129.294 40.0371 128.049 41.319 128.049 42.8353C128.049 44.3906 129.292 45.5952 130.808 45.5952C132.364 45.5952 133.607 44.3906 133.607 42.8353C133.607 41.3204 132.362 40.0371 130.808 40.0371Z" fill="#51546C"/>
<path d="M145.939 62.8096C144.54 62.8096 143.802 61.9557 143.802 60.2061V52.3176H148.815V48.1201H143.763V43.3018H139.022V48.1201H135.719V52.3176H138.984V60.3618C138.984 64.9085 141.393 67.279 145.162 67.279C147.456 67.279 149.204 66.4249 150.253 65.4135L148.115 61.877C147.649 62.4206 146.793 62.8096 145.939 62.8096Z" fill="#51546C"/>
<path d="M161.015 52.0443C162.842 52.0443 164.241 52.628 165.407 53.7539L168.126 50.3734C166.494 48.6639 163.967 47.5767 160.782 47.5767C155.341 47.5767 151.066 52.0072 151.066 57.4478C151.066 62.8499 155.341 67.2792 160.859 67.2792C163.812 67.2792 166.494 66.1132 167.971 64.4807L165.561 60.9829C164.396 62.1488 162.88 62.8098 160.976 62.8098C157.944 62.8098 155.808 60.4006 155.808 57.4077C155.808 54.4149 157.906 52.0443 161.015 52.0443Z" fill="#51546C"/>
<path d="M180.648 47.5765C178.356 47.5765 176.569 48.4319 175.402 49.947V39.9983H170.662V66.7339H175.402V56.1643C175.402 53.638 176.841 52.0459 179.211 52.0459C181.505 52.0459 182.981 53.6395 182.981 56.1643V66.7339H187.722V55.4632C187.721 50.608 184.963 47.5765 180.648 47.5765Z" fill="#51546C"/>
<path fill-rule="evenodd" clip-rule="evenodd" d="M56.418 73.9537C58.2049 73.9848 59.7322 74.0002 61.2271 74.0002C62.7205 74.0002 64.2031 73.9848 65.7566 73.9523L65.9095 73.9476C67.9636 73.861 69.9018 73.4087 71.6683 72.5995C73.395 71.8087 74.9116 70.7031 76.1746 69.3132C77.3562 68.0159 78.2703 66.5193 78.8943 64.867C79.0658 64.4097 79.2154 63.9434 79.3391 63.4724C81.8099 62.552 84.0369 60.9258 85.6956 58.8116C87.6707 56.296 88.7579 53.1872 88.7579 50.0599C88.7579 48.0894 88.3425 46.1866 87.5226 44.4062C86.7858 42.8076 85.7404 41.35 84.4152 40.0713C81.8579 37.6064 78.3336 36.2164 74.2242 36.0514L74.1472 36.0482L74.0682 36.0467C72.2752 36.0157 70.7481 36.0002 69.2594 36.0002C67.7675 36.0002 66.2863 36.0156 64.7296 36.0482C64.7296 36.0482 64.6139 36.0514 64.5753 36.0528C62.5214 36.1394 60.5832 36.5918 58.8179 37.401C57.0915 38.1918 55.5749 39.2976 54.3116 40.6873C53.1303 41.9862 52.2159 43.4811 51.5921 45.1334C51.4207 45.5907 51.2708 46.057 51.1473 46.528C48.6763 47.4485 46.4495 49.0746 44.7908 51.1889C42.8157 53.7047 41.7285 56.8132 41.7285 59.9406C41.7285 61.9111 42.1437 63.8138 42.9639 65.5945C43.7005 67.1928 44.7461 68.6522 46.071 69.9294C48.6286 72.3941 52.1526 73.784 56.2574 73.9491L56.3393 73.9523L56.418 73.9537ZM82.4861 42.0726C83.5611 43.1087 84.4057 44.2856 84.9972 45.5689C85.6489 46.9819 85.9793 48.4938 85.981 50.0613C85.981 52.5693 85.1036 55.0682 83.5114 57.0974C81.9704 59.0617 79.8297 60.504 77.4856 61.1574L76.9356 61.3102C76.8261 62.1859 76.6131 63.0491 76.2964 63.8862C75.7961 65.2081 75.0639 66.4066 74.1205 67.4444C73.1103 68.5549 71.8967 69.4396 70.5129 70.0729C69.075 70.7307 67.4875 71.0998 65.7948 71.1709C65.7672 71.1724 65.7393 71.1738 65.7114 71.1738H65.7006C64.164 71.2049 62.7002 71.2203 61.2268 71.2203C59.7503 71.2203 58.2384 71.2049 56.4672 71.1738L56.4207 71.1724L56.3745 71.1709C52.9554 71.0318 50.0581 69.9106 47.9996 67.9262C46.9247 66.8901 46.08 65.7131 45.4885 64.4298C44.8383 63.0166 44.5079 61.5063 44.5079 59.9389C44.5079 57.4309 45.3851 54.9322 46.9758 52.9014C48.5168 50.937 50.6573 49.4945 53.0016 48.8413L53.5514 48.6885C53.6611 47.8128 53.8741 46.9496 54.1908 46.1126C54.6911 44.7906 55.423 43.5921 56.3667 42.5543C57.3766 41.4439 58.5905 40.5591 59.9743 39.9258C61.4105 39.268 62.9966 38.899 64.6892 38.8278C64.7169 38.8264 64.7462 38.8249 64.7741 38.8249H64.7849C66.3215 38.7938 67.7855 38.7784 69.2589 38.7784C70.7354 38.7784 72.2471 38.7938 74.0185 38.8249L74.0648 38.8264L74.1112 38.8278C77.5303 38.967 80.4276 40.0882 82.4861 42.0726ZM73.4796 52.4487C75.1984 53.6611 76.2563 56.3021 76.392 57.2426C79.4822 56.3809 81.9146 53.4217 81.9146 50.0613C81.9146 48.0397 81.0438 46.3273 79.6661 44.9989C78.2886 43.6723 76.304 42.9852 73.9474 42.8896C70.7677 42.8338 68.0572 42.8245 64.8682 42.8896H64.8636C60.0022 43.0903 57.5326 46.6994 57.5326 50.0613C57.5326 52.0829 58.3482 53.7555 59.4153 54.8457C60.5488 56.0473 61.8893 56.8007 64.5024 57.315C65.2282 57.4571 66.4714 57.7011 67.0967 58.3668C67.4457 58.7375 67.7237 59.2779 67.7237 59.8215C67.7237 60.3204 67.5523 60.8808 67.1478 61.3181C66.757 61.7396 66.0728 62.0392 65.2945 62.0531C62.4329 62.1055 59.1233 62.1011 56.2601 62.0531C55.4817 62.0392 54.7978 61.7396 54.407 61.3181C54.0023 60.8794 53.8309 60.3204 53.8309 59.8215C53.8309 58.7358 54.7638 57.5901 56.4887 57.5901C56.6587 57.5869 56.8254 57.5869 56.9969 57.5884C57.0169 57.5884 57.0245 57.5637 57.0091 57.5529C55.2902 56.3405 54.2324 53.6998 54.0967 52.7593C51.0079 53.621 48.5741 56.5799 48.5741 59.9403C48.5741 61.9619 49.4451 63.6761 50.8226 65.0027C52.2 66.3293 54.1847 67.0167 56.5413 67.1123C59.721 67.1678 62.4314 67.1771 65.6204 67.1123H65.6251C70.4867 66.9116 72.956 63.3025 72.956 59.9403C72.956 57.9188 72.1405 56.2464 71.0736 55.1562C69.9399 53.9546 68.5994 53.2009 65.9865 52.6867C65.2605 52.5446 64.0175 52.3005 63.392 51.6349C63.043 51.2644 62.765 50.7238 62.765 50.1802C62.765 49.6813 62.9364 49.1208 63.3409 48.6838C63.7316 48.2623 64.4158 47.9627 65.1942 47.9488C68.0558 47.8962 71.3653 47.9008 74.2286 47.9488C75.007 47.9627 75.6909 48.2623 76.0817 48.6838C76.4864 49.1223 76.6578 49.6813 76.6578 50.1802C76.6578 51.2659 75.7249 52.4118 74 52.4118C73.83 52.415 73.6632 52.415 73.4918 52.4133C73.4718 52.4133 73.4642 52.438 73.4796 52.4487Z" fill="#51546C"/>
</g>
</svg>
