<svg width="1463" height="188" viewBox="0 0 1463 188" fill="none" xmlns="http://www.w3.org/2000/svg">
<path d="M0.991211 79.2988C0.991211 79.2988 218.809 108.859 358.5 101.5C495.894 94.2629 568.443 46.2699 706 43.5002C862.459 40.3499 946.112 95.8277 1102.5 101.5C1243.07 106.599 1462.01 79.2988 1462.01 79.2988" stroke="#BBBBBB" stroke-width="0.5"/>
<path d="M0.991211 36.2988C0.991211 36.2988 218.809 65.8586 358.5 58.5002C495.894 51.2629 568.443 3.26993 706 0.500236C862.459 -2.65006 946.112 52.8277 1102.5 58.5002C1243.07 63.5991 1462.01 36.2988 1462.01 36.2988" stroke="#BBBBBB" stroke-width="0.5"/>
<path d="M0.991211 113.299C0.991211 113.299 218.809 142.859 358.5 135.5C495.894 128.263 569.443 116.068 707 113.299C863.459 110.148 946.112 129.828 1102.5 135.5C1243.07 140.599 1462.01 113.299 1462.01 113.299" stroke="#BBBBBB" stroke-width="0.5"/>
<path d="M0.991211 147.299C0.991211 147.299 218.809 176.859 358.5 169.5C495.894 162.263 601.443 189.77 739 187C895.459 183.85 946.112 163.828 1102.5 169.5C1243.07 174.599 1462.01 147.299 1462.01 147.299" stroke="#BBBBBB" stroke-width="0.5"/>
</svg>
