<svg width="359" height="341" viewBox="0 0 359 341" fill="none" xmlns="http://www.w3.org/2000/svg">
<g opacity="0.1">
<mask id="path-1-inside-1_1_324" fill="white">
<path fill-rule="evenodd" clip-rule="evenodd" d="M89.7368 0C89.7368 0 93.6978 36.9711 109.127 52.3998C124.555 67.8285 161.526 71.7895 161.526 71.7895C161.526 71.7895 124.555 75.7505 109.127 91.1792C93.6979 106.608 89.7368 143.579 89.7368 143.579C89.7368 143.579 85.7758 106.608 70.3472 91.1792C54.9185 75.7505 17.9474 71.7895 17.9474 71.7895C17.9474 71.7895 54.9185 67.8285 70.3472 52.3998C85.7758 36.9711 89.7368 0 89.7368 0ZM251.262 53.8422C251.262 53.8422 257.204 109.299 280.347 132.442C303.49 155.585 358.947 161.526 358.947 161.526C358.947 161.526 303.49 167.468 280.347 190.611C257.204 213.754 251.262 269.211 251.262 269.211C251.262 269.211 245.321 213.754 222.178 190.611C199.035 167.468 143.578 161.526 143.578 161.526C143.578 161.526 199.035 155.585 222.178 132.442C245.321 109.299 251.262 53.8422 251.262 53.8422ZM113.974 227.026C94.6881 207.74 89.7368 161.526 89.7368 161.526C89.7368 161.526 84.7856 207.74 65.4997 227.026C46.2139 246.312 0 251.263 0 251.263C0 251.263 46.2139 256.214 65.4997 275.5C84.7856 294.786 89.7368 341 89.7368 341C89.7368 341 94.6881 294.786 113.974 275.5C133.26 256.214 179.474 251.263 179.474 251.263C179.474 251.263 133.26 246.312 113.974 227.026Z"/>
</mask>
<path d="M89.7368 0L91.7255 -0.213056L87.7482 -0.213056L89.7368 0ZM161.526 71.7895L161.739 73.7781V69.8009L161.526 71.7895ZM109.127 91.1792L107.712 89.7649L109.127 91.1792ZM89.7368 143.579L87.7482 143.792H91.7255L89.7368 143.579ZM70.3472 91.1792L68.933 92.5934L70.3472 91.1792ZM17.9474 71.7895L17.7343 69.8009V73.7781L17.9474 71.7895ZM70.3472 52.3998L68.933 50.9856L70.3472 52.3998ZM251.262 53.8422L253.251 53.6291L249.274 53.6291L251.262 53.8422ZM358.947 161.526L359.16 163.515V159.538L358.947 161.526ZM251.262 269.211L249.274 269.424H253.251L251.262 269.211ZM222.178 190.611L223.592 189.197L222.178 190.611ZM143.578 161.526L143.365 159.538V163.515L143.578 161.526ZM89.7368 161.526L91.7255 161.313H87.7482L89.7368 161.526ZM113.974 227.026L112.56 228.44L113.974 227.026ZM65.4997 227.026L66.914 228.44L65.4997 227.026ZM0 251.263L-0.213056 249.275L-0.213057 253.252L0 251.263ZM65.4997 275.5L66.914 274.086L65.4997 275.5ZM89.7368 341L87.7482 341.213H91.7255L89.7368 341ZM113.974 275.5L112.56 274.086L113.974 275.5ZM179.474 251.263L179.687 253.252V249.275L179.474 251.263ZM110.541 50.9856C103.233 43.6777 98.4896 31.041 95.581 19.9086C94.1408 14.3967 93.1753 9.35543 92.5701 5.69183C92.2677 3.86125 92.0557 2.37772 91.9197 1.35509C91.8517 0.843857 91.8028 0.448036 91.771 0.181879C91.7551 0.0488066 91.7435 -0.0518311 91.736 -0.118253C91.7323 -0.151463 91.7295 -0.176117 91.7278 -0.191993C91.7269 -0.19993 91.7263 -0.205673 91.7259 -0.209193C91.7257 -0.210953 91.7256 -0.212157 91.7255 -0.212802C91.7255 -0.213125 91.7254 -0.213188 91.7254 -0.21335C91.7254 -0.213273 91.7255 -0.213056 89.7368 0C87.7482 0.213056 87.7483 0.213555 87.7484 0.214195C87.7484 0.214596 87.7485 0.215378 87.7486 0.21618C87.7487 0.217784 87.749 0.219951 87.7493 0.222676C87.7499 0.228127 87.7507 0.235812 87.7518 0.245703C87.754 0.265486 87.7571 0.294096 87.7614 0.331309C87.7698 0.405735 87.7823 0.514582 87.7992 0.656061C87.833 0.939006 87.8842 1.35255 87.9546 1.88238C88.0955 2.94188 88.3136 4.46726 88.6236 6.34379C89.2432 10.0944 90.2322 15.2603 91.7109 20.9197C94.6399 32.13 99.5915 45.6932 107.712 53.814L110.541 50.9856ZM161.526 71.7895C161.739 69.8009 161.74 69.8009 161.74 69.8009C161.74 69.8009 161.739 69.8009 161.739 69.8008C161.738 69.8008 161.737 69.8006 161.736 69.8004C161.732 69.8001 161.726 69.7994 161.718 69.7986C161.702 69.7968 161.678 69.7941 161.645 69.7903C161.578 69.7828 161.478 69.7712 161.344 69.7553C161.078 69.7235 160.682 69.6746 160.171 69.6066C159.149 69.4706 157.665 69.2587 155.834 68.9562C152.171 68.351 147.13 67.3855 141.618 65.9453C130.485 63.0367 117.849 58.2934 110.541 50.9856L107.712 53.814C115.833 61.9348 129.396 66.8864 140.607 69.8154C146.266 71.2941 151.432 72.2831 155.183 72.9027C157.059 73.2128 158.584 73.4308 159.644 73.5717C160.174 73.6421 160.587 73.6933 160.87 73.7271C161.012 73.744 161.121 73.7566 161.195 73.765C161.232 73.7692 161.261 73.7724 161.281 73.7745C161.291 73.7756 161.298 73.7765 161.304 73.7771C161.306 73.7774 161.309 73.7776 161.31 73.7778C161.311 73.7778 161.312 73.7779 161.312 73.778C161.313 73.778 161.313 73.7781 161.526 71.7895ZM110.541 92.5934C117.849 85.2855 130.485 80.5423 141.618 77.6336C147.13 76.1935 152.171 75.2279 155.834 74.6227C157.665 74.3203 159.149 74.1083 160.171 73.9724C160.682 73.9044 161.078 73.8554 161.344 73.8236C161.478 73.8077 161.578 73.7962 161.645 73.7886C161.678 73.7849 161.702 73.7821 161.718 73.7804C161.726 73.7795 161.732 73.7789 161.736 73.7785C161.737 73.7783 161.738 73.7782 161.739 73.7781C161.739 73.7781 161.74 73.7781 161.74 73.7781C161.74 73.7781 161.739 73.7781 161.526 71.7895C161.313 69.8009 161.313 69.8009 161.312 69.801C161.312 69.801 161.311 69.8011 161.31 69.8012C161.309 69.8014 161.306 69.8016 161.304 69.8019C161.298 69.8025 161.291 69.8033 161.281 69.8044C161.261 69.8066 161.232 69.8098 161.195 69.814C161.121 69.8224 161.012 69.8349 160.87 69.8518C160.587 69.8856 160.174 69.9368 159.644 70.0073C158.584 70.1482 157.059 70.3662 155.183 70.6762C151.432 71.2958 146.266 72.2848 140.607 73.7635C129.396 76.6925 115.833 81.6441 107.712 89.7649L110.541 92.5934ZM89.7368 143.579C91.7255 143.792 91.7254 143.792 91.7254 143.792C91.7254 143.792 91.7255 143.792 91.7255 143.792C91.7256 143.791 91.7257 143.79 91.7259 143.788C91.7263 143.785 91.7269 143.779 91.7278 143.771C91.7295 143.755 91.7323 143.73 91.736 143.697C91.7435 143.631 91.7551 143.53 91.771 143.397C91.8028 143.131 91.8517 142.735 91.9197 142.224C92.0557 141.201 92.2677 139.718 92.5701 137.887C93.1753 134.224 94.1408 129.182 95.581 123.67C98.4896 112.538 103.233 99.9012 110.541 92.5934L107.712 89.7649C99.5915 97.8857 94.6399 111.449 91.7109 122.659C90.2322 128.319 89.2432 133.485 88.6236 137.235C88.3136 139.112 88.0955 140.637 87.9546 141.697C87.8842 142.226 87.833 142.64 87.7992 142.923C87.7823 143.064 87.7698 143.173 87.7614 143.248C87.7571 143.285 87.754 143.313 87.7518 143.333C87.7507 143.343 87.7499 143.351 87.7493 143.356C87.749 143.359 87.7487 143.361 87.7486 143.363C87.7485 143.364 87.7484 143.364 87.7484 143.365C87.7483 143.365 87.7482 143.366 89.7368 143.579ZM68.933 92.5934C76.2408 99.9012 80.984 112.538 83.8927 123.67C85.3329 129.182 86.2984 134.224 86.9036 137.887C87.206 139.718 87.418 141.201 87.554 142.224C87.6219 142.735 87.6709 143.131 87.7027 143.397C87.7186 143.53 87.7302 143.631 87.7377 143.697C87.7414 143.73 87.7442 143.755 87.7459 143.771C87.7468 143.779 87.7474 143.785 87.7478 143.788C87.748 143.79 87.7481 143.791 87.7482 143.792C87.7482 143.792 87.7482 143.792 87.7483 143.792C87.7483 143.792 87.7482 143.792 89.7368 143.579C91.7255 143.366 91.7254 143.365 91.7253 143.365C91.7253 143.364 91.7252 143.364 91.7251 143.363C91.725 143.361 91.7247 143.359 91.7244 143.356C91.7238 143.351 91.723 143.343 91.7219 143.333C91.7197 143.313 91.7166 143.285 91.7123 143.248C91.7039 143.173 91.6914 143.064 91.6745 142.923C91.6407 142.64 91.5895 142.226 91.5191 141.697C91.3782 140.637 91.1601 139.112 90.8501 137.235C90.2305 133.485 89.2415 128.319 87.7628 122.659C84.8338 111.449 79.8822 97.8857 71.7614 89.7649L68.933 92.5934ZM17.9474 71.7895C17.7343 73.7781 17.7341 73.7781 17.734 73.7781C17.7342 73.7781 17.7342 73.7781 17.7346 73.7781C17.7352 73.7782 17.7364 73.7783 17.7382 73.7785C17.7417 73.7789 17.7474 73.7795 17.7554 73.7804C17.7713 73.7821 17.7959 73.7849 17.8291 73.7886C17.8955 73.7962 17.9962 73.8077 18.1292 73.8236C18.3954 73.8554 18.7912 73.9044 19.3025 73.9724C20.3251 74.1083 21.8086 74.3203 23.6392 74.6227C27.3028 75.2279 32.344 76.1935 37.8559 77.6336C48.9884 80.5423 61.6251 85.2855 68.933 92.5934L71.7614 89.7649C63.6406 81.6441 50.0774 76.6925 38.8671 73.7635C33.2076 72.2848 28.0418 71.2958 24.2912 70.6762C22.4146 70.3662 20.8893 70.1482 19.8298 70.0073C19.2999 69.9368 18.8864 69.8856 18.6034 69.8518C18.462 69.8349 18.3531 69.8224 18.2787 69.814C18.2415 69.8098 18.2129 69.8066 18.1931 69.8044C18.1832 69.8033 18.1755 69.8025 18.17 69.8019C18.1673 69.8016 18.1652 69.8014 18.1635 69.8012C18.1627 69.8011 18.162 69.801 18.1616 69.801C18.1609 69.8009 18.1604 69.8009 17.9474 71.7895ZM68.933 50.9856C61.6251 58.2934 48.9884 63.0367 37.8559 65.9454C32.344 67.3855 27.3028 68.351 23.6392 68.9562C21.8086 69.2587 20.3251 69.4706 19.3025 69.6066C18.7912 69.6746 18.3954 69.7235 18.1292 69.7553C17.9962 69.7712 17.8955 69.7828 17.8291 69.7903C17.7959 69.7941 17.7713 69.7968 17.7554 69.7986C17.7474 69.7994 17.7417 69.8001 17.7382 69.8004C17.7364 69.8006 17.7352 69.8008 17.7346 69.8008C17.7342 69.8009 17.7342 69.8009 17.734 69.8009C17.7341 69.8009 17.7343 69.8009 17.9474 71.7895C18.1604 73.7781 18.1609 73.778 18.1616 73.778C18.162 73.7779 18.1627 73.7778 18.1635 73.7778C18.1652 73.7776 18.1673 73.7774 18.17 73.7771C18.1755 73.7765 18.1832 73.7756 18.1931 73.7745C18.2129 73.7724 18.2415 73.7692 18.2787 73.765C18.3531 73.7566 18.462 73.744 18.6034 73.7271C18.8864 73.6933 19.2999 73.6421 19.8297 73.5717C20.8893 73.4308 22.4146 73.2128 24.2912 72.9027C28.0418 72.2831 33.2076 71.2941 38.8671 69.8154C50.0774 66.8864 63.6406 61.9348 71.7614 53.814L68.933 50.9856ZM89.7368 0C87.7482 -0.213056 87.7483 -0.213274 87.7483 -0.21335C87.7482 -0.213188 87.7482 -0.213125 87.7482 -0.212802C87.7481 -0.212157 87.748 -0.210953 87.7478 -0.209193C87.7474 -0.205673 87.7468 -0.199931 87.7459 -0.191993C87.7442 -0.176118 87.7414 -0.151464 87.7377 -0.118253C87.7302 -0.0518316 87.7186 0.0488062 87.7027 0.181878C87.6709 0.448036 87.6219 0.843857 87.554 1.35509C87.418 2.37772 87.206 3.86125 86.9036 5.69183C86.2984 9.35543 85.3329 14.3967 83.8927 19.9086C80.984 31.041 76.2408 43.6777 68.933 50.9856L71.7614 53.814C79.8822 45.6932 84.8338 32.13 87.7628 20.9197C89.2415 15.2603 90.2305 10.0944 90.8501 6.34379C91.1601 4.46726 91.3782 2.94188 91.5191 1.88238C91.5895 1.35255 91.6407 0.939007 91.6745 0.656061C91.6914 0.514582 91.7039 0.405735 91.7123 0.33131C91.7166 0.294096 91.7197 0.265486 91.7219 0.245704C91.723 0.235812 91.7238 0.228127 91.7244 0.222677C91.7247 0.219952 91.725 0.217785 91.7251 0.21618C91.7252 0.215378 91.7253 0.214597 91.7253 0.214195C91.7254 0.213556 91.7255 0.213056 89.7368 0ZM281.761 131.028C270.596 119.863 263.429 100.676 259.061 83.9578C256.891 75.6531 255.437 68.0601 254.526 62.5429C254.07 59.7855 253.751 57.5498 253.545 56.0066C253.443 55.2351 253.369 54.637 253.321 54.2335C253.297 54.0318 253.279 53.8788 253.267 53.7772C253.262 53.7264 253.257 53.6884 253.255 53.6636C253.253 53.6512 253.252 53.6421 253.252 53.6363C253.251 53.6335 253.251 53.6314 253.251 53.6302C253.251 53.6296 253.251 53.6293 253.251 53.629C253.251 53.629 253.251 53.6291 251.262 53.8422C249.274 54.0552 249.274 54.0558 249.274 54.0566C249.274 54.0571 249.274 54.0581 249.274 54.0592C249.274 54.0614 249.275 54.0644 249.275 54.0682C249.276 54.0759 249.277 54.0869 249.279 54.1013C249.282 54.13 249.287 54.1719 249.293 54.2267C249.305 54.3364 249.324 54.4976 249.349 54.7077C249.399 55.1279 249.475 55.7438 249.58 56.5339C249.79 58.1139 250.116 60.3916 250.579 63.1949C251.505 68.7991 252.983 76.5167 255.191 84.969C259.579 101.765 266.955 121.878 278.933 133.856L281.761 131.028ZM358.947 161.526C359.16 159.538 359.16 159.538 359.16 159.538C359.159 159.538 359.159 159.538 359.158 159.538C359.157 159.538 359.155 159.537 359.152 159.537C359.147 159.536 359.137 159.535 359.125 159.534C359.1 159.531 359.062 159.527 359.012 159.521C358.91 159.51 358.757 159.492 358.555 159.468C358.152 159.42 357.554 159.346 356.782 159.243C355.239 159.038 353.003 158.719 350.246 158.263C344.729 157.352 337.136 155.898 328.831 153.728C312.113 149.36 292.926 142.193 281.761 131.028L278.933 133.856C290.911 145.834 311.024 153.209 327.82 157.598C336.272 159.806 343.99 161.284 349.594 162.21C352.397 162.673 354.675 162.998 356.255 163.208C357.045 163.313 357.661 163.39 358.081 163.44C358.291 163.465 358.452 163.484 358.562 163.496C358.617 163.502 358.659 163.507 358.687 163.51C358.702 163.512 358.713 163.513 358.72 163.514C358.724 163.514 358.727 163.514 358.73 163.515C358.731 163.515 358.732 163.515 358.732 163.515C358.733 163.515 358.733 163.515 358.947 161.526ZM281.761 192.025C292.926 180.86 312.113 173.693 328.831 169.325C337.136 167.155 344.729 165.701 350.246 164.79C353.003 164.334 355.239 164.015 356.782 163.809C357.554 163.707 358.152 163.633 358.555 163.585C358.757 163.561 358.91 163.543 359.012 163.531C359.062 163.526 359.1 163.521 359.125 163.519C359.137 163.517 359.147 163.516 359.152 163.516C359.155 163.515 359.157 163.515 359.158 163.515C359.159 163.515 359.159 163.515 359.16 163.515C359.16 163.515 359.16 163.515 358.947 161.526C358.733 159.538 358.733 159.538 358.732 159.538C358.732 159.538 358.731 159.538 358.73 159.538C358.727 159.538 358.724 159.539 358.72 159.539C358.713 159.54 358.702 159.541 358.687 159.543C358.659 159.546 358.617 159.551 358.562 159.557C358.452 159.569 358.291 159.588 358.081 159.613C357.661 159.663 357.045 159.739 356.255 159.844C354.675 160.054 352.397 160.38 349.594 160.843C343.99 161.769 336.272 163.247 327.82 165.455C311.024 169.843 290.911 177.219 278.933 189.197L281.761 192.025ZM251.262 269.211C253.251 269.424 253.251 269.424 253.251 269.424C253.251 269.423 253.251 269.423 253.251 269.423C253.251 269.421 253.251 269.419 253.252 269.416C253.252 269.411 253.253 269.402 253.255 269.389C253.257 269.364 253.262 269.326 253.267 269.276C253.279 269.174 253.297 269.021 253.321 268.819C253.369 268.416 253.443 267.818 253.545 267.046C253.751 265.503 254.07 263.267 254.526 260.51C255.437 254.993 256.891 247.4 259.061 239.095C263.429 222.377 270.596 203.19 281.761 192.025L278.933 189.197C266.955 201.175 259.579 221.288 255.191 238.084C252.983 246.536 251.505 254.254 250.579 259.858C250.116 262.661 249.79 264.939 249.58 266.519C249.475 267.309 249.399 267.925 249.349 268.345C249.324 268.555 249.305 268.716 249.293 268.826C249.287 268.881 249.282 268.923 249.279 268.951C249.277 268.966 249.276 268.977 249.275 268.985C249.275 268.988 249.274 268.991 249.274 268.994C249.274 268.995 249.274 268.996 249.274 268.996C249.274 268.997 249.274 268.998 251.262 269.211ZM220.764 192.025C231.929 203.19 239.096 222.377 243.464 239.095C245.634 247.4 247.088 254.993 247.999 260.51C248.455 263.267 248.774 265.503 248.979 267.046C249.082 267.818 249.156 268.416 249.204 268.819C249.228 269.021 249.246 269.174 249.257 269.276C249.263 269.326 249.267 269.364 249.27 269.389C249.271 269.402 249.272 269.411 249.273 269.416C249.273 269.419 249.273 269.421 249.274 269.423C249.274 269.423 249.274 269.423 249.274 269.424C249.274 269.424 249.274 269.424 251.262 269.211C253.251 268.998 253.251 268.997 253.251 268.996C253.251 268.996 253.251 268.995 253.251 268.994C253.25 268.991 253.25 268.988 253.25 268.985C253.249 268.977 253.247 268.966 253.246 268.951C253.243 268.923 253.238 268.881 253.232 268.826C253.22 268.716 253.201 268.555 253.176 268.345C253.126 267.925 253.049 267.309 252.944 266.519C252.734 264.939 252.409 262.661 251.946 259.858C251.02 254.254 249.542 246.536 247.334 238.084C242.945 221.288 235.57 201.175 223.592 189.197L220.764 192.025ZM143.578 161.526C143.365 163.515 143.365 163.515 143.365 163.515C143.365 163.515 143.366 163.515 143.366 163.515C143.367 163.515 143.369 163.515 143.372 163.516C143.378 163.516 143.387 163.517 143.4 163.519C143.424 163.521 143.462 163.526 143.513 163.531C143.615 163.543 143.768 163.561 143.969 163.585C144.373 163.633 144.971 163.707 145.743 163.809C147.286 164.015 149.521 164.334 152.279 164.79C157.796 165.701 165.389 167.155 173.694 169.325C190.412 173.693 209.599 180.86 220.764 192.025L223.592 189.197C211.614 177.219 191.501 169.843 174.705 165.455C166.253 163.247 158.535 161.769 152.931 160.843C150.128 160.38 147.85 160.054 146.27 159.844C145.48 159.739 144.864 159.663 144.444 159.613C144.234 159.588 144.072 159.569 143.963 159.557C143.908 159.551 143.866 159.546 143.837 159.543C143.823 159.541 143.812 159.54 143.804 159.539C143.8 159.539 143.797 159.538 143.795 159.538C143.794 159.538 143.793 159.538 143.793 159.538C143.792 159.538 143.791 159.538 143.578 161.526ZM220.764 131.028C209.599 142.193 190.412 149.36 173.694 153.728C165.389 155.898 157.796 157.352 152.279 158.263C149.521 158.719 147.286 159.038 145.743 159.243C144.971 159.346 144.373 159.42 143.969 159.468C143.768 159.492 143.615 159.51 143.513 159.521C143.462 159.527 143.424 159.531 143.4 159.534C143.387 159.535 143.378 159.536 143.372 159.537C143.369 159.537 143.367 159.538 143.366 159.538C143.366 159.538 143.365 159.538 143.365 159.538C143.365 159.538 143.365 159.538 143.578 161.526C143.791 163.515 143.792 163.515 143.793 163.515C143.793 163.515 143.794 163.515 143.795 163.515C143.797 163.514 143.8 163.514 143.804 163.514C143.812 163.513 143.823 163.512 143.837 163.51C143.866 163.507 143.908 163.502 143.963 163.496C144.072 163.484 144.234 163.465 144.444 163.44C144.864 163.39 145.48 163.313 146.27 163.208C147.85 162.998 150.128 162.673 152.931 162.21C158.535 161.284 166.253 159.806 174.705 157.598C191.501 153.209 211.614 145.834 223.592 133.856L220.764 131.028ZM251.262 53.8422C249.274 53.6291 249.274 53.629 249.274 53.629C249.274 53.6293 249.274 53.6296 249.274 53.6302C249.273 53.6314 249.273 53.6335 249.273 53.6363C249.272 53.6421 249.271 53.6512 249.27 53.6636C249.267 53.6884 249.263 53.7264 249.257 53.7772C249.246 53.8788 249.228 54.0318 249.204 54.2335C249.156 54.637 249.082 55.2351 248.979 56.0066C248.774 57.5498 248.455 59.7855 247.999 62.5429C247.088 68.0601 245.634 75.6531 243.464 83.9578C239.096 100.676 231.929 119.863 220.764 131.028L223.592 133.856C235.57 121.878 242.945 101.765 247.334 84.969C249.542 76.5167 251.02 68.7991 251.946 63.1949C252.409 60.3915 252.734 58.1139 252.944 56.5339C253.049 55.7438 253.126 55.1279 253.176 54.7077C253.201 54.4976 253.22 54.3364 253.232 54.2267C253.238 54.1719 253.243 54.13 253.246 54.1013C253.247 54.0869 253.249 54.0759 253.25 54.0682C253.25 54.0644 253.25 54.0614 253.251 54.0592C253.251 54.0581 253.251 54.0571 253.251 54.0566C253.251 54.0558 253.251 54.0552 251.262 53.8422ZM89.7368 161.526C87.7482 161.739 87.7483 161.74 87.7484 161.741C87.7484 161.741 87.7485 161.742 87.7486 161.743C87.7488 161.745 87.7491 161.747 87.7494 161.751C87.7502 161.757 87.7512 161.767 87.7525 161.779C87.7552 161.803 87.7591 161.838 87.7643 161.884C87.7747 161.976 87.7903 162.111 87.8113 162.287C87.8532 162.639 87.9169 163.153 88.0047 163.813C88.1802 165.133 88.452 167.035 88.8386 169.375C89.6113 174.052 90.8446 180.494 92.6882 187.55C96.3469 201.553 102.51 218.391 112.56 228.44L115.388 225.612C106.152 216.375 100.197 200.464 96.5582 186.538C94.7532 179.63 93.5434 173.313 92.7851 168.723C92.4061 166.429 92.1404 164.569 91.9698 163.286C91.8845 162.645 91.823 162.148 91.7831 161.813C91.7631 161.646 91.7485 161.519 91.739 161.435C91.7342 161.393 91.7307 161.361 91.7285 161.341C91.7274 161.331 91.7266 161.323 91.7261 161.319C91.7258 161.316 91.7256 161.315 91.7255 161.314C91.7255 161.313 91.7255 161.313 91.7254 161.313C91.7254 161.313 91.7255 161.313 89.7368 161.526ZM66.914 228.44C76.9634 218.391 83.1268 201.553 86.7855 187.55C88.6291 180.494 89.8624 174.052 90.6351 169.375C91.0217 167.035 91.2935 165.133 91.469 163.813C91.5567 163.153 91.6204 162.639 91.6624 162.287C91.6834 162.111 91.699 161.976 91.7094 161.884C91.7146 161.838 91.7185 161.803 91.7212 161.779C91.7225 161.767 91.7235 161.757 91.7242 161.751C91.7246 161.747 91.7249 161.745 91.7251 161.743C91.7252 161.742 91.7253 161.741 91.7253 161.741C91.7254 161.74 91.7255 161.739 89.7368 161.526C87.7482 161.313 87.7482 161.313 87.7482 161.313C87.7482 161.313 87.7482 161.313 87.7481 161.314C87.748 161.315 87.7479 161.316 87.7476 161.319C87.7471 161.323 87.7463 161.331 87.7452 161.341C87.743 161.361 87.7395 161.393 87.7347 161.435C87.7252 161.519 87.7106 161.646 87.6906 161.813C87.6507 162.148 87.5892 162.645 87.5039 163.286C87.3333 164.569 87.0676 166.429 86.6886 168.723C85.9303 173.313 84.7204 179.63 82.9154 186.538C79.2771 200.464 73.322 216.375 64.0855 225.612L66.914 228.44ZM0 251.263C0.213056 253.252 0.21359 253.252 0.214301 253.252C0.214772 253.252 0.21566 253.251 0.216602 253.251C0.218488 253.251 0.221076 253.251 0.224362 253.251C0.230934 253.25 0.240297 253.249 0.252417 253.247C0.276657 253.245 0.311925 253.241 0.357941 253.236C0.449972 253.225 0.585005 253.21 0.760803 253.189C1.11239 253.147 1.62711 253.083 2.28706 252.995C3.60683 252.82 5.50832 252.548 7.84825 252.161C12.5257 251.389 18.9674 250.155 26.0233 248.312C40.0264 244.653 56.8646 238.49 66.914 228.44L64.0855 225.612C54.8491 234.848 38.9374 240.803 25.0121 244.442C18.1038 246.247 11.7867 247.457 7.19628 248.215C4.90231 248.594 3.04267 248.86 1.75978 249.03C1.11841 249.115 0.621417 249.177 0.286621 249.217C0.11923 249.237 -0.00759323 249.252 -0.091621 249.261C-0.133634 249.266 -0.164946 249.269 -0.185279 249.271C-0.195445 249.273 -0.202866 249.273 -0.207508 249.274C-0.209828 249.274 -0.211454 249.274 -0.21238 249.274C-0.212843 249.275 -0.213012 249.275 -0.213244 249.275C-0.213238 249.275 -0.213056 249.275 0 251.263ZM66.914 274.086C56.8646 264.037 40.0264 257.873 26.0233 254.214C18.9674 252.371 12.5257 251.138 7.84825 250.365C5.50832 249.978 3.60683 249.707 2.28707 249.531C1.62711 249.443 1.11239 249.38 0.760804 249.338C0.585006 249.317 0.449973 249.301 0.357942 249.291C0.311926 249.285 0.276658 249.281 0.252418 249.279C0.240298 249.277 0.230934 249.276 0.224362 249.276C0.221077 249.275 0.218489 249.275 0.216603 249.275C0.21566 249.275 0.214773 249.275 0.214301 249.275C0.213591 249.275 0.213057 249.275 0 251.263C-0.213057 253.252 -0.213239 253.252 -0.213245 253.252C-0.213012 253.252 -0.212844 253.252 -0.212381 253.252C-0.211454 253.252 -0.209829 253.252 -0.207508 253.252C-0.202867 253.253 -0.195446 253.254 -0.18528 253.255C-0.164947 253.257 -0.133635 253.261 -0.0916216 253.265C-0.00759388 253.275 0.11923 253.289 0.286621 253.309C0.621416 253.349 1.11841 253.411 1.75978 253.496C3.04267 253.667 4.90231 253.932 7.19628 254.311C11.7867 255.07 18.1038 256.28 25.0121 258.085C38.9374 261.723 54.8491 267.678 64.0855 276.914L66.914 274.086ZM89.7368 341C91.7255 340.787 91.7254 340.786 91.7253 340.786C91.7253 340.785 91.7252 340.784 91.7251 340.783C91.7249 340.782 91.7246 340.779 91.7242 340.776C91.7235 340.769 91.7225 340.76 91.7212 340.748C91.7185 340.723 91.7146 340.688 91.7094 340.642C91.699 340.55 91.6834 340.415 91.6624 340.239C91.6204 339.888 91.5567 339.373 91.469 338.713C91.2935 337.393 91.0217 335.492 90.6351 333.152C89.8624 328.474 88.6291 322.033 86.7855 314.977C83.1268 300.974 76.9634 284.135 66.914 274.086L64.0855 276.914C73.322 286.151 79.2771 302.063 82.9154 315.988C84.7204 322.896 85.9303 329.213 86.6886 333.804C87.0676 336.098 87.3333 337.957 87.5039 339.24C87.5892 339.882 87.6507 340.379 87.6906 340.713C87.7106 340.881 87.7252 341.008 87.7347 341.092C87.7395 341.134 87.743 341.165 87.7452 341.185C87.7463 341.195 87.7471 341.203 87.7476 341.208C87.7479 341.21 87.748 341.211 87.7481 341.212C87.7482 341.213 87.7482 341.213 87.7482 341.213C87.7482 341.213 87.7482 341.213 89.7368 341ZM112.56 274.086C102.51 284.135 96.3469 300.974 92.6882 314.977C90.8446 322.033 89.6113 328.474 88.8386 333.152C88.452 335.492 88.1802 337.393 88.0047 338.713C87.9169 339.373 87.8532 339.888 87.8113 340.239C87.7903 340.415 87.7747 340.55 87.7643 340.642C87.7591 340.688 87.7552 340.723 87.7525 340.748C87.7512 340.76 87.7502 340.769 87.7494 340.776C87.7491 340.779 87.7488 340.782 87.7486 340.783C87.7485 340.784 87.7484 340.785 87.7484 340.786C87.7483 340.786 87.7482 340.787 89.7368 341C91.7255 341.213 91.7254 341.213 91.7254 341.213C91.7255 341.213 91.7255 341.213 91.7255 341.212C91.7256 341.211 91.7258 341.21 91.7261 341.208C91.7266 341.203 91.7274 341.195 91.7285 341.185C91.7307 341.165 91.7342 341.134 91.739 341.092C91.7485 341.008 91.7631 340.881 91.7831 340.713C91.823 340.379 91.8845 339.882 91.9698 339.24C92.1404 337.957 92.4061 336.098 92.7851 333.804C93.5434 329.213 94.7532 322.896 96.5582 315.988C100.197 302.063 106.152 286.151 115.388 276.914L112.56 274.086ZM179.474 251.263C179.261 249.275 179.26 249.275 179.259 249.275C179.259 249.275 179.258 249.275 179.257 249.275C179.255 249.275 179.253 249.275 179.249 249.276C179.243 249.276 179.233 249.277 179.221 249.279C179.197 249.281 179.162 249.285 179.116 249.291C179.024 249.301 178.889 249.317 178.713 249.338C178.361 249.38 177.847 249.443 177.187 249.531C175.867 249.707 173.965 249.978 171.625 250.365C166.948 251.138 160.506 252.371 153.45 254.214C139.447 257.873 122.609 264.037 112.56 274.086L115.388 276.914C124.625 267.678 140.536 261.723 154.462 258.085C161.37 256.28 167.687 255.07 172.277 254.311C174.571 253.932 176.431 253.667 177.714 253.496C178.355 253.411 178.852 253.349 179.187 253.309C179.354 253.289 179.481 253.275 179.565 253.265C179.607 253.261 179.639 253.257 179.659 253.255C179.669 253.254 179.677 253.253 179.681 253.252C179.684 253.252 179.685 253.252 179.686 253.252C179.687 253.252 179.687 253.252 179.687 253.252C179.687 253.252 179.687 253.252 179.474 251.263ZM112.56 228.44C122.609 238.49 139.447 244.653 153.45 248.312C160.506 250.155 166.948 251.389 171.625 252.161C173.965 252.548 175.867 252.82 177.187 252.995C177.847 253.083 178.361 253.147 178.713 253.189C178.889 253.21 179.024 253.225 179.116 253.236C179.162 253.241 179.197 253.245 179.221 253.247C179.233 253.249 179.243 253.25 179.249 253.251C179.253 253.251 179.255 253.251 179.257 253.251C179.258 253.251 179.259 253.252 179.259 253.252C179.26 253.252 179.261 253.252 179.474 251.263C179.687 249.275 179.687 249.275 179.687 249.275C179.687 249.275 179.687 249.275 179.686 249.274C179.685 249.274 179.684 249.274 179.681 249.274C179.677 249.273 179.669 249.273 179.659 249.271C179.639 249.269 179.607 249.266 179.565 249.261C179.481 249.252 179.354 249.237 179.187 249.217C178.852 249.177 178.355 249.115 177.714 249.03C176.431 248.86 174.571 248.594 172.277 248.215C167.687 247.457 161.37 246.247 154.462 244.442C140.536 240.803 124.625 234.848 115.388 225.612L112.56 228.44Z" fill="url(#paint0_linear_1_324)" mask="url(#path-1-inside-1_1_324)"/>
</g>
<defs>
<linearGradient id="paint0_linear_1_324" x1="0" y1="0" x2="340.552" y2="358.475" gradientUnits="userSpaceOnUse">
<stop stop-color="white"/>
<stop offset="1" stop-color="white" stop-opacity="0"/>
</linearGradient>
</defs>
</svg>
