<svg width="21" height="21" viewBox="0 0 21 21" fill="none" xmlns="http://www.w3.org/2000/svg">
<path d="M14.7084 17.0348C13.8918 17.8264 13.0001 17.7014 12.1418 17.3264C11.2334 16.9431 10.4001 16.9264 9.44178 17.3264C8.24178 17.8431 7.60845 17.6931 6.89178 17.0348C2.82512 12.8431 3.42512 6.45977 8.04178 6.22643C9.16678 6.28477 9.95012 6.8431 10.6084 6.8931C11.5918 6.6931 12.5334 6.1181 13.5834 6.1931C14.8418 6.2931 15.7918 6.7931 16.4168 7.6931C13.8168 9.25143 14.4334 12.6764 16.8168 13.6348C16.3418 14.8848 15.7251 16.1264 14.7001 17.0431L14.7084 17.0348ZM10.5251 6.17643C10.4001 4.3181 11.9085 2.78477 13.6418 2.63477C13.8834 4.78477 11.6918 6.38477 10.5251 6.17643Z" fill="white"/>
</svg>
