<svg width="43" height="44" viewBox="0 0 43 44" fill="none" xmlns="http://www.w3.org/2000/svg">
<path d="M9.8381 24.7183C9.8381 24.3665 9.97783 24.0292 10.2265 23.7805C10.4753 23.5318 10.8126 23.392 11.1643 23.392H17.7955C18.1472 23.392 18.4845 23.5318 18.7332 23.7805C18.982 24.0292 19.1217 24.3665 19.1217 24.7183C19.1217 25.07 18.982 25.4073 18.7332 25.656C18.4845 25.9048 18.1472 26.0445 17.7955 26.0445H11.1643C10.8126 26.0445 10.4753 25.9048 10.2265 25.656C9.97783 25.4073 9.8381 25.07 9.8381 24.7183ZM11.1643 20.7396H17.7955C18.1472 20.7396 18.4845 20.5999 18.7332 20.3511C18.982 20.1024 19.1217 19.7651 19.1217 19.4134C19.1217 19.0616 18.982 18.7243 18.7332 18.4756C18.4845 18.2269 18.1472 18.0871 17.7955 18.0871H11.1643C10.8126 18.0871 10.4753 18.2269 10.2265 18.4756C9.97783 18.7243 9.8381 19.0616 9.8381 19.4134C9.8381 19.7651 9.97783 20.1024 10.2265 20.3511C10.4753 20.5999 10.8126 20.7396 11.1643 20.7396ZM4.5332 34.0018L4.5332 10.1298C4.5332 9.4263 4.81265 8.75164 5.31008 8.25421C5.80751 7.75678 6.48217 7.47732 7.18565 7.47732L36.3626 7.47732C37.0661 7.47732 37.7408 7.75678 38.2382 8.25421C38.7356 8.75164 39.0151 9.4263 39.0151 10.1298L39.0151 34.0018C39.0151 34.7053 38.7356 35.38 38.2382 35.8774C37.7408 36.3748 37.0661 36.6543 36.3626 36.6543L7.18565 36.6543C6.48217 36.6543 5.80751 36.3748 5.31008 35.8774C4.81265 35.38 4.5332 34.7053 4.5332 34.0018ZM7.18565 10.1298L7.18565 34.0018L36.3626 34.0018L36.3626 10.1298L7.18565 10.1298ZM20.491 15.7662C20.4031 15.4255 20.4541 15.0638 20.6329 14.7606C20.8116 14.4575 21.1035 14.2378 21.4442 14.1499C21.785 14.062 22.1467 14.113 22.4498 14.2918C22.7529 14.4705 22.9726 14.7624 23.0606 15.1031C23.4966 16.804 25.2256 18.0871 27.0807 18.0871C28.9358 18.0871 30.6632 16.804 31.1008 15.1031C31.1888 14.7624 31.4084 14.4705 31.7116 14.2918C32.0147 14.113 32.3764 14.062 32.7172 14.1499C33.0579 14.2378 33.3498 14.4575 33.5285 14.7606C33.7073 15.0638 33.7583 15.4255 33.6704 15.7662C33.24 17.3681 32.2227 18.7493 30.8207 19.6355C31.5657 20.3761 32.0741 21.3213 32.2813 22.3512C32.4886 23.3811 32.3854 24.4494 31.9848 25.4206C31.5842 26.3918 30.9043 27.2221 30.0312 27.8065C29.1582 28.3908 28.1313 28.7027 27.0807 28.7027C26.0301 28.7027 25.0032 28.3908 24.1302 27.8065C23.2571 27.2221 22.5772 26.3918 22.1766 25.4206C21.776 24.4494 21.6728 23.3811 21.88 22.3512C22.0873 21.3213 22.5957 20.3761 23.3407 19.6355C21.9372 18.7506 20.9189 17.3689 20.4894 15.7662H20.491ZM27.079 20.7396C26.5544 20.7396 26.0416 20.8951 25.6054 21.1866C25.1692 21.4781 24.8293 21.8923 24.6285 22.377C24.4277 22.8617 24.3752 23.395 24.4776 23.9095C24.5799 24.424 24.8325 24.8967 25.2035 25.2676C25.5744 25.6386 26.047 25.8912 26.5616 25.9935C27.0761 26.0959 27.6094 26.0433 28.0941 25.8426C28.5788 25.6418 28.993 25.3019 29.2845 24.8657C29.5759 24.4295 29.7315 23.9166 29.7315 23.392C29.7315 22.6886 29.452 22.0139 28.9546 21.5165C28.4572 21.019 27.7825 20.7396 27.079 20.7396Z" fill="white"/>
</svg>
