<svg width="8" height="12" viewBox="0 0 8 12" fill="none" xmlns="http://www.w3.org/2000/svg">
<g clip-path="url(#clip0_3_48024)">
<path d="M1.66719 5.92226L4.91645 0.94891C4.95088 0.896415 4.99633 0.861343 5.04594 0.848986C5.09555 0.83663 5.14663 0.84766 5.19147 0.880412C5.2363 0.913164 5.27247 0.965859 5.2945 1.03055C5.31653 1.09524 5.32324 1.16841 5.31361 1.23902L4.88831 4.27815L6.56022 5.17501C6.59613 5.1942 6.62815 5.2258 6.65342 5.26698C6.6787 5.30816 6.69643 5.35764 6.70506 5.411C6.71368 5.46437 6.71291 5.51995 6.70282 5.57279C6.69274 5.62562 6.67365 5.67407 6.64726 5.71379L3.398 10.6871C3.36357 10.7396 3.31812 10.7747 3.26851 10.7871C3.2189 10.7994 3.16782 10.7884 3.12298 10.7556C3.07815 10.7229 3.04198 10.6702 3.01995 10.6055C2.99792 10.5408 2.99121 10.4676 3.00084 10.397L3.4273 7.35458L1.75539 6.45897C1.71975 6.43965 1.68798 6.40809 1.66291 6.36707C1.63783 6.32606 1.62021 6.27685 1.61161 6.22379C1.603 6.17074 1.60368 6.11548 1.61358 6.06289C1.62348 6.0103 1.64229 5.962 1.66835 5.92226H1.66719Z" fill="#EED600"/>
</g>
<defs>
<clipPath id="clip0_3_48024">
<rect width="7.42687" height="10.6098" fill="white" transform="matrix(-1 0 0 -1 7.87146 11.1235)"/>
</clipPath>
</defs>
</svg>
