<svg width="1521" height="281" viewBox="0 0 1521 281" fill="none" xmlns="http://www.w3.org/2000/svg">
<path fill-rule="evenodd" clip-rule="evenodd" d="M761 1L1018 1V140L761 140V1ZM1277 1L1019 1V140L1277 140V1ZM1278 1L1520 1.00013V140L1278 140V1ZM1.00001 281H244H245H502H503H760H761H1018H1019H1277H1278L1520 281L1521 281V1L1520 1.00013V0.000132883L0 0V1V140V141V280V281H1.00001ZM1.00001 280H244V141L1.00001 141L1.00001 280ZM1.00001 140L244 140V1L1 1L1.00001 140ZM1520 141V280H1278V141L1520 141ZM245 280L502 280V141L245 141V280ZM245 140L502 140V1L245 1V140ZM503 140V1L760 1V140L503 140ZM503 280V141L760 141V280L503 280ZM1277 141L1019 141V280L1277 280V141ZM761 141L1018 141V280L761 280V141Z" fill="#2A2B3A"/>
</svg>
