<svg width="43" height="44" viewBox="0 0 43 44" fill="none" xmlns="http://www.w3.org/2000/svg">
<path d="M21.7742 13.9872C19.6645 13.9894 17.6418 14.8285 16.15 16.3203C14.6581 17.8121 13.8191 19.8348 13.8169 21.9446V32.5544C13.8169 34.6648 14.6552 36.6888 16.1475 38.1811C17.6398 39.6734 19.6638 40.5117 21.7742 40.5117C23.8847 40.5117 25.9086 39.6734 27.4009 38.1811C28.8932 36.6888 29.7316 34.6648 29.7316 32.5544L29.7316 21.9446C29.7294 19.8348 28.8903 17.8121 27.3985 16.3203C25.9067 14.8285 23.884 13.9894 21.7742 13.9872ZM27.0791 32.5544C27.0791 33.9613 26.5202 35.3106 25.5254 36.3055C24.5305 37.3004 23.1812 37.8593 21.7742 37.8593C20.3673 37.8593 19.018 37.3004 18.0231 36.3055C17.0282 35.3106 16.4693 33.9613 16.4693 32.5544V21.9446C16.4693 20.5376 17.0282 19.1883 18.0231 18.1934C19.018 17.1986 20.3673 16.6396 21.7742 16.6396C23.1812 16.6396 24.5305 17.1986 25.5254 18.1934C26.5202 19.1883 27.0791 20.5376 27.0791 21.9446L27.0791 32.5544ZM20.448 8.7486L20.448 3.37739C20.448 3.02565 20.5877 2.68832 20.8365 2.4396C21.0852 2.19089 21.4225 2.05116 21.7742 2.05116C22.126 2.05116 22.4633 2.19089 22.712 2.4396C22.9607 2.68832 23.1005 3.02565 23.1005 3.37739L23.1005 8.7486C26.3702 9.08132 29.4004 10.6147 31.6051 13.0521C33.8099 15.4895 35.0325 18.6579 35.0365 21.9446C35.0365 22.2963 34.8968 22.6336 34.6481 22.8823C34.3993 23.1311 34.062 23.2708 33.7103 23.2708C33.3585 23.2708 33.0212 23.1311 32.7725 22.8823C32.5238 22.6336 32.384 22.2963 32.384 21.9446C32.384 19.1307 31.2662 16.432 29.2765 14.4423C27.2868 12.4526 24.5881 11.3347 21.7742 11.3347C18.9603 11.3347 16.2617 12.4526 14.272 14.4423C12.2822 16.432 11.1644 19.1307 11.1644 21.9446C11.1644 22.2963 11.0247 22.6336 10.776 22.8823C10.5273 23.1311 10.1899 23.2708 9.8382 23.2708C9.48647 23.2708 9.14913 23.1311 8.90042 22.8823C8.6517 22.6336 8.51198 22.2963 8.51198 21.9446C8.51602 18.6579 9.73861 15.4895 11.9433 13.0521C14.148 10.6147 17.1783 9.08132 20.448 8.7486Z" fill="white"/>
</svg>
