<svg width="43" height="44" viewBox="0 0 43 44" fill="none" xmlns="http://www.w3.org/2000/svg">
<path d="M21.5973 15.7554C17.6893 15.7554 14.5241 18.9206 14.5241 22.8286L14.5241 32.5542C14.5241 36.4622 17.6893 39.6274 21.5973 39.6274C25.5052 39.6274 28.6705 36.4622 28.6705 32.5542V22.8286C28.6705 18.9206 25.5052 15.7554 21.5973 15.7554Z" stroke="#BBBBBB" stroke-width="1.59147" stroke-linecap="round" stroke-linejoin="round"/>
<path d="M35.1254 26.0991V23.093C35.1254 15.6308 29.0602 9.5655 21.5979 9.5655C14.1357 9.5655 8.07042 15.6308 8.07042 23.093V26.0991" stroke="#BBBBBB" stroke-width="1.59147" stroke-linecap="round" stroke-linejoin="round"/>
<path d="M24.0546 31.7953C22.4631 32.3788 20.7302 32.3788 19.1387 31.7953" stroke="#BBBBBB" stroke-width="1.59147" stroke-linecap="round" stroke-linejoin="round"/>
<path d="M23.0116 28.0443C22.0744 28.2919 21.1018 28.2919 20.1646 28.0443" stroke="#BBBBBB" stroke-width="1.59147" stroke-linecap="round" stroke-linejoin="round"/>
<path d="M21.5973 9.56641V4.2615" stroke="#BBBBBB" stroke-width="1.59147" stroke-linecap="round" stroke-linejoin="round"/>
</svg>
