<svg width="182" height="183" viewBox="0 0 182 183" fill="none" xmlns="http://www.w3.org/2000/svg">
<circle opacity="0.8" cx="91" cy="91.625" r="56.75" stroke="#262833"/>
<circle opacity="0.5" cx="91" cy="91.625" r="68" stroke="#262833"/>
<circle opacity="0.3" cx="91" cy="91.625" r="79.25" stroke="#262833"/>
<circle opacity="0.2" cx="91" cy="91.625" r="89.25" stroke="#262833"/>
<circle opacity="0.05" cx="91" cy="91.625" r="90.5" stroke="#262833"/>
<path fill-rule="evenodd" clip-rule="evenodd" d="M90.93 129.735C112.638 129.735 130.235 112.138 130.235 90.43C130.235 68.7224 112.638 51.125 90.93 51.125C69.2224 51.125 51.625 68.7224 51.625 90.43C51.625 97.9986 53.7642 105.067 57.471 111.065L52.8614 129.875L71.3207 124.502C77.0922 127.83 83.7887 129.735 90.93 129.735Z" fill="#575C79"/>
<path fill-rule="evenodd" clip-rule="evenodd" d="M114.599 107.794C118.174 102.931 120.285 96.9247 120.285 90.4258C120.285 74.2105 107.14 61.0654 90.9248 61.0654C74.7095 61.0654 61.5645 74.2105 61.5645 90.4258C61.5645 106.641 74.7095 119.786 90.9248 119.786C96.2188 119.786 101.185 118.385 105.474 115.933L117.44 119.427L114.599 107.794Z" fill="#A6010B"/>
<path d="M89.4812 98.4988V82.5012C89.4812 80.9825 88.84 80.375 87.22 80.375H83.1363C81.5163 80.375 80.875 80.9825 80.875 82.5012V98.4988C80.875 100.017 81.5163 100.625 83.1363 100.625H87.22C88.84 100.625 89.4812 100.017 89.4812 98.4988Z" fill="white" stroke="white" stroke-width="1.5" stroke-linecap="round" stroke-linejoin="round"/>
<path d="M101.125 98.4988V82.5012C101.125 80.9825 100.483 80.375 98.8633 80.375H94.7796C93.1708 80.375 92.5183 80.9825 92.5183 82.5012V98.4988C92.5183 100.017 93.1596 100.625 94.7796 100.625H98.8633C100.483 100.625 101.125 100.017 101.125 98.4988Z" fill="white" stroke="white" stroke-width="1.5" stroke-linecap="round" stroke-linejoin="round"/>
</svg>
