<svg width="43" height="44" viewBox="0 0 43 44" fill="none" xmlns="http://www.w3.org/2000/svg">
<path d="M12.7557 6.15104L30.4387 6.15104C37.5119 6.15104 39.2802 7.91934 39.2802 14.9925L39.2802 29.139C39.2802 36.2122 37.5119 37.9805 30.4387 37.9805L12.7557 37.9805C5.68249 37.9805 3.91419 36.2122 3.91419 29.139L3.91419 14.9925C3.91419 7.91934 5.68249 6.15104 12.7557 6.15104Z" stroke="#BBBBBB" stroke-width="1.59147" stroke-linecap="round" stroke-linejoin="round"/>
<path d="M18.0607 29.1392L9.21916 29.1392" stroke="#BBBBBB" stroke-width="1.59147" stroke-linecap="round" stroke-linejoin="round"/>
<path d="M16.2924 22.0659L9.21915 22.0659" stroke="#BBBBBB" stroke-width="1.59147" stroke-linecap="round" stroke-linejoin="round"/>
<path d="M12.7557 14.9927L9.21907 14.9927" stroke="#BBBBBB" stroke-width="1.59147" stroke-linecap="round" stroke-linejoin="round"/>
<path d="M27.7863 23.3229C26.0186 23.3229 24.5856 24.7558 24.5856 26.5235C24.5856 28.2912 26.0186 29.7241 27.7863 29.7241C29.5539 29.7241 30.9869 28.2912 30.9869 26.5235C30.9869 24.7558 29.5539 23.3229 27.7863 23.3229Z" stroke="#BBBBBB" stroke-width="1.59147" stroke-linecap="round" stroke-linejoin="round"/>
<path d="M21.5973 14.4086C21.8449 16.9726 23.8784 18.9885 26.4424 19.2184C27.3266 19.3068 28.2284 19.3068 29.1303 19.2184C31.6943 18.9708 33.7278 16.9726 33.9754 14.4086" stroke="#BBBBBB" stroke-width="1.59147" stroke-linecap="round" stroke-linejoin="round"/>
</svg>
