<svg width="104" height="104" viewBox="0 0 104 104" fill="none" xmlns="http://www.w3.org/2000/svg">
<path d="M95.3276 76.1288C94.5993 81.5712 91.9192 86.5639 87.7857 90.1784C83.6522 93.7928 78.3466 95.783 72.8557 95.7788C55.9482 95.7788 39.7331 89.0623 27.7777 77.1069C15.8222 65.1514 9.10572 48.9364 9.10572 32.0288C9.10152 26.5379 11.0917 21.2323 14.7062 17.0988C18.3206 12.9653 23.3133 10.2852 28.7557 9.55695C29.5602 9.46137 30.3741 9.62892 31.0754 10.0345C31.7768 10.4401 32.3279 11.062 32.6463 11.807L42.551 33.9319C42.7944 34.5002 42.8935 35.1198 42.8395 35.7356C42.7855 36.3515 42.5802 36.9444 42.2417 37.4616L32.2245 49.3726C31.8691 49.9087 31.659 50.5279 31.6147 51.1696C31.5703 51.8113 31.6932 52.4535 31.9713 53.0335C35.8479 60.9694 44.051 69.0741 52.0104 72.9132C52.5934 73.1901 53.2386 73.3103 53.8822 73.2618C54.5259 73.2133 55.1458 72.9978 55.6807 72.6366L67.3995 62.6523C67.9188 62.3067 68.5161 62.0961 69.1374 62.0396C69.7586 61.9832 70.3841 62.0826 70.9573 62.3288L93.0635 72.2335C93.812 72.5498 94.4374 73.1007 94.8458 73.8032C95.2541 74.5058 95.4232 75.3219 95.3276 76.1288Z" fill="#262833"/>
<path d="M95.3276 76.1288C94.5993 81.5712 91.9192 86.5639 87.7857 90.1784C83.6522 93.7928 78.3466 95.783 72.8557 95.7788C55.9482 95.7788 39.7331 89.0623 27.7777 77.1069C15.8222 65.1514 9.10572 48.9364 9.10572 32.0288C9.10152 26.5379 11.0917 21.2323 14.7062 17.0988C18.3206 12.9653 23.3133 10.2852 28.7557 9.55695C29.5602 9.46137 30.3741 9.62892 31.0754 10.0345C31.7768 10.4401 32.3279 11.062 32.6463 11.807L42.551 33.9319C42.7944 34.5002 42.8935 35.1198 42.8395 35.7356C42.7855 36.3515 42.5802 36.9444 42.2417 37.4616L32.2245 49.3726C31.8691 49.9087 31.659 50.5279 31.6147 51.1696C31.5703 51.8113 31.6932 52.4535 31.9713 53.0335C35.8479 60.9694 44.051 69.0741 52.0104 72.9132C52.5934 73.1901 53.2386 73.3103 53.8822 73.2618C54.5259 73.2133 55.1458 72.9978 55.6807 72.6366L67.3995 62.6523C67.9188 62.3067 68.5161 62.0961 69.1374 62.0396C69.7586 61.9832 70.3841 62.0826 70.9573 62.3288L93.0635 72.2335C93.812 72.5498 94.4374 73.1007 94.8458 73.8032C95.2541 74.5058 95.4232 75.3219 95.3276 76.1288Z" fill="#262833"/>
<path d="M62.7026 42.1832C62.354 41.8349 62.0774 41.4213 61.8887 40.9661C61.6999 40.5108 61.6028 40.0229 61.6028 39.53C61.6028 39.0372 61.6999 38.5493 61.8887 38.094C62.0774 37.6388 62.354 37.2252 62.7026 36.8769L78.8042 20.78H69.1058C68.1112 20.78 67.1574 20.385 66.4541 19.6817C65.7508 18.9784 65.3558 18.0246 65.3558 17.03C65.3558 16.0355 65.7508 15.0817 66.4541 14.3784C67.1574 13.6751 68.1112 13.28 69.1058 13.28H87.8558C88.8503 13.28 89.8041 13.6751 90.5074 14.3784C91.2107 15.0817 91.6058 16.0355 91.6058 17.03V35.7801C91.6058 36.7746 91.2107 37.7284 90.5074 38.4317C89.8041 39.135 88.8503 39.53 87.8558 39.53C86.8612 39.53 85.9074 39.135 85.2041 38.4317C84.5008 37.7284 84.1058 36.7746 84.1058 35.7801V26.0816L68.0089 42.1832C67.6606 42.5318 67.247 42.8084 66.7918 42.9971C66.3365 43.1859 65.8486 43.283 65.3558 43.283C64.8629 43.283 64.375 43.1859 63.9197 42.9971C63.4645 42.8084 63.0509 42.5318 62.7026 42.1832ZM99.0495 76.5988C98.2137 82.9505 95.0943 88.7808 90.2741 93.0007C85.4538 97.2206 79.2622 99.5415 72.8558 99.53C35.637 99.53 5.35576 69.2488 5.35576 32.0301C5.34427 25.6236 7.66523 19.432 11.8851 14.6117C16.105 9.79146 21.9353 6.67211 28.287 5.8363C29.8926 5.63982 31.5188 5.96774 32.9228 6.77112C34.3268 7.5745 35.4335 8.81029 36.0776 10.2941L45.9776 32.4004V32.4566C46.4702 33.5931 46.6737 34.8339 46.5698 36.0682C46.4659 37.3025 46.0579 38.4919 45.3823 39.53C45.2979 39.6566 45.2089 39.7738 45.1151 39.891L35.3558 51.4597C38.8667 58.5941 46.3292 65.991 53.5573 69.5113L64.9667 59.8035C65.0787 59.7093 65.1961 59.6217 65.3183 59.541C66.3544 58.8463 67.548 58.4223 68.7902 58.3077C70.0323 58.1931 71.2834 58.3915 72.4292 58.8847L72.4901 58.9129L94.5729 68.8082C96.0603 69.4493 97.3001 70.5546 98.107 71.9589C98.9139 73.3632 99.2446 74.991 99.0495 76.5988ZM91.6058 75.6613C91.6058 75.6613 91.5729 75.6613 91.5542 75.6613L69.5229 65.7894L58.1089 75.5019C57.9982 75.5957 57.8824 75.6833 57.762 75.7644C56.6827 76.4845 55.4351 76.9122 54.1411 77.0059C52.8471 77.0995 51.5509 76.8559 50.3792 76.2988C41.5995 72.0566 32.8479 63.3707 28.6011 54.6847C28.0387 53.5216 27.7864 52.2328 27.8685 50.9435C27.9506 49.6541 28.3644 48.4078 29.0698 47.3254C29.1493 47.1983 29.2387 47.0776 29.337 46.9644L39.1058 35.3816L29.262 13.3504C29.2602 13.3317 29.2602 13.3128 29.262 13.2941C24.7163 13.8871 20.5427 16.1168 17.5227 19.5656C14.5027 23.0144 12.8435 27.4459 12.8558 32.0301C12.8731 47.9377 19.2001 63.1888 30.4485 74.4373C41.697 85.6857 56.9481 92.0127 72.8558 92.03C77.4371 92.0458 81.8674 90.3924 85.3182 87.3789C88.7691 84.3655 91.0042 80.1983 91.6058 75.6566V75.6613Z" fill="#39E991"/>
</svg>
