<svg width="300" height="301" viewBox="0 0 300 301" fill="none" xmlns="http://www.w3.org/2000/svg">
<path fill-rule="evenodd" clip-rule="evenodd" d="M149.818 299.917C232.515 299.917 299.554 232.878 299.554 150.181C299.554 67.4846 232.515 0.445557 149.818 0.445557C67.121 0.445557 0.0820312 67.4846 0.0820312 150.181C0.0820312 179.016 8.23241 205.947 22.3551 228.796L4.79672 300.445L75.1092 279.977C97.0973 292.661 122.61 299.917 149.818 299.917Z" fill="#575C79"/>
<path fill-rule="evenodd" clip-rule="evenodd" d="M239.993 215.242C253.611 196.712 261.655 173.832 261.655 149.074C261.655 87.3003 211.578 37.2229 149.804 37.2229C88.0305 37.2229 37.9531 87.3003 37.9531 149.074C37.9531 210.847 88.0305 260.925 149.804 260.925C169.982 260.925 188.912 255.582 205.256 246.233L250.811 259.532L239.993 215.242Z" fill="#39E991"/>
</svg>
