<svg width="49" height="49" viewBox="0 0 49 49" fill="none" xmlns="http://www.w3.org/2000/svg">
<path d="M45.0671 24.1233C45.0684 24.6317 44.938 25.1318 44.6887 25.5749C44.4395 26.018 44.0798 26.3891 43.6446 26.652L16.6772 43.1491C16.2226 43.4275 15.7018 43.5795 15.1688 43.5894C14.6357 43.5993 14.1097 43.4667 13.6451 43.2053C13.1848 42.948 12.8014 42.5727 12.5343 42.1181C12.2672 41.6635 12.126 41.1459 12.1252 40.6186V7.62806C12.126 7.10077 12.2672 6.58321 12.5343 6.12859C12.8014 5.67396 13.1848 5.2987 13.6451 5.04137C14.1097 4.77999 14.6357 4.64738 15.1688 4.65725C15.7018 4.66712 16.2226 4.81911 16.6772 5.09752L43.6446 21.5947C44.0798 21.8576 44.4395 22.2286 44.6887 22.6718C44.938 23.1149 45.0684 23.6149 45.0671 24.1233Z" fill="white"/>
</svg>
