<svg width="91" height="90" viewBox="0 0 91 90" fill="none" xmlns="http://www.w3.org/2000/svg">
<path opacity="0.2" d="M65.5391 44.6483L45.1484 65.039C43.5661 66.6212 41.4201 67.51 39.1824 67.51C36.9448 67.51 34.7987 66.6212 33.2164 65.039L25.4609 57.2729C23.8819 55.6911 22.9951 53.5473 22.9951 51.3122C22.9951 49.0771 23.8819 46.9333 25.4609 45.3515L45.8516 24.9608C47.4339 23.3786 49.5799 22.4897 51.8176 22.4897C54.0552 22.4897 56.2013 23.3786 57.7836 24.9608L65.5391 32.7268C67.1181 34.3087 68.0049 36.4525 68.0049 38.6876C68.0049 40.9227 67.1181 43.0664 65.5391 44.6483Z" fill="#18D777"/>
<path d="M84.052 6.44767C83.7908 6.18618 83.4806 5.97873 83.1391 5.83719C82.7977 5.69565 82.4317 5.6228 82.0621 5.6228C81.6925 5.6228 81.3265 5.69565 80.9851 5.83719C80.6437 5.97873 80.3335 6.18618 80.0723 6.44767L61.6504 24.8731L59.7625 22.9817C57.6504 20.8756 54.7894 19.693 51.8066 19.693C48.8239 19.693 45.9629 20.8756 43.8508 22.9817L35.6559 31.1801L33.427 28.9477C32.8992 28.4199 32.1834 28.1235 31.4371 28.1235C30.6908 28.1235 29.975 28.4199 29.4473 28.9477C28.9195 29.4754 28.623 30.1912 28.623 30.9375C28.623 31.6839 28.9195 32.3996 29.4473 32.9274L31.6797 35.1563L23.4813 43.3512C22.4363 44.3959 21.6074 45.6362 21.0419 47.0013C20.4764 48.3663 20.1853 49.8295 20.1853 51.307C20.1853 52.7846 20.4764 54.2477 21.0419 55.6128C21.6074 56.9779 22.4363 58.2182 23.4813 59.2629L25.3727 61.1508L6.94727 79.5727C6.68596 79.834 6.47867 80.1442 6.33725 80.4856C6.19583 80.827 6.12305 81.193 6.12305 81.5625C6.12305 81.9321 6.19583 82.298 6.33725 82.6394C6.47867 82.9808 6.68596 83.291 6.94727 83.5524C7.47501 84.0801 8.19077 84.3766 8.93711 84.3766C9.30666 84.3766 9.67259 84.3038 10.014 84.1624C10.3554 84.021 10.6656 83.8137 10.927 83.5524L29.3488 65.127L31.2367 67.0184C33.3493 69.1236 36.2102 70.3056 39.1926 70.3056C42.175 70.3056 45.0359 69.1236 47.1484 67.0184L55.3434 58.8199L57.5723 61.0524C57.8336 61.3137 58.1438 61.5209 58.4852 61.6624C58.8266 61.8038 59.1926 61.8766 59.5621 61.8766C59.9317 61.8766 60.2976 61.8038 60.639 61.6624C60.9804 61.5209 61.2906 61.3137 61.552 61.0524C61.8133 60.791 62.0205 60.4808 62.162 60.1394C62.3034 59.798 62.3762 59.4321 62.3762 59.0625C62.3762 58.693 62.3034 58.327 62.162 57.9856C62.0205 57.6442 61.8133 57.334 61.552 57.0727L59.3195 54.8438L67.518 46.6488C68.5629 45.6042 69.3918 44.3638 69.9573 42.9988C70.5229 41.6337 70.8139 40.1706 70.8139 38.693C70.8139 37.2154 70.5229 35.7523 69.9573 34.3872C69.3918 33.0221 68.5629 31.7818 67.518 30.7371L65.6266 28.8492L84.052 10.4274C84.3135 10.1662 84.5209 9.85597 84.6624 9.51453C84.804 9.1731 84.8768 8.80712 84.8768 8.43752C84.8768 8.06791 84.804 7.70193 84.6624 7.3605C84.5209 7.01906 84.3135 6.70888 84.052 6.44767ZM43.1688 63.0492C42.114 64.1033 40.6838 64.6955 39.1926 64.6955C37.7014 64.6955 36.2712 64.1033 35.2164 63.0492L27.4609 55.2832C26.4068 54.2284 25.8147 52.7982 25.8147 51.307C25.8147 49.8158 26.4068 48.3857 27.4609 47.3309L35.6559 39.1324L51.3672 54.8438L43.1688 63.0492ZM63.5383 42.6797L55.3434 50.8676L39.632 35.1563L47.8305 26.9613C48.8853 25.9072 50.3154 25.3151 51.8066 25.3151C53.2978 25.3151 54.728 25.9072 55.7828 26.9613L63.5383 34.6957C64.0607 35.2181 64.4752 35.8382 64.758 36.5208C65.0407 37.2033 65.1863 37.9349 65.1863 38.6736C65.1863 39.4124 65.0407 40.144 64.758 40.8265C64.4752 41.5091 64.0607 42.1292 63.5383 42.6516V42.6797ZM31.6375 12.3047C31.3578 11.6119 31.3647 10.8364 31.6568 10.1488C31.9489 9.46109 32.5021 8.91763 33.1949 8.63791C33.8877 8.35819 34.6632 8.36512 35.3509 8.6572C36.0385 8.94927 36.582 9.50255 36.8617 10.1953L39.6742 17.2266C39.8127 17.5696 39.8823 17.9366 39.879 18.3065C39.8757 18.6764 39.7995 19.042 39.6549 19.3825C39.5103 19.723 39.3 20.0317 39.0361 20.2909C38.7722 20.5502 38.4598 20.7549 38.1168 20.8934C37.7738 21.0319 37.4068 21.1015 37.0369 21.0982C36.667 21.0948 36.3013 21.0187 35.9608 20.8741C35.6204 20.7295 35.3117 20.5192 35.0524 20.2553C34.7932 19.9914 34.5885 19.679 34.45 19.336L31.6375 12.3047ZM9.1375 32.6953C9.27552 32.3519 9.47995 32.0391 9.73909 31.7749C9.99823 31.5107 10.307 31.3002 10.6476 31.1555C10.9883 31.0108 11.3541 30.9348 11.7242 30.9317C12.0943 30.9287 12.4613 30.9988 12.8043 31.1379L19.8355 33.9504C20.1786 34.0889 20.491 34.2936 20.7549 34.5529C21.0188 34.8121 21.2291 35.1208 21.3737 35.4613C21.5183 35.8017 21.5944 36.1674 21.5977 36.5373C21.6011 36.9072 21.5315 37.2742 21.393 37.6172C21.2545 37.9602 21.0498 38.2726 20.7905 38.5365C20.5313 38.8004 20.2226 39.0107 19.8821 39.1553C19.5416 39.3 19.176 39.3761 18.8061 39.3794C18.4361 39.3827 18.0692 39.3131 17.7262 39.1746L10.6949 36.3621C10.3515 36.2241 10.0387 36.0197 9.77449 35.7605C9.51026 35.5014 9.29976 35.1927 9.15507 34.852C9.01039 34.5114 8.93436 34.1455 8.93134 33.7754C8.92833 33.4053 8.99839 33.0383 9.1375 32.6953ZM81.8617 57.3047C81.7247 57.6478 81.5214 57.9605 81.2634 58.225C81.0055 58.4895 80.698 58.7005 80.3584 58.8461C80.0189 58.9917 79.654 59.069 79.2846 59.0736C78.9152 59.0781 78.5485 59.0099 78.2055 58.8727L71.1742 56.0602C70.8305 55.9224 70.5173 55.7182 70.2525 55.4593C69.9877 55.2005 69.7764 54.892 69.6308 54.5515C69.4852 54.211 69.4081 53.8452 69.4039 53.4749C69.3997 53.1046 69.4684 52.7371 69.6063 52.3934C69.7441 52.0497 69.9482 51.7364 70.2071 51.4716C70.4659 51.2068 70.7744 50.9956 71.1149 50.85C71.4554 50.7044 71.8213 50.6273 72.1915 50.623C72.5618 50.6188 72.9293 50.6876 73.273 50.8254L80.3043 53.6379C80.6477 53.7759 80.9605 53.9804 81.2247 54.2395C81.489 54.4986 81.6995 54.8074 81.8442 55.148C81.9888 55.4887 82.0649 55.8545 82.0679 56.2246C82.0709 56.5947 82.0008 56.9617 81.8617 57.3047ZM59.3617 77.7164C59.4988 78.0594 59.5671 78.4261 59.5625 78.7955C59.5579 79.1649 59.4806 79.5298 59.335 79.8693C59.1894 80.2088 58.9783 80.5163 58.7139 80.7743C58.4494 81.0322 58.1368 81.2355 57.7938 81.3727C57.4507 81.5098 57.0841 81.578 56.7147 81.5734C56.3453 81.5688 55.9804 81.4915 55.6409 81.3459C55.3014 81.2003 54.9939 80.9893 54.7359 80.7248C54.478 80.4604 54.2746 80.1477 54.1375 79.8047L51.325 72.7735C51.0453 72.0807 51.0522 71.3052 51.3443 70.6175C51.6364 69.9298 52.1897 69.3864 52.8824 69.1067C53.5752 68.8269 54.3507 68.8339 55.0384 69.1259C55.726 69.418 56.2695 69.9713 56.5492 70.6641L59.3617 77.7164Z" fill="#18D777"/>
</svg>
