<svg width="101" height="100" viewBox="0 0 101 100" fill="none" xmlns="http://www.w3.org/2000/svg">
<path opacity="0.2" d="M72.375 46.875V70.957C72.3746 71.7847 72.0459 72.5785 71.4609 73.1641L58.043 86.582C57.6324 86.9917 57.1159 87.279 56.5513 87.4119C55.9867 87.5447 55.3963 87.5178 54.8462 87.3341C54.296 87.1504 53.8078 86.8173 53.4362 86.372C53.0646 85.9266 52.8243 85.3867 52.7422 84.8125L50.5 68.75L72.375 46.875ZM53.625 28.125H29.543C28.7153 28.1254 27.9215 28.4541 27.3359 29.0391L13.918 42.457C13.5083 42.8676 13.221 43.3841 13.0881 43.9487C12.9553 44.5133 12.9822 45.1037 13.1659 45.6538C13.3496 46.204 13.6827 46.6922 14.128 47.0638C14.5734 47.4354 15.1133 47.6757 15.6875 47.7578L31.75 50L53.625 28.125ZM16.125 84.375C30.832 84.375 35.9258 76.6836 37.4375 73.3672L27.1328 63.0625C23.8164 64.5742 16.125 69.668 16.125 84.375Z" fill="#18D777"/>
<path d="M87.9414 18.4062C87.8488 16.8825 87.2018 15.4454 86.1223 14.3659C85.0429 13.2865 83.6058 12.6395 82.082 12.5469C77.168 12.2539 64.6094 12.7031 54.1875 23.1211L52.332 25H29.5469C28.723 24.9953 27.9064 25.1546 27.1445 25.4684C26.3827 25.7823 25.6909 26.2445 25.1094 26.8281L11.7109 40.2344C10.8893 41.0555 10.3127 42.0894 10.0459 43.22C9.77912 44.3506 9.83272 45.5331 10.2007 46.635C10.5686 47.7368 11.2364 48.7143 12.129 49.4577C13.0216 50.2011 14.1037 50.6811 15.2539 50.8437L30.2813 52.9414L47.5508 70.2109L49.6484 85.2461C49.8097 86.3963 50.2896 87.4786 51.0337 88.3704C51.7778 89.2623 52.7566 89.9282 53.8594 90.2929C54.5017 90.5075 55.1744 90.617 55.8516 90.6172C56.6715 90.6187 57.4837 90.458 58.2413 90.1442C58.9989 89.8305 59.6869 89.3699 60.2656 88.789L73.6719 75.3906C74.2555 74.8091 74.7177 74.1173 75.0316 73.3554C75.3454 72.5936 75.5046 71.777 75.5 70.9531V48.1679L77.3633 46.3047C87.7852 35.8828 88.2344 23.3242 87.9414 18.4062ZM29.5469 31.25H46.082L30.6406 46.6875L16.125 44.664L29.5469 31.25ZM58.6133 27.5586C61.6161 24.5372 65.2291 22.1914 69.2109 20.6778C73.1926 19.1642 77.4515 18.5176 81.7031 18.7812C81.977 23.0351 81.3371 27.2982 79.8265 31.2842C78.3159 35.2702 75.9696 38.8867 72.9453 41.8906L50.5 64.3281L36.1719 50L58.6133 27.5586ZM69.25 70.9531L55.8398 84.375L53.8125 69.8554L69.25 54.4179V70.9531ZM40.2812 74.664C38.5234 78.5156 32.6445 87.5 16.125 87.5C15.2962 87.5 14.5013 87.1707 13.9153 86.5847C13.3292 85.9986 13 85.2038 13 84.375C13 67.8554 21.9844 61.9765 25.8359 60.2148C26.2094 60.0445 26.6127 59.9494 27.0229 59.935C27.4331 59.9206 27.8421 59.9871 28.2266 60.1307C28.6111 60.2743 28.9635 60.4923 29.2638 60.7722C29.5641 61.052 29.8063 61.3882 29.9766 61.7617C30.1469 62.1351 30.242 62.5385 30.2564 62.9487C30.2708 63.3589 30.2043 63.7679 30.0607 64.1524C29.917 64.5369 29.6991 64.8893 29.4192 65.1896C29.1394 65.4898 28.8031 65.732 28.4297 65.9023C25.918 67.0469 20.375 70.7304 19.3984 81.1015C29.7695 80.125 33.4609 74.582 34.5977 72.0703C34.768 71.6968 35.0102 71.3606 35.3104 71.0808C35.6107 70.8009 35.9631 70.5829 36.3476 70.4393C36.7321 70.2957 37.1411 70.2292 37.5513 70.2436C37.9615 70.258 38.3648 70.3531 38.7383 70.5234C39.1117 70.6937 39.448 70.9359 39.7278 71.2362C40.0077 71.5364 40.2256 71.8889 40.3693 72.2734C40.5129 72.6579 40.5794 73.0669 40.565 73.4771C40.5506 73.8873 40.4555 74.2906 40.2852 74.664H40.2812Z" fill="#18D777"/>
</svg>
