<svg width="25" height="25" viewBox="0 0 25 25" fill="none" xmlns="http://www.w3.org/2000/svg">
<path d="M6.06219 19.24C6.06219 19.24 6.05221 19.24 6.04221 19.24L3.49219 19.23C3.08219 19.23 2.74219 18.89 2.74219 18.48C2.74219 18.07 3.08219 17.73 3.49219 17.73L6.04221 17.74H6.05219C6.70219 17.74 7.31221 17.42 7.67221 16.87L14.0622 7.28998C14.7022 6.32998 15.7722 5.75 16.9322 5.75C16.9322 5.75 16.9422 5.75 16.9522 5.75L21.5022 5.77002C21.9122 5.77002 22.2522 6.11002 22.2522 6.52002C22.2522 6.93002 21.9122 7.27002 21.5022 7.27002L16.9522 7.25H16.9422C16.2922 7.25 15.6822 7.57 15.3222 8.12L8.93219 17.7C8.29219 18.67 7.22219 19.24 6.06219 19.24Z" fill="white"/>
<path d="M19.5014 21.2299C19.3114 21.2299 19.1214 21.1599 18.9714 21.0099C18.6814 20.7199 18.6814 20.2399 18.9714 19.9499L20.9714 17.9499C21.2614 17.6599 21.7414 17.6599 22.0314 17.9499C22.3214 18.2399 22.3214 18.7199 22.0314 19.0099L20.0314 21.0099C19.8814 21.1599 19.6914 21.2299 19.5014 21.2299Z" fill="white"/>
<path d="M9.39001 9.88C9.16001 9.88 8.93 9.77001 8.78 9.57001L7.70001 8.07001C7.33001 7.56001 6.71999 7.26001 6.10999 7.26001L3.5 7.27002C3.04 7.26002 2.75 6.94002 2.75 6.52002C2.75 6.11002 3.08 5.77002 3.5 5.77002L6.10999 5.76001C6.11999 5.76001 6.12 5.76001 6.13 5.76001C7.24001 5.76001 8.27999 6.3 8.92999 7.19L10.01 8.69C10.25 9.03 10.18 9.48999 9.84 9.73999C9.7 9.82999 9.55001 9.88 9.39001 9.88Z" fill="white"/>
<path d="M16.8195 19.2499C15.7595 19.2499 14.7395 18.7499 14.0895 17.9099L12.8695 16.34C12.6195 16.01 12.6795 15.5399 12.9995 15.2899C13.3295 15.0399 13.7995 15.0999 14.0495 15.4199L15.2695 16.9899C15.6395 17.4699 16.2295 17.7099 16.8195 17.7499L21.4895 17.7299C21.8995 17.7299 22.2395 18.0599 22.2395 18.4799C22.2395 18.8899 21.9095 19.2299 21.4895 19.2299L16.8195 19.2499C16.8295 19.2499 16.8195 19.2499 16.8195 19.2499Z" fill="white"/>
<path d="M21.5014 7.26999C21.3114 7.26999 21.1214 7.19996 20.9714 7.04996L18.9714 5.04996C18.6814 4.75996 18.6814 4.27996 18.9714 3.98996C19.2614 3.69996 19.7414 3.69996 20.0314 3.98996L22.0314 5.98996C22.3214 6.27996 22.3214 6.75996 22.0314 7.04996C21.8814 7.19996 21.6914 7.26999 21.5014 7.26999Z" fill="white"/>
</svg>
