<svg width="120" height="121" viewBox="0 0 120 121" fill="none" xmlns="http://www.w3.org/2000/svg">
<path fill-rule="evenodd" clip-rule="evenodd" d="M59.9636 120.362C93.0423 120.362 119.858 93.5463 119.858 60.4676C119.858 27.3888 93.0423 0.573242 59.9636 0.573242C26.8849 0.573242 0.0692749 27.3888 0.0692749 60.4676C0.0692749 72.0017 3.32959 82.7743 8.9789 91.9142L1.95574 120.573L30.0803 112.386C38.8755 117.459 49.0806 120.362 59.9636 120.362Z" fill="#575C79"/>
<path fill-rule="evenodd" clip-rule="evenodd" d="M96.0352 86.4913C101.482 79.0794 104.7 69.9277 104.7 60.0245C104.7 35.3151 84.6686 15.2842 59.9592 15.2842C35.2498 15.2842 15.2189 35.3151 15.2189 60.0245C15.2189 84.734 35.2498 104.765 59.9592 104.765C68.0305 104.765 75.6025 102.628 82.1403 98.8882L100.363 104.208L96.0352 86.4913Z" fill="#39E991"/>
<path d="M80.9252 60.4676C80.9264 60.976 80.7961 61.476 80.5468 61.9191C80.2976 62.3623 79.9379 62.7333 79.5027 62.9962L52.5353 79.4934C52.0806 79.7718 51.5599 79.9238 51.0269 79.9336C50.4938 79.9435 49.9678 79.8109 49.5032 79.5495C49.0429 79.2922 48.6595 78.9169 48.3924 78.4623C48.1253 78.0077 47.9841 77.4901 47.9833 76.9628V43.9723C47.9841 43.445 48.1253 42.9274 48.3924 42.4728C48.6595 42.0182 49.0429 41.6429 49.5032 41.3856C49.9678 41.1242 50.4938 40.9916 51.0269 41.0015C51.5599 41.0114 52.0806 41.1634 52.5353 41.4418L79.5027 57.9389C79.9379 58.2018 80.2976 58.5729 80.5468 59.016C80.7961 59.4591 80.9264 59.9592 80.9252 60.4676Z" fill="white"/>
</svg>
