<svg width="101" height="100" viewBox="0 0 101 100" fill="none" xmlns="http://www.w3.org/2000/svg">
<path opacity="0.2" d="M69.25 50C69.25 53.7084 68.1503 57.3335 66.0901 60.4169C64.0298 63.5004 61.1014 65.9036 57.6753 67.3227C54.2492 68.7419 50.4792 69.1132 46.8421 68.3897C43.2049 67.6663 39.864 65.8805 37.2418 63.2583C34.6195 60.636 32.8338 57.2951 32.1103 53.6579C31.3868 50.0208 31.7581 46.2508 33.1773 42.8247C34.5964 39.3986 36.9996 36.4702 40.0831 34.4099C43.1665 32.3497 46.7916 31.25 50.5 31.25C55.4728 31.25 60.242 33.2254 63.7583 36.7417C67.2746 40.2581 69.25 45.0272 69.25 50Z" fill="#18D777"/>
<path d="M87.168 32.4845C91.5044 41.554 92.3276 51.9084 89.4787 61.5492C86.6298 71.19 80.3108 79.4338 71.7412 84.6895C63.1715 89.9453 52.9588 91.8404 43.0741 90.0091C33.1894 88.1778 24.3334 82.7499 18.2153 74.773C12.0972 66.7962 9.15077 56.8358 9.94462 46.8143C10.7385 36.7927 15.2163 27.4205 22.514 20.5063C29.8117 13.5922 39.4118 9.62633 49.4616 9.37414C59.5113 9.12194 69.2983 12.6013 76.9336 19.1407L85.789 10.2813C86.3754 9.69496 87.1707 9.36554 88 9.36554C88.8292 9.36554 89.6245 9.69496 90.2109 10.2813C90.7973 10.8677 91.1267 11.663 91.1267 12.4923C91.1267 13.3215 90.7973 14.1168 90.2109 14.7032L52.7109 52.2032C52.1245 52.7896 51.3292 53.119 50.5 53.119C49.6707 53.119 48.8754 52.7896 48.289 52.2032C47.7027 51.6168 47.3732 50.8215 47.3732 49.9923C47.3732 49.163 47.7027 48.3677 48.289 47.7813L59.1172 36.9532C56.1826 35.0124 52.6789 34.1188 49.1733 34.4171C45.6677 34.7153 42.3653 36.188 39.8008 38.5967C37.2363 41.0053 35.5598 44.209 35.0426 47.6891C34.5255 51.1691 35.1979 54.7219 36.9512 57.7722C38.7045 60.8225 41.4359 63.1918 44.7033 64.4966C47.9707 65.8014 51.5828 65.9652 54.955 64.9616C58.3271 63.958 61.2618 61.8457 63.284 58.9667C65.3062 56.0876 66.2976 52.6103 66.0976 49.0977C66.0746 48.6874 66.1325 48.2765 66.2682 47.8885C66.404 47.5005 66.6148 47.1431 66.8886 46.8366C67.1625 46.53 67.494 46.2805 67.8644 46.1021C68.2347 45.9237 68.6365 45.82 69.0469 45.797C69.8757 45.7503 70.689 46.0349 71.3081 46.588C71.6146 46.8618 71.8641 47.1934 72.0425 47.5637C72.2209 47.934 72.3246 48.3358 72.3476 48.7462C72.6325 53.718 71.2125 58.6382 68.3222 62.6935C65.4319 66.7489 61.2444 69.6967 56.4518 71.0498C51.6592 72.4028 46.5483 72.08 41.964 70.1348C37.3797 68.1897 33.5963 64.7385 31.2391 60.3517C28.8819 55.965 28.0921 50.9052 29.0002 46.0088C29.9083 41.1123 32.4599 36.6723 36.2333 33.4225C40.0067 30.1727 44.7761 28.3076 49.7531 28.1357C54.73 27.9637 59.6167 29.4951 63.6055 32.4767L72.4922 23.5899C65.9797 18.1829 57.6991 15.3726 49.2408 15.6988C40.7826 16.025 32.743 19.4648 26.6663 25.3574C20.5897 31.25 16.9043 39.1799 16.3181 47.6242C15.7319 56.0684 18.2862 64.4315 23.4904 71.1072C28.6947 77.7829 36.1818 82.3005 44.5139 83.7922C52.8459 85.284 61.4354 83.6448 68.6325 79.1895C75.8297 74.7341 81.127 67.7768 83.507 59.6538C85.8871 51.5307 85.182 42.8147 81.5273 35.1798C81.1699 34.4318 81.1243 33.5724 81.4004 32.7908C81.6766 32.0091 82.252 31.3692 83 31.0118C83.748 30.6544 84.6073 30.6087 85.389 30.8849C86.1706 31.1611 86.8105 31.7365 87.168 32.4845Z" fill="#18D777"/>
</svg>
