<svg width="28" height="27" viewBox="0 0 28 27" fill="none" xmlns="http://www.w3.org/2000/svg">
<path fill-rule="evenodd" clip-rule="evenodd" d="M7.34211 0.5C7.34211 0.5 7.64412 3.31891 8.8205 4.49529C9.99688 5.67167 12.8158 5.97368 12.8158 5.97368C12.8158 5.97368 9.99688 6.2757 8.8205 7.45208C7.64412 8.62846 7.34211 11.4474 7.34211 11.4474C7.34211 11.4474 7.04009 8.62846 5.86371 7.45208C4.68733 6.2757 1.86842 5.97368 1.86842 5.97368C1.86842 5.97368 4.68733 5.67167 5.86371 4.49529C7.04009 3.31891 7.34211 0.5 7.34211 0.5ZM19.6579 4.60526C19.6579 4.60526 20.1109 8.83363 21.8755 10.5982C23.6401 12.3628 27.8684 12.8158 27.8684 12.8158C27.8684 12.8158 23.6401 13.2688 21.8755 15.0334C20.1109 16.7979 19.6579 21.0263 19.6579 21.0263C19.6579 21.0263 19.2049 16.7979 17.4403 15.0334C15.6757 13.2688 11.4474 12.8158 11.4474 12.8158C11.4474 12.8158 15.6757 12.3628 17.4403 10.5982C19.2049 8.83363 19.6579 4.60526 19.6579 4.60526ZM9.19009 17.8099C7.71962 16.3394 7.34211 12.8158 7.34211 12.8158C7.34211 12.8158 6.96459 16.3394 5.49412 17.8099C4.02364 19.2804 0.5 19.6579 0.5 19.6579C0.5 19.6579 4.02364 20.0354 5.49412 21.5059C6.96459 22.9764 7.34211 26.5 7.34211 26.5C7.34211 26.5 7.71962 22.9764 9.19009 21.5059C10.6606 20.0354 14.1842 19.6579 14.1842 19.6579C14.1842 19.6579 10.6606 19.2804 9.19009 17.8099Z" fill="#18D777"/>
</svg>
