<svg width="1521" height="591" viewBox="0 0 1521 591" fill="none" xmlns="http://www.w3.org/2000/svg">
<path fill-rule="evenodd" clip-rule="evenodd" d="M1 1L90 1L90 118H1.00001L1 1ZM0 118V119V236V237V354V355V472V473V590V591H1.00003H90H91H1430H1431H1520H1521V1L1520 1V0H0V1V118ZM1431 118H1520V1L1431 1V118ZM1430 118V1L91 1L91 118H1430ZM1430 119V236H91V119H1430ZM1431 236V119H1520V236H1431ZM1430 237H91L91 354H1430V237ZM1431 354V237H1520V354H1431ZM1430 355H91V472H1430V355ZM1431 472V355H1520V472H1431ZM1430 473H91L91 590H1430V473ZM1431 590V473H1520V590H1431ZM1.00001 119L1.00001 236H90V119H1.00001ZM1.00002 354L1.00001 237H90L90 354H1.00002ZM1.00002 472L1.00002 355H90V472H1.00002ZM1.00003 590L1.00002 473H90L90 590H1.00003Z" fill="#2A2B3A"/>
</svg>
