<svg width="86" height="86" viewBox="0 0 86 86" fill="none" xmlns="http://www.w3.org/2000/svg">
<path d="M7.43484 64.5637L9.06859 65.5068C8.87693 66.5216 8.87693 67.5632 9.06859 68.578L7.43484 69.5211C6.79048 69.893 6.32025 70.5056 6.12761 71.2243C5.93497 71.9429 6.0357 72.7086 6.40762 73.353C6.77955 73.9973 7.39221 74.4676 8.11084 74.6602C8.82947 74.8529 9.59519 74.7521 10.2396 74.3802L11.8768 73.4336C12.6603 74.1059 13.5613 74.6276 14.5343 74.9727V76.8589C14.5343 77.6027 14.8297 78.3161 15.3557 78.8421C15.8817 79.3681 16.5951 79.6636 17.339 79.6636C18.0828 79.6636 18.7962 79.3681 19.3222 78.8421C19.8482 78.3161 20.1437 77.6027 20.1437 76.8589V74.9727C21.1167 74.6276 22.0176 74.1059 22.8011 73.4336L24.4384 74.3802C24.7574 74.5644 25.1096 74.6839 25.4749 74.7319C25.8401 74.78 26.2113 74.7556 26.5671 74.6602C26.9229 74.5648 27.2565 74.4003 27.5487 74.176C27.8409 73.9517 28.0861 73.672 28.2703 73.353C28.4545 73.0339 28.574 72.6817 28.622 72.3165C28.6701 71.9512 28.6457 71.5801 28.5503 71.2243C28.4549 70.8684 28.2904 70.5349 28.0661 70.2427C27.8418 69.9504 27.5621 69.7052 27.2431 69.5211L25.6093 68.578C25.801 67.5632 25.801 66.5216 25.6093 65.5068L27.2431 64.5637C27.7781 64.2552 28.1963 63.7786 28.4328 63.2081C28.6693 62.6376 28.7108 62.0049 28.551 61.4083C28.3912 60.8118 28.0389 60.2846 27.5488 59.9087C27.0588 59.5328 26.4583 59.3292 25.8407 59.3295C25.3483 59.3279 24.8643 59.4574 24.4384 59.7046L22.8011 60.6512C22.0176 59.9789 21.1167 59.4572 20.1437 59.1121V57.2259C20.1437 56.4821 19.8482 55.7687 19.3222 55.2427C18.7962 54.7167 18.0828 54.4212 17.339 54.4212C16.5951 54.4212 15.8817 54.7167 15.3557 55.2427C14.8297 55.7687 14.5343 56.4821 14.5343 57.2259V59.1121C13.5613 59.4572 12.6603 59.9789 11.8768 60.6512L10.2396 59.7046C9.81363 59.4574 9.32964 59.3279 8.8372 59.3295C8.21958 59.3292 7.61916 59.5328 7.12911 59.9087C6.63905 60.2846 6.28677 60.8118 6.12694 61.4083C5.96711 62.0049 6.00866 62.6376 6.24515 63.2081C6.48164 63.7786 6.89984 64.2552 7.43484 64.5637ZM20.1437 67.0424C20.1437 67.5971 19.9792 68.1394 19.671 68.6006C19.3628 69.0618 18.9248 69.4213 18.4123 69.6336C17.8998 69.8459 17.3358 69.9014 16.7918 69.7932C16.2477 69.685 15.748 69.4179 15.3557 69.0256C14.9635 68.6334 14.6964 68.1336 14.5881 67.5896C14.4799 67.0455 14.5355 66.4816 14.7478 65.9691C14.96 65.4566 15.3195 65.0186 15.7808 64.7104C16.242 64.4022 16.7842 64.2377 17.339 64.2377C18.0828 64.2377 18.7962 64.5332 19.3222 65.0592C19.8482 65.5852 20.1437 66.2985 20.1437 67.0424ZM9.8539 50.1756C10.5875 50.0528 11.2423 49.6437 11.6743 49.0381C12.1062 48.4326 12.28 47.6803 12.1573 46.9467C11.8725 45.2459 11.7294 43.5245 11.7296 41.8C11.7229 34.2477 14.4987 26.9576 19.5266 21.3222C22.6547 25.855 27.0531 29.3618 32.1689 31.4016C29.4209 33.566 27.4157 36.5329 26.4321 39.8897C25.4485 43.2465 25.5354 46.8265 26.6807 50.1316C27.826 53.4368 29.9728 56.3029 32.8226 58.3314C35.6723 60.3599 39.0833 61.4499 42.5813 61.4499C46.0793 61.4499 49.4903 60.3599 52.3401 58.3314C55.1898 56.3029 57.3366 53.4368 58.482 50.1316C59.6273 46.8265 59.7142 43.2465 58.7306 39.8897C57.747 36.5329 55.7418 33.566 52.9938 31.4016C58.1095 29.3618 62.508 25.855 65.636 21.3222C69.5811 25.7678 72.1581 31.2583 73.0571 37.1336C73.9561 43.0088 73.1389 49.0187 70.7036 54.4406C68.2684 59.8625 64.3189 64.4655 59.3299 67.6962C54.3409 70.9269 48.525 72.6478 42.5813 72.6518C40.8569 72.6521 39.1354 72.509 37.4347 72.2241C36.7044 72.1089 35.9581 72.2867 35.3582 72.7188C34.7583 73.151 34.3533 73.8025 34.2313 74.5317C34.1093 75.2609 34.2802 76.0088 34.7067 76.6127C35.1333 77.2166 35.7811 77.6276 36.5091 77.7564C44.1259 79.0377 51.9528 77.8653 58.8597 74.4083C65.7667 70.9514 71.3963 65.3889 74.9358 58.5238C78.4752 51.6588 79.7414 43.8465 78.5514 36.215C77.3614 28.5834 73.7769 21.5275 68.3154 16.066C62.8539 10.6045 55.7979 7.01993 48.1664 5.82995C40.5349 4.63998 32.7226 5.90613 25.8575 9.4456C18.9925 12.9851 13.43 18.6147 9.97301 25.5216C6.51607 32.4286 5.34364 40.2555 6.62499 47.8722C6.74775 48.6058 7.1569 49.2606 7.76243 49.6926C8.36796 50.1246 9.12028 50.2983 9.8539 50.1756ZM53.8001 44.6047C53.8001 46.8236 53.1422 48.9927 51.9094 50.8376C50.6767 52.6825 48.9246 54.1205 46.8746 54.9696C44.8246 55.8187 42.5689 56.0409 40.3926 55.608C38.2164 55.1751 36.2174 54.1066 34.6484 52.5377C33.0794 50.9687 32.0109 48.9697 31.5781 46.7934C31.1452 44.6172 31.3674 42.3615 32.2165 40.3115C33.0656 38.2615 34.5035 36.5094 36.3485 35.2766C38.1934 34.0439 40.3624 33.3859 42.5813 33.3859C45.5567 33.3859 48.4103 34.5679 50.5142 36.6718C52.6182 38.7758 53.8001 41.6293 53.8001 44.6047ZM61.485 17.4342C59.4561 20.6074 56.6609 23.2188 53.3573 25.0277C50.0536 26.8366 46.3478 27.7847 42.5813 27.7847C38.8149 27.7847 35.109 26.8366 31.8054 25.0277C28.5017 23.2188 25.7066 20.6074 23.6776 17.4342C29.0825 13.2307 35.7342 10.9485 42.5813 10.9485C49.4284 10.9485 56.0801 13.2307 61.485 17.4342Z" fill="#3C3F50"/>
</svg>
