<svg width="23" height="23" viewBox="0 0 23 23" fill="none" xmlns="http://www.w3.org/2000/svg">
<path d="M1.85699 17.7755L2.30043 18.0315C2.24841 18.3069 2.24841 18.5896 2.30043 18.8651L1.85699 19.1211C1.68209 19.222 1.55446 19.3883 1.50217 19.5834C1.44988 19.7784 1.47722 19.9863 1.57817 20.1611C1.67912 20.336 1.84542 20.4637 2.04047 20.516C2.23553 20.5683 2.44337 20.5409 2.61827 20.44L3.06266 20.183C3.27533 20.3655 3.51987 20.5071 3.78397 20.6008V21.1127C3.78397 21.3146 3.86418 21.5083 4.00694 21.6511C4.14971 21.7938 4.34335 21.874 4.54525 21.874C4.74715 21.874 4.94079 21.7938 5.08355 21.6511C5.22632 21.5083 5.30653 21.3146 5.30653 21.1127V20.6008C5.57063 20.5071 5.81516 20.3655 6.02784 20.183L6.47223 20.44C6.55883 20.49 6.65443 20.5224 6.75357 20.5354C6.85271 20.5485 6.95344 20.5419 7.05003 20.516C7.14661 20.4901 7.23714 20.4454 7.31647 20.3845C7.39579 20.3237 7.46234 20.2478 7.51233 20.1611C7.56231 20.0745 7.59475 19.9789 7.60779 19.8798C7.62083 19.7807 7.61422 19.6799 7.58833 19.5834C7.56244 19.4868 7.51778 19.3962 7.4569 19.3169C7.39602 19.2376 7.32011 19.171 7.23351 19.1211L6.79007 18.8651C6.84209 18.5896 6.84209 18.3069 6.79007 18.0315L7.23351 17.7755C7.37873 17.6917 7.49224 17.5624 7.55643 17.4075C7.62062 17.2527 7.6319 17.081 7.58851 16.919C7.54513 16.7571 7.44951 16.614 7.3165 16.512C7.18348 16.41 7.02051 16.3547 6.85287 16.3548C6.71921 16.3543 6.58784 16.3895 6.47223 16.4566L6.02784 16.7135C5.81516 16.5311 5.57063 16.3894 5.30653 16.2958V15.7838C5.30653 15.5819 5.22632 15.3883 5.08355 15.2455C4.94079 15.1027 4.74715 15.0225 4.54525 15.0225C4.34335 15.0225 4.14971 15.1027 4.00694 15.2455C3.86418 15.3883 3.78397 15.5819 3.78397 15.7838V16.2958C3.51987 16.3894 3.27533 16.5311 3.06266 16.7135L2.61827 16.4566C2.50266 16.3895 2.37129 16.3543 2.23763 16.3548C2.06999 16.3547 1.90702 16.41 1.774 16.512C1.64099 16.614 1.54537 16.7571 1.50199 16.919C1.4586 17.081 1.46988 17.2527 1.53407 17.4075C1.59826 17.5624 1.71177 17.6917 1.85699 17.7755ZM5.30653 18.4483C5.30653 18.5988 5.26188 18.746 5.17823 18.8712C5.09458 18.9964 4.97568 19.094 4.83658 19.1516C4.69747 19.2092 4.5444 19.2243 4.39673 19.1949C4.24906 19.1656 4.11341 19.093 4.00694 18.9866C3.90048 18.8801 3.82797 18.7445 3.7986 18.5968C3.76923 18.4491 3.7843 18.2961 3.84192 18.1569C3.89954 18.0178 3.99711 17.8989 4.12231 17.8153C4.2475 17.7316 4.39468 17.687 4.54525 17.687C4.74715 17.687 4.94079 17.7672 5.08355 17.91C5.22632 18.0527 5.30653 18.2464 5.30653 18.4483ZM2.51359 13.8701C2.71271 13.8368 2.89044 13.7258 3.00769 13.5614C3.12494 13.397 3.17209 13.1928 3.13879 12.9937C3.06149 12.5321 3.02266 12.0648 3.02269 11.5968C3.02089 9.54686 3.77431 7.56811 5.13905 6.0385C5.98809 7.26884 7.18195 8.22069 8.5705 8.77434C7.82463 9.36181 7.28036 10.1671 7.01338 11.0783C6.7464 11.9894 6.76999 12.9611 7.08086 13.8582C7.39173 14.7553 7.97444 15.5333 8.74794 16.0839C9.52144 16.6344 10.4473 16.9303 11.3967 16.9303C12.3462 16.9303 13.272 16.6344 14.0456 16.0839C14.8191 15.5333 15.4018 14.7553 15.7126 13.8582C16.0235 12.9611 16.0471 11.9894 15.7801 11.0783C15.5131 10.1671 14.9689 9.36181 14.223 8.77434C15.6115 8.22069 16.8054 7.26884 17.6544 6.0385C18.7253 7.24516 19.4247 8.73545 19.6687 10.3302C19.9128 11.9249 19.6909 13.5561 19.0299 15.0278C18.369 16.4994 17.2969 17.7488 15.9428 18.6257C14.5886 19.5026 13.01 19.9697 11.3967 19.9708C10.9287 19.9709 10.4614 19.9321 9.9998 19.8547C9.80157 19.8235 9.59901 19.8717 9.43618 19.989C9.27335 20.1063 9.16342 20.2832 9.13031 20.4811C9.09719 20.679 9.14357 20.882 9.25936 21.0459C9.37514 21.2098 9.55096 21.3214 9.74858 21.3564C11.816 21.7041 13.9404 21.3859 15.8152 20.4476C17.6899 19.5093 19.218 17.9995 20.1787 16.1361C21.1394 14.2727 21.483 12.1522 21.1601 10.0808C20.8371 8.00941 19.8641 6.09423 18.3817 4.61182C16.8993 3.1294 14.9841 2.15646 12.9127 1.83347C10.8413 1.51048 8.7208 1.85415 6.85744 2.81486C4.99407 3.77557 3.48423 5.30361 2.54592 7.17836C1.60761 9.0531 1.28938 11.1775 1.63717 13.2449C1.67049 13.4441 1.78155 13.6218 1.9459 13.739C2.11026 13.8563 2.31446 13.9034 2.51359 13.8701ZM14.4419 12.3581C14.4419 12.9603 14.2633 13.5491 13.9287 14.0498C13.5941 14.5506 13.1185 14.9409 12.5621 15.1714C12.0056 15.4018 11.3934 15.4622 10.8027 15.3447C10.212 15.2272 9.66939 14.9371 9.24353 14.5113C8.81766 14.0854 8.52764 13.5428 8.41015 12.9521C8.29265 12.3614 8.35295 11.7492 8.58343 11.1927C8.81391 10.6363 9.20421 10.1607 9.70497 9.82614C10.2057 9.49154 10.7945 9.31295 11.3967 9.31295C12.2044 9.31295 12.9789 9.63377 13.55 10.2048C14.121 10.7759 14.4419 11.5504 14.4419 12.3581ZM16.5278 4.98318C15.977 5.84449 15.2184 6.5533 14.3216 7.04429C13.4249 7.53527 12.4191 7.79262 11.3967 7.79262C10.3744 7.79262 9.36855 7.53527 8.47184 7.04429C7.57514 6.5533 6.81646 5.84449 6.26574 4.98318C7.73278 3.84223 9.53826 3.22279 11.3967 3.22279C13.2552 3.22279 15.0607 3.84223 16.5278 4.98318Z" fill="white"/>
</svg>
