<svg width="101" height="100" viewBox="0 0 101 100" fill="none" xmlns="http://www.w3.org/2000/svg">
<path opacity="0.2" d="M88 49.9999C88.0056 55.259 86.9022 60.4601 84.7618 65.2639C82.6214 70.0677 79.4921 74.3662 75.5781 77.8788C73.225 73.2503 69.6365 69.3635 65.2101 66.6491C60.7838 63.9347 55.6924 62.4986 50.5 62.4999C53.5903 62.4999 56.6113 61.5835 59.1808 59.8666C61.7503 58.1497 63.753 55.7094 64.9356 52.8544C66.1182 49.9993 66.4277 46.8576 65.8248 43.8266C65.2219 40.7957 63.7337 38.0116 61.5485 35.8264C59.3634 33.6412 56.5792 32.153 53.5483 31.5502C50.5173 30.9473 47.3757 31.2567 44.5206 32.4393C41.6655 33.6219 39.2252 35.6246 37.5083 38.1941C35.7914 40.7637 34.875 43.7846 34.875 46.8749C34.875 51.0189 36.5212 54.9932 39.4515 57.9235C42.3817 60.8537 46.356 62.4999 50.5 62.4999C45.3076 62.4986 40.2163 63.9347 35.7899 66.6491C31.3636 69.3635 27.775 73.2503 25.4219 77.8788C20.7744 73.6986 17.2457 68.4228 15.1565 62.5314C13.0673 56.64 12.484 50.3198 13.4595 44.1455C14.4351 37.9712 16.9386 32.1388 20.7424 27.1785C24.5462 22.2182 29.5296 18.2874 35.2395 15.7436C40.9493 13.1998 47.2045 12.1237 53.4362 12.6132C59.6679 13.1026 65.6784 15.1421 70.9211 18.5461C76.1639 21.9501 80.4725 26.6106 83.4553 32.1039C86.4381 37.5972 88.0003 43.749 88 49.9999Z" fill="#18D777"/>
<path d="M66.125 21.875C66.125 21.0462 66.4542 20.2514 67.0403 19.6653C67.6263 19.0793 68.4212 18.75 69.25 18.75H75.5V12.5C75.5 11.6712 75.8292 10.8764 76.4153 10.2903C77.0013 9.70428 77.7962 9.37504 78.625 9.37504C79.4538 9.37504 80.2486 9.70428 80.8347 10.2903C81.4207 10.8764 81.75 11.6712 81.75 12.5V18.75H88C88.8288 18.75 89.6236 19.0793 90.2097 19.6653C90.7957 20.2514 91.125 21.0462 91.125 21.875C91.125 22.7038 90.7957 23.4987 90.2097 24.0848C89.6236 24.6708 88.8288 25 88 25H81.75V31.25C81.75 32.0788 81.4207 32.8737 80.8347 33.4598C80.2486 34.0458 79.4538 34.375 78.625 34.375C77.7962 34.375 77.0013 34.0458 76.4153 33.4598C75.8292 32.8737 75.5 32.0788 75.5 31.25V25H69.25C68.4212 25 67.6263 24.6708 67.0403 24.0848C66.4542 23.4987 66.125 22.7038 66.125 21.875ZM90.5625 43.2344C91.9902 51.721 90.6838 60.4417 86.8321 68.1374C82.9804 75.8331 76.7826 82.1057 69.1336 86.0493C61.4846 89.993 52.7802 91.4037 44.2771 90.0779C35.774 88.752 27.9123 84.7581 21.8271 78.6729C15.7419 72.5877 11.748 64.726 10.4222 56.2229C9.09629 47.7199 10.507 39.0155 14.4507 31.3664C18.3944 23.7174 24.6669 17.5196 32.3626 13.6679C40.0583 9.8162 48.7791 8.50987 57.2656 9.93754C58.0768 10.081 58.7985 10.539 59.2738 11.2118C59.7491 11.8847 59.9395 12.718 59.8036 13.5304C59.6676 14.3429 59.2164 15.0689 58.548 15.5504C57.8796 16.0319 57.0481 16.23 56.2344 16.1016C51.3052 15.2724 46.2545 15.5273 41.4339 16.8485C36.6132 18.1697 32.1384 20.5255 28.3208 23.752C24.5031 26.9785 21.4345 30.9981 19.3283 35.5311C17.2221 40.0641 16.1289 45.0016 16.125 50C16.1176 58.4149 19.2103 66.5375 24.8125 72.8165C28.2978 67.766 33.1985 63.8587 38.8984 61.586C35.8366 59.1744 33.6024 55.8687 32.5065 52.1285C31.4106 48.3884 31.5074 44.3996 32.7835 40.717C34.0596 37.0344 36.4516 33.841 39.6268 31.5809C42.802 29.3207 46.6025 28.1062 50.5 28.1062C54.3974 28.1062 58.198 29.3207 61.3732 31.5809C64.5484 33.841 66.9403 37.0344 68.2164 40.717C69.4925 44.3996 69.5894 48.3884 68.4935 52.1285C67.3975 55.8687 65.1633 59.1744 62.1015 61.586C67.8015 63.8587 72.7022 67.766 76.1875 72.8165C81.7896 66.5375 84.8824 58.4149 84.875 50C84.8751 48.0787 84.7157 46.1606 84.3984 44.2657C84.3265 43.8592 84.3359 43.4424 84.426 43.0396C84.5161 42.6367 84.6851 42.2557 84.9233 41.9185C85.1614 41.5813 85.4641 41.2947 85.8136 41.0751C86.1632 40.8555 86.5529 40.7074 86.96 40.6393C87.3672 40.5712 87.7838 40.5844 88.1858 40.6782C88.5878 40.772 88.9673 40.9446 89.3022 41.1859C89.6372 41.4272 89.921 41.7324 90.1373 42.0841C90.3536 42.4357 90.4981 42.8266 90.5625 43.2344ZM50.5 59.375C52.9723 59.375 55.389 58.6419 57.4446 57.2684C59.5002 55.8949 61.1024 53.9427 62.0485 51.6586C62.9946 49.3745 63.2421 46.8612 62.7598 44.4364C62.2775 42.0117 61.087 39.7844 59.3388 38.0362C57.5907 36.2881 55.3634 35.0975 52.9386 34.6152C50.5139 34.1329 48.0005 34.3805 45.7164 35.3266C43.4324 36.2726 41.4801 37.8748 40.1066 39.9304C38.7331 41.986 38 44.4028 38 46.875C38 50.1903 39.3169 53.3697 41.6611 55.7139C44.0054 58.0581 47.1848 59.375 50.5 59.375ZM50.5 84.375C58.1303 84.3827 65.5441 81.8391 71.5625 77.1485C69.3018 73.6129 66.1875 70.7032 62.5065 68.6878C58.8256 66.6723 54.6966 65.6159 50.5 65.6159C46.3034 65.6159 42.1744 66.6723 38.4934 68.6878C34.8125 70.7032 31.6982 73.6129 29.4375 77.1485C35.4558 81.8391 42.8697 84.3827 50.5 84.375Z" fill="#18D777"/>
</svg>
