<svg width="75" height="74" viewBox="0 0 75 74" fill="none" xmlns="http://www.w3.org/2000/svg">
<path d="M33.1552 18.9454C33.1552 18.1093 33.4032 17.292 33.8677 16.5968C34.3322 15.9016 34.9924 15.3598 35.7648 15.0398C36.5373 14.7199 37.3873 14.6361 38.2073 14.7993C39.0273 14.9624 39.7806 15.365 40.3718 15.9562C40.963 16.5474 41.3656 17.3006 41.5287 18.1207C41.6918 18.9407 41.6081 19.7907 41.2881 20.5631C40.9682 21.3356 40.4263 21.9958 39.7312 22.4603C39.036 22.9248 38.2187 23.1727 37.3826 23.1727C36.2614 23.1727 35.1862 22.7273 34.3934 21.9346C33.6006 21.1418 33.1552 20.0665 33.1552 18.9454ZM37.3826 56.9915C45.1538 56.9915 51.4737 51.3022 51.4737 44.3095V42.9003C51.4737 42.1529 51.1768 41.4361 50.6483 40.9076C50.1198 40.379 49.4029 40.0821 48.6555 40.0821C47.9081 40.0821 47.1912 40.379 46.6627 40.9076C46.1342 41.4361 45.8373 42.1529 45.8373 42.9003V44.3095C45.8373 48.1845 42.0432 51.355 37.3826 51.355C32.7219 51.355 28.9279 48.1845 28.9279 44.3095C28.9279 40.4344 32.7219 37.2639 37.3826 37.2639C38.13 37.2639 38.8468 36.967 39.3754 36.4384C39.9039 35.9099 40.2008 35.1931 40.2008 34.4457L40.2008 31.6274C40.2008 30.88 39.9039 30.1631 39.3754 29.6346C38.8468 29.1061 38.13 28.8092 37.3826 28.8092C36.6351 28.8092 35.9183 29.1061 35.3898 29.6346C34.8613 30.1631 34.5643 30.88 34.5643 31.6274V31.8811C28.1388 33.0612 23.2914 38.1869 23.2914 44.3095C23.2914 51.3022 29.6113 56.9915 37.3826 56.9915ZM0.74558 37.2639C0.74558 30.0178 2.8943 22.9344 6.92003 16.9095C10.9458 10.8845 16.6677 6.18868 23.3622 3.41571C30.0567 0.642742 37.4232 -0.0827924 44.5301 1.33085C51.637 2.7445 58.1651 6.23383 63.2888 11.3576C68.4126 16.4814 71.902 23.0095 73.3156 30.1164C74.7293 37.2232 74.0037 44.5897 71.2308 51.2843C68.4578 57.9788 63.7619 63.7007 57.737 67.7264C51.7121 71.7522 44.6287 73.9009 37.3826 73.9009C27.669 73.8906 18.3562 70.0274 11.4876 63.1588C4.61909 56.2903 0.755838 46.9775 0.74558 37.2639ZM6.38204 37.2639C6.38204 43.3952 8.20019 49.3888 11.6066 54.4869C15.013 59.5849 19.8546 63.5583 25.5192 65.9046C31.1838 68.251 37.417 68.8649 43.4305 67.6688C49.444 66.4726 54.9678 63.5201 59.3033 59.1846C63.6388 54.8491 66.5913 49.3253 67.7874 43.3118C68.9836 37.2983 68.3697 31.0651 66.0233 25.4005C63.677 19.7359 59.7036 14.8943 54.6056 11.4879C49.5075 8.08149 43.5139 6.26334 37.3826 6.26334C29.1636 6.27267 21.2839 9.54178 15.4722 15.3535C9.66048 21.1652 6.39136 29.0449 6.38204 37.2639Z" fill="#3C3F50"/>
</svg>
