<svg width="23" height="22" viewBox="0 0 23 22" fill="none" xmlns="http://www.w3.org/2000/svg">
<path d="M10.2598 5.48959C10.2598 5.24746 10.3316 5.01077 10.4661 4.80945C10.6006 4.60813 10.7918 4.45122 11.0155 4.35857C11.2392 4.26591 11.4854 4.24166 11.7228 4.2889C11.9603 4.33614 12.1785 4.45273 12.3497 4.62394C12.5209 4.79515 12.6375 5.01328 12.6847 5.25076C12.7319 5.48823 12.7077 5.73438 12.615 5.95807C12.5224 6.18177 12.3655 6.37296 12.1641 6.50748C11.9628 6.642 11.7261 6.7138 11.484 6.7138C11.1593 6.7138 10.848 6.58482 10.6184 6.35523C10.3888 6.12565 10.2598 5.81427 10.2598 5.48959ZM11.484 16.5075C13.7345 16.5075 15.5647 14.8599 15.5647 12.8348V12.4268C15.5647 12.2103 15.4787 12.0027 15.3257 11.8497C15.1726 11.6966 14.965 11.6106 14.7486 11.6106C14.5321 11.6106 14.3245 11.6966 14.1715 11.8497C14.0184 12.0027 13.9324 12.2103 13.9324 12.4268V12.8348C13.9324 13.957 12.8337 14.8752 11.484 14.8752C10.1343 14.8752 9.0356 13.957 9.0356 12.8348C9.0356 11.7126 10.1343 10.7945 11.484 10.7945C11.7005 10.7945 11.9081 10.7085 12.0611 10.5554C12.2142 10.4024 12.3002 10.1948 12.3002 9.97835V9.16221C12.3002 8.94576 12.2142 8.73817 12.0611 8.58511C11.9081 8.43206 11.7005 8.34607 11.484 8.34607C11.2676 8.34607 11.06 8.43206 10.9069 8.58511C10.7539 8.73817 10.6679 8.94576 10.6679 9.16221V9.23566C8.80708 9.57742 7.40332 11.0618 7.40332 12.8348C7.40332 14.8599 9.23351 16.5075 11.484 16.5075ZM0.874208 10.7945C0.874208 8.69607 1.49646 6.64477 2.66228 4.9C3.8281 3.15522 5.48513 1.79534 7.42382 0.992307C9.36251 0.189276 11.4958 -0.0208334 13.5539 0.388548C15.612 0.79793 17.5025 1.80842 18.9863 3.29222C20.4701 4.77603 21.4806 6.66652 21.89 8.72462C22.2993 10.7827 22.0892 12.916 21.2862 14.8547C20.4832 16.7934 19.1233 18.4504 17.3785 19.6162C15.6337 20.782 13.5824 21.4043 11.484 21.4043C8.67103 21.4013 5.97411 20.2826 3.98503 18.2935C1.99595 16.3044 0.877179 13.6075 0.874208 10.7945ZM2.50649 10.7945C2.50649 12.5701 3.03301 14.3058 4.01947 15.7821C5.00594 17.2585 6.40803 18.4092 8.04846 19.0886C9.68889 19.7681 11.494 19.9459 13.2354 19.5995C14.9769 19.2531 16.5766 18.3981 17.8321 17.1426C19.0876 15.887 19.9426 14.2874 20.289 12.5459C20.6354 10.8044 20.4577 8.99937 19.7782 7.35894C19.0987 5.71851 17.948 4.31641 16.4717 3.32995C14.9953 2.34348 13.2596 1.81696 11.484 1.81696C9.10385 1.81966 6.82195 2.76637 5.13893 4.4494C3.4559 6.13243 2.50919 8.41433 2.50649 10.7945Z" fill="white"/>
</svg>
