<svg width="39" height="39" viewBox="0 0 39 39" fill="none" xmlns="http://www.w3.org/2000/svg">
<path d="M19.4061 18.1325C19.5175 18.1484 19.6607 18.1484 19.788 18.1325C22.589 18.228 24.8171 20.5197 24.8171 23.3366C24.8171 26.2172 22.4935 28.5566 19.5971 28.5566C16.7165 28.5566 14.377 26.2172 14.377 23.3366C14.3929 20.5197 16.6051 18.228 19.4061 18.1325Z" stroke="white" stroke-width="1.59147" stroke-linecap="round" stroke-linejoin="round"/>
<path d="M8.87094 7.62741C11.7038 5.03331 15.4596 3.45775 19.5975 3.45775C23.7353 3.45775 27.4912 5.03331 30.324 7.62741C30.1648 9.12339 29.2099 10.5875 27.5071 11.7334C23.1464 14.6299 16.0166 14.6299 11.6878 11.7334C9.98497 10.5875 9.03009 9.12339 8.87094 7.62741Z" stroke="white" stroke-width="1.59147" stroke-linecap="round" stroke-linejoin="round"/>
<path d="M19.5971 3.45768C10.8077 3.45768 3.68241 10.5829 3.68241 19.3724C3.68241 28.1618 10.8077 35.2871 19.5971 35.2871C28.3866 35.2871 35.5118 28.1618 35.5118 19.3724C35.5118 10.5829 28.3866 3.45768 19.5971 3.45768Z" stroke="white" stroke-width="1.59147" stroke-linecap="round" stroke-linejoin="round"/>
</svg>
