<svg width="48" height="48" viewBox="0 0 48 48" fill="none" xmlns="http://www.w3.org/2000/svg">
<path fill-rule="evenodd" clip-rule="evenodd" d="M23.9577 47.9155C37.1892 47.9155 47.9155 37.1892 47.9155 23.9577C47.9155 10.7262 37.1892 0 23.9577 0C10.7262 0 0 10.7262 0 23.9577C0 28.5709 1.30382 32.8795 3.56307 36.5351L0.753762 47.9989L12.0029 44.7242C15.5213 46.7541 19.6039 47.9155 23.9577 47.9155Z" fill="#575C79"/>
<path fill-rule="evenodd" clip-rule="evenodd" d="M38.385 34.5397C40.5638 31.575 41.8509 27.9142 41.8509 23.9528C41.8509 14.069 33.8385 6.05664 23.9547 6.05664C14.071 6.05664 6.05859 14.069 6.05859 23.9528C6.05859 33.8366 14.071 41.8489 23.9547 41.8489C27.1823 41.8489 30.2104 40.9945 32.825 39.4995L40.1163 41.628L38.385 34.5397Z" fill="#39E991"/>
<rect x="11.835" y="22.7969" width="2.59783" height="2.59783" rx="1.29891" fill="white"/>
<rect x="17.3203" y="19.0449" width="2.59783" height="9.81402" rx="1.29891" fill="white"/>
<rect x="28.2881" y="19.0449" width="2.59783" height="9.81402" rx="1.29891" fill="white"/>
<rect x="22.8037" y="13.5957" width="2.59783" height="17.3189" rx="1.29891" fill="white"/>
<rect x="33.7734" y="22.7969" width="2.59783" height="2.59783" rx="1.29891" fill="white"/>
</svg>
